<svg width="113" height="113" viewBox="0 0 113 113" fill="none" xmlns="http://www.w3.org/2000/svg">
<path d="M113 56.5C113 87.7041 87.7041 113 56.5 113C25.2959 113 0 87.7041 0 56.5C0 25.2959 25.2959 0 56.5 0C87.7041 0 113 25.2959 113 56.5Z" fill="#3FB9F2"/>
<path d="M101.433 25.7393C101.027 25.5724 99.9765 25.4127 99.2518 25.4127C97.4689 25.4199 95.0554 25.87 92.9029 26.6103C89.5111 27.779 84.9451 29.9855 82.4664 31.655C82.0606 31.9308 81.7127 32.105 81.4518 32.1631C80.727 32.3301 79.379 32.7946 78.763 33.0922C76.5597 34.1519 75.2189 35.7343 74.4652 38.1514C74.1535 39.1531 73.9216 39.6975 73.6389 40.0459C73.1968 40.6048 71.9648 41.4685 70.1384 42.5138C66.8625 44.3792 65.9783 44.9309 64.8912 45.7728C64.1664 46.339 63.3619 47.1737 63.0213 47.7036C62.2458 48.9158 62.282 50.186 63.1228 51.3619C63.2532 51.5361 63.3764 51.6668 63.4127 51.6523C63.4416 51.6305 63.6083 51.7829 63.7823 51.9934C64.4708 52.8209 64.8622 53.0604 65.6159 53.1257C66.1957 53.1693 66.8335 53.0532 67.8989 52.7047C68.8918 52.3854 69.9644 51.8555 71.5516 50.9119C73.349 49.8376 73.9288 49.4166 74.5811 48.7053C74.9073 48.3496 75.1754 48.0665 75.1899 48.0738C75.1972 48.0883 75.0305 48.8795 74.813 49.8376C74.3927 51.7321 74.3637 51.9499 74.5304 52.2692C74.6246 52.4507 74.6246 52.487 74.5449 52.487C74.3927 52.487 74.2042 52.2475 74.1245 51.9571C74.0665 51.7394 74.11 51.4563 74.3492 50.3675C74.5086 49.6344 74.6391 49.0102 74.6391 48.9739C74.6391 48.9376 74.3637 49.1989 74.0303 49.5545C73.5375 50.0772 73.2403 50.3167 72.4214 50.8248C71.8633 51.1659 71.0371 51.6523 70.5805 51.9063C69.3991 52.5596 68.986 52.9806 68.4207 54.1202C68.1018 54.7662 67.9206 55.2888 67.6452 56.3703C67.2683 57.8365 66.9277 58.7221 66.4276 59.5278L66.2682 59.7818L66.6306 59.5205C70.1166 57.0018 70.2616 56.8784 70.5877 56.3703C70.7472 56.1163 71.1748 55.6227 71.5444 55.267C71.914 54.9186 72.3779 54.4178 72.5736 54.1564C73.2621 53.2564 73.8564 52.7846 74.4797 52.6467C74.6463 52.6031 74.8565 52.5886 74.9435 52.6176C75.0595 52.6467 75.0015 52.683 74.6971 52.7773C74.0448 52.9806 73.3925 53.5177 72.6388 54.4831C72.4866 54.6791 72.2764 54.9113 72.1749 54.9912C71.6894 55.3686 70.8921 56.1961 70.6457 56.5808C70.3268 57.0671 70.0007 57.3212 67.1089 59.339C66.1015 60.0431 65.2028 60.6311 65.1158 60.6528C65.0361 60.6673 64.507 60.7327 63.949 60.798C62.0356 61.0158 59.9483 61.3496 59.1294 61.5601C58.1292 61.8215 57.274 61.7997 55.3679 61.444C53.8387 61.1682 52.8675 61.2263 51.7079 61.6618C50.2801 62.2062 49.2582 63.4328 49.3814 64.4636C49.4466 64.9789 49.6496 65.4435 49.867 65.5596C49.9757 65.6177 50.4106 65.654 51.0846 65.6612C52.0775 65.6757 52.2007 65.6975 53.4038 66.0169C55.0707 66.4597 56.6652 66.8371 57.0856 66.8952C57.274 66.9242 57.4769 66.9605 57.5349 66.9823C57.6871 67.0331 57.1145 67.3234 56.5202 67.5049C55.4911 67.817 54.8678 67.8896 52.7878 67.9477C50.5048 68.013 50.3019 68.0493 49.2365 68.5646C48.3813 68.9784 47.7217 69.5373 47.2506 70.2341C46.8158 70.8874 46.6346 71.4463 46.6853 71.9689C46.7288 72.4334 46.9752 73.1012 47.2071 73.348C47.4246 73.5803 47.7435 73.5948 48.6204 73.3915C49.0553 73.2899 49.5119 73.2464 50.1569 73.2464L51.0773 73.2464L50.7947 73.7037C50.4468 74.2626 50.2656 74.8941 50.3526 75.2788C50.4178 75.5764 50.8599 76.3603 51.0556 76.52C51.1426 76.5926 51.244 76.5926 51.5049 76.5345C51.6934 76.4909 52.1427 76.3893 52.4979 76.3095C52.9689 76.2006 53.6285 76.1353 54.8895 76.0772C57.7451 75.9538 58.8902 75.7723 61.2239 75.09C61.9631 74.8723 63.8258 74.3497 65.355 73.9287C68.1308 73.1665 68.7541 72.9706 69.3411 72.673C70.1674 72.2447 70.7037 71.4463 72.059 68.6009L72.588 67.4758L73.3056 66.8444C74.5376 65.7556 75.4073 65.1894 77.5744 64.0716C79.1036 63.2804 80.0458 62.6634 80.6763 62.032C81.546 61.1682 81.9519 60.5294 82.7274 58.8164C83.4159 57.2849 83.9087 56.3993 85.1625 54.4395C85.7061 53.5758 86.4671 52.2983 86.8367 51.6087C87.6702 50.0626 87.8949 49.6997 88.6196 48.7997C90.6272 46.3027 93.5334 44.3937 98.3168 42.4267L99.7084 41.8532L99.9983 40.6556C101.013 36.4747 101.535 32.3736 101.651 27.8298L101.694 25.8482L101.433 25.7393ZM91.5621 29.1073C87.547 29.9783 84.9813 30.7767 83.8652 31.5098L83.5173 31.7349L83.8362 31.4445C84.2711 31.0526 85.3727 30.4936 86.3946 30.138C88.0688 29.5646 89.8155 29.1653 92.613 28.7226C95.1786 28.3161 95.0844 28.3524 91.5621 29.1073ZM51.7369 75.9611C51.302 76.2804 51.2875 76.2877 51.5629 76.0264C51.7296 75.874 51.976 75.6852 52.1065 75.6127C52.4326 75.4312 52.3167 75.5401 51.7369 75.9611Z" fill="white"/>
<path d="M63.8185 33.2882C63.6881 32.9035 63.4417 32.4244 63.3184 32.3301C63.1228 32.1776 62.8401 32.1704 62.1733 32.3155C61.4413 32.4752 59.9991 32.5768 59.6802 32.497L59.4845 32.4462L59.6657 32.2139C60.0715 31.6623 60.318 30.9001 60.2165 30.4719C60.1513 30.1815 59.8251 29.55 59.6222 29.3323C59.441 29.1436 59.2381 29.1508 58.3684 29.3686C57.7596 29.5283 57.3175 29.5718 55.6505 29.6589C54.5562 29.717 53.5125 29.7823 53.3313 29.8041C51.9326 29.9783 50.8889 30.2106 48.7291 30.8348C47.4173 31.205 45.6127 31.7131 44.7212 31.9526C42.1194 32.6494 41.3149 32.9398 40.7568 33.368C40.2713 33.7382 39.5537 34.9359 38.684 36.8231C38.0463 38.2022 37.9593 38.3183 36.8432 39.2619C35.9155 40.0386 35.053 40.5903 33.1614 41.5919C32.2555 42.071 31.2915 42.6081 31.0234 42.7896C29.8493 43.5663 28.9723 44.597 28.3056 45.9688C28.0881 46.4189 27.6315 47.3625 27.2909 48.0593C26.9503 48.7561 26.3705 49.8013 26.0008 50.382C24.6311 52.5378 24.2759 53.133 23.6889 54.229C23.3627 54.846 22.9279 55.6009 22.7322 55.8985C21.4204 57.8583 19.4201 59.6584 16.9849 61.0593C15.9557 61.6472 13.854 62.6634 12.5639 63.1933C12.0058 63.4183 11.4115 63.6651 11.2521 63.7377L10.9477 63.8684L10.6216 65.233C9.55616 69.6389 9.03434 73.6601 8.92562 78.3564L8.88214 80.4541L9.20103 80.4105C9.37497 80.3815 10.9404 80.2146 12.6726 80.0331L15.8253 79.6992L17.2023 79.2347C20.7826 78.0297 25.5805 75.7578 28.0446 74.1101C28.523 73.7908 28.8129 73.6529 29.255 73.544C31.3278 73.0068 32.8135 72.2737 33.9297 71.214C35.0675 70.147 35.6981 69.0364 36.2924 67.0331C36.4156 66.6339 36.6185 66.1548 36.7417 65.9661C37.2055 65.262 38.3072 64.449 40.4307 63.2296C41.0105 62.903 41.9382 62.3731 42.4962 62.0537C45.4895 60.3335 47.1202 58.9616 47.8087 57.5825C48.0334 57.1179 48.0696 56.9655 48.0986 56.4211C48.1276 55.7025 47.9899 55.1872 47.5985 54.5847C47.3956 54.2653 47.0405 53.8806 47.2072 54.1564C47.2869 54.2798 46.7361 53.7064 46.3954 53.2999C46.1273 52.9733 45.6707 52.7338 45.1344 52.6322C44.656 52.5378 43.6776 52.6902 42.7137 53.0096C41.844 53.2927 40.293 54.0621 38.9015 54.9041C36.9229 56.0945 36.6112 56.334 35.7633 57.2776C35.5314 57.5389 35.3647 57.6841 35.3792 57.6042C35.4009 57.5244 35.5893 56.6969 35.7923 55.7606C36.1836 53.9822 36.2126 53.6266 35.9662 53.3507C35.8647 53.2419 35.8647 53.2128 35.9445 53.2128C36.1474 53.2128 36.3503 53.4306 36.4373 53.7355C36.517 54.0185 36.4953 54.1782 36.2271 55.3468C36.0677 56.0582 35.9372 56.6897 35.9372 56.7477C35.9372 56.7985 36.1691 56.5881 36.4446 56.2687C36.7417 55.9348 37.1693 55.5501 37.4665 55.3541C38.2347 54.846 39.5248 54.0766 40.3147 53.6483C40.8873 53.3362 41.083 53.1911 41.4091 52.7918C41.8222 52.291 42.3368 51.3256 42.5977 50.5635C42.6774 50.3239 42.8586 49.6852 42.9963 49.1481C43.3804 47.6673 43.6124 47.0794 44.098 46.3027C44.1994 46.1503 44.2574 46.0269 44.2357 46.0269C44.1994 46.0269 42.9528 46.927 41.3656 48.1028C40.351 48.8577 40.1408 49.0464 40.0248 49.3077C39.9451 49.5037 39.59 49.9175 39.0899 50.4183C38.6478 50.8611 38.1405 51.4127 37.952 51.6523C37.5244 52.2184 36.9809 52.7265 36.5895 52.9225C36.3068 53.0677 35.5024 53.2128 35.5024 53.1185C35.5024 53.0967 35.6763 53.0241 35.8937 52.966C36.4156 52.8136 37.0896 52.291 37.6331 51.6232C38.1332 50.999 38.2347 50.8974 38.9957 50.2223C39.3001 49.9538 39.6987 49.5037 39.8799 49.2279C40.1118 48.8868 40.3727 48.6109 40.7351 48.3351C41.3729 47.856 44.1849 45.889 44.8879 45.4244L45.3953 45.0905L46.6998 44.9381C48.5769 44.7131 50.1134 44.4736 51.2658 44.2123C52.5268 43.9219 53.1574 43.9364 55.2229 44.2921C56.5927 44.5244 56.6724 44.5316 57.3537 44.4445C58.6655 44.2776 59.6802 43.8203 60.4339 43.0509C61.1732 42.296 61.3616 41.5919 61.0572 40.6701C60.876 40.1402 60.7746 40.0967 59.4193 40.0604C58.3611 40.0241 58.2234 40.0023 57.0276 39.6829C55.8462 39.3708 54.0126 38.9281 53.2588 38.7901L52.9327 38.7248L53.3096 38.5288C54.2663 38.0353 55.6216 37.8102 57.8248 37.7812C59.5352 37.7667 59.9411 37.7231 60.6151 37.4981C62.3763 36.9029 63.804 35.3931 63.8838 34.0285C63.8982 33.7745 63.8693 33.4551 63.8185 33.2882ZM58.5713 30.0581C58.4408 30.138 58.3321 30.1888 58.3321 30.1743C58.3321 30.138 59.0424 29.6081 59.2018 29.5283C59.3975 29.4194 58.8105 29.913 58.5713 30.0581Z" fill="white"/>
</svg>
