<svg width="567" height="325" viewBox="0 0 567 325" fill="none" xmlns="http://www.w3.org/2000/svg">
<path d="M132.488 32V204H102V32H132.488Z" fill="#3FB9F2"/>
<path d="M175.11 32H201.009L239.145 158.283L277.28 32H303.18L249.545 204H228.744L175.11 32ZM161.14 32H186.938L191.628 155.093V204H161.14V32ZM291.351 32H317.251V204H286.661V155.093L291.351 32Z" fill="#3FB9F2"/>
<path d="M374.658 32V204H344.068V32H374.658ZM463.572 32L404.738 116.937L370.783 159.228L365.277 125.679L388.219 89.294L426.049 32H463.572ZM428.802 204L385.058 124.497L407.695 102.525L465 204H428.802Z" fill="#3FB9F2"/>
<mask id="path-2-inside-1_2_25" fill="white">
<path d="M467.031 1.32389C465.386 0.647245 461.126 1.53872e-05 458.189 1.52588e-05C450.962 0.0294345 441.181 1.85344 432.456 4.85424C418.709 9.59078 400.203 18.5343 390.156 25.3008C388.511 26.4187 387.101 27.1248 386.044 27.3602C383.106 28.0368 377.643 29.9197 375.146 31.1259C366.216 35.4211 360.781 41.8346 357.726 51.6313C356.463 55.6912 355.523 57.8976 354.378 59.3098C352.586 61.5751 347.592 65.076 340.189 69.3124C326.912 76.8732 323.328 79.1091 318.922 82.5218C315.984 84.8165 312.724 88.1997 311.343 90.3474C308.2 95.2604 308.347 100.409 311.754 105.175C312.283 105.881 312.782 106.41 312.929 106.352C313.047 106.263 313.722 106.881 314.427 107.734C317.218 111.088 318.804 112.059 321.859 112.324C324.209 112.5 326.794 112.03 331.112 110.617C335.137 109.323 339.484 107.175 345.917 103.351C353.202 98.9967 355.552 97.2904 358.196 94.4073C359.518 92.9657 360.605 91.8183 360.664 91.8478C360.693 91.9066 360.017 95.1133 359.136 98.9967C357.432 106.675 357.315 107.558 357.991 108.852C358.372 109.588 358.372 109.735 358.049 109.735C357.432 109.735 356.669 108.764 356.346 107.587C356.111 106.705 356.287 105.557 357.256 101.144C357.902 98.173 358.431 95.6429 358.431 95.4958C358.431 95.3487 357.315 96.4078 355.964 97.8493C353.966 99.9675 352.762 100.938 349.443 102.998C347.181 104.38 343.832 106.352 341.981 107.381C337.193 110.029 335.519 111.735 333.227 116.354C331.935 118.973 331.201 121.091 330.084 125.474C328.557 131.417 327.176 135.006 325.149 138.272L324.503 139.301L325.972 138.242C340.101 128.034 340.689 127.534 342.011 125.474C342.657 124.445 344.39 122.444 345.888 121.003C347.386 119.59 349.266 117.56 350.059 116.501C352.85 112.853 355.259 110.941 357.785 110.382C358.461 110.206 359.312 110.147 359.665 110.264C360.135 110.382 359.9 110.529 358.666 110.912C356.022 111.735 353.379 113.912 350.324 117.825C349.707 118.62 348.855 119.561 348.444 119.885C346.476 121.414 343.244 124.768 342.246 126.327C340.953 128.299 339.631 129.328 327.911 137.507C323.827 140.361 320.185 142.744 319.832 142.832C319.509 142.891 317.365 143.155 315.103 143.42C307.348 144.303 298.888 145.656 295.569 146.509C291.515 147.568 288.049 147.48 280.323 146.039C274.125 144.921 270.189 145.156 265.489 146.921C259.702 149.128 255.56 154.099 256.059 158.277C256.324 160.366 257.146 162.249 258.027 162.719C258.468 162.955 260.231 163.102 262.962 163.131C266.987 163.19 267.486 163.278 272.362 164.573C279.119 166.367 285.581 167.897 287.285 168.133C288.049 168.25 288.871 168.397 289.106 168.486C289.723 168.692 287.402 169.868 284.994 170.604C280.822 171.869 278.296 172.163 269.866 172.398C260.612 172.663 259.79 172.81 255.472 174.899C252.006 176.576 249.332 178.841 247.423 181.666C245.661 184.313 244.926 186.579 245.132 188.697C245.308 190.58 246.307 193.286 247.247 194.287C248.128 195.228 249.421 195.287 252.975 194.463C254.737 194.051 256.588 193.875 259.202 193.875H262.933L261.787 195.728C260.377 197.993 259.643 200.553 259.996 202.112C260.26 203.318 262.052 206.496 262.845 207.143C263.197 207.437 263.609 207.437 264.666 207.202C265.43 207.025 267.251 206.613 268.691 206.29C270.6 205.848 273.273 205.584 278.384 205.348C289.958 204.848 294.599 204.113 304.058 201.347C307.054 200.465 314.604 198.346 320.802 196.64C332.052 193.551 334.579 192.757 336.958 191.551C340.307 189.815 342.481 186.579 347.974 175.046L350.118 170.486L353.026 167.927C358.02 163.514 361.545 161.219 370.328 156.688C376.526 153.482 380.345 150.981 382.901 148.422C386.426 144.921 388.071 142.332 391.214 135.389C394.004 129.181 396.002 125.592 401.084 117.649C403.287 114.148 406.371 108.97 407.869 106.175C411.247 99.9087 412.158 98.4377 415.096 94.7897C423.232 84.6694 435.012 76.9321 454.399 68.9594L460.039 66.6352L461.214 61.781C465.327 44.8354 467.442 28.2133 467.912 9.79672L468.088 1.76519L467.031 1.32389ZM427.022 14.9746C410.748 18.5049 400.349 21.741 395.826 24.7124L394.416 25.6244L395.708 24.4476C397.471 22.859 401.936 20.5937 406.078 19.1521C412.863 16.828 419.943 15.2099 431.281 13.4153C441.68 11.7678 441.298 11.9149 427.022 14.9746ZM265.606 204.878C263.844 206.172 263.785 206.201 264.901 205.142C265.577 204.525 266.576 203.76 267.104 203.465C268.426 202.73 267.956 203.171 265.606 204.878Z"/>
<path d="M314.574 31.9202C314.046 30.361 313.047 28.4193 312.547 28.0368C311.754 27.419 310.609 27.3896 307.906 27.978C304.939 28.6252 299.094 29.0371 297.801 28.7135L297.008 28.5075L297.742 27.5661C299.387 25.3302 300.386 22.2412 299.975 20.5054C299.711 19.3286 298.389 16.7691 297.566 15.8866C296.832 15.1216 296.009 15.1511 292.484 16.0336C290.017 16.6809 288.225 16.8574 281.469 17.2104C277.033 17.4458 272.803 17.7106 272.069 17.7988C266.399 18.5049 262.169 19.4463 253.416 21.9764C248.099 23.4768 240.784 25.5362 237.171 26.507C226.626 29.3313 223.365 30.5081 221.103 32.2438C219.135 33.7442 216.227 38.5984 212.702 46.2475C210.117 51.8372 209.764 52.3079 205.241 56.1325C201.481 59.2803 197.985 61.5162 190.318 65.5761C186.646 67.5178 182.739 69.6949 181.652 70.4303C176.894 73.5782 173.339 77.7558 170.637 83.3161C169.756 85.1401 167.905 88.9646 166.524 91.7889C165.144 94.6132 162.794 98.8496 161.296 101.203C155.744 109.941 154.304 112.353 151.925 116.796C150.603 119.296 148.841 122.356 148.047 123.562C142.731 131.505 134.623 138.801 124.753 144.479C120.582 146.862 112.063 150.981 106.834 153.129C104.572 154.041 102.164 155.041 101.517 155.335L100.284 155.865L98.9618 161.396C94.6437 179.253 92.5287 195.552 92.0881 214.586L91.9118 223.088L93.2043 222.912C93.9093 222.794 100.254 222.117 107.275 221.382L120.053 220.029L125.634 218.146C140.146 213.262 159.592 204.054 169.579 197.376C171.518 196.081 172.693 195.522 174.485 195.081C182.886 192.904 188.908 189.932 193.432 185.637C198.044 181.313 200.599 176.811 203.008 168.692C203.507 167.073 204.33 165.132 204.829 164.367C206.709 161.513 211.174 158.218 219.781 153.276C222.131 151.952 225.891 149.804 228.153 148.51C240.285 141.537 246.894 135.977 249.685 130.387C250.596 128.504 250.742 127.887 250.86 125.68C250.977 122.768 250.419 120.679 248.833 118.237C248.011 116.943 246.571 115.383 247.247 116.501C247.57 117.001 245.337 114.677 243.957 113.03C242.87 111.706 241.019 110.735 238.846 110.323C236.907 109.941 232.941 110.559 229.034 111.853C225.509 113 219.223 116.119 213.583 119.532C205.564 124.356 204.301 125.327 200.864 129.152C199.924 130.211 199.248 130.799 199.307 130.476C199.395 130.152 200.159 126.798 200.981 123.003C202.567 115.795 202.685 114.354 201.686 113.236C201.275 112.794 201.275 112.677 201.598 112.677C202.421 112.677 203.243 113.559 203.596 114.795C203.919 115.942 203.831 116.59 202.744 121.326C202.097 124.209 201.569 126.769 201.569 127.004C201.569 127.21 202.509 126.357 203.625 125.062C204.829 123.709 206.562 122.15 207.767 121.356C210.881 119.296 216.109 116.178 219.311 114.442C221.632 113.177 222.425 112.589 223.747 110.97C225.421 108.941 227.507 105.028 228.564 101.939C228.887 100.968 229.622 98.3789 230.18 96.2019C231.737 90.2003 232.677 87.8173 234.645 84.6694C235.056 84.0516 235.291 83.5515 235.203 83.5515C235.056 83.5515 230.004 87.1995 223.571 91.9654C219.458 95.0251 218.606 95.79 218.136 96.8491C217.813 97.6434 216.374 99.3203 214.347 101.35C212.555 103.145 210.499 105.381 209.735 106.352C208.002 108.646 205.799 110.706 204.212 111.5C203.067 112.088 199.806 112.677 199.806 112.294C199.806 112.206 200.511 111.912 201.392 111.677C203.507 111.059 206.239 108.94 208.442 106.234C210.469 103.704 210.881 103.292 213.965 100.556C215.199 99.4674 216.814 97.6434 217.549 96.5255C218.489 95.1427 219.546 94.0248 221.015 92.9069C223.6 90.9652 234.997 82.9925 237.847 81.1096L239.903 79.7563L245.191 79.1385C252.799 78.2265 259.026 77.2557 263.697 76.1966C268.808 75.0198 271.364 75.0786 279.736 76.5202C285.287 77.4616 285.611 77.491 288.372 77.138C293.689 76.4613 297.801 74.6079 300.856 71.4894C303.852 68.4298 304.616 65.5761 303.382 61.8398C302.648 59.6922 302.237 59.5157 296.744 59.3686C292.455 59.2215 291.897 59.1333 287.05 57.8388C282.262 56.5737 274.83 54.7792 271.775 54.2202L270.453 53.9554L271.981 53.1611C275.858 51.1606 281.351 50.2486 290.281 50.1309C297.214 50.072 298.859 49.8955 301.591 48.9835C308.729 46.5711 314.516 40.4519 314.839 34.921C314.897 33.8913 314.78 32.5968 314.574 31.9202ZM293.307 18.8285C292.778 19.1521 292.337 19.3581 292.337 19.2992C292.337 19.1521 295.216 17.0045 295.862 16.6809C296.656 16.2396 294.276 18.2401 293.307 18.8285Z"/>
</mask>
<path d="M467.031 1.32389C465.386 0.647245 461.126 1.53872e-05 458.189 1.52588e-05C450.962 0.0294345 441.181 1.85344 432.456 4.85424C418.709 9.59078 400.203 18.5343 390.156 25.3008C388.511 26.4187 387.101 27.1248 386.044 27.3602C383.106 28.0368 377.643 29.9197 375.146 31.1259C366.216 35.4211 360.781 41.8346 357.726 51.6313C356.463 55.6912 355.523 57.8976 354.378 59.3098C352.586 61.5751 347.592 65.076 340.189 69.3124C326.912 76.8732 323.328 79.1091 318.922 82.5218C315.984 84.8165 312.724 88.1997 311.343 90.3474C308.2 95.2604 308.347 100.409 311.754 105.175C312.283 105.881 312.782 106.41 312.929 106.352C313.047 106.263 313.722 106.881 314.427 107.734C317.218 111.088 318.804 112.059 321.859 112.324C324.209 112.5 326.794 112.03 331.112 110.617C335.137 109.323 339.484 107.175 345.917 103.351C353.202 98.9967 355.552 97.2904 358.196 94.4073C359.518 92.9657 360.605 91.8183 360.664 91.8478C360.693 91.9066 360.017 95.1133 359.136 98.9967C357.432 106.675 357.315 107.558 357.991 108.852C358.372 109.588 358.372 109.735 358.049 109.735C357.432 109.735 356.669 108.764 356.346 107.587C356.111 106.705 356.287 105.557 357.256 101.144C357.902 98.173 358.431 95.6429 358.431 95.4958C358.431 95.3487 357.315 96.4078 355.964 97.8493C353.966 99.9675 352.762 100.938 349.443 102.998C347.181 104.38 343.832 106.352 341.981 107.381C337.193 110.029 335.519 111.735 333.227 116.354C331.935 118.973 331.201 121.091 330.084 125.474C328.557 131.417 327.176 135.006 325.149 138.272L324.503 139.301L325.972 138.242C340.101 128.034 340.689 127.534 342.011 125.474C342.657 124.445 344.39 122.444 345.888 121.003C347.386 119.59 349.266 117.56 350.059 116.501C352.85 112.853 355.259 110.941 357.785 110.382C358.461 110.206 359.312 110.147 359.665 110.264C360.135 110.382 359.9 110.529 358.666 110.912C356.022 111.735 353.379 113.912 350.324 117.825C349.707 118.62 348.855 119.561 348.444 119.885C346.476 121.414 343.244 124.768 342.246 126.327C340.953 128.299 339.631 129.328 327.911 137.507C323.827 140.361 320.185 142.744 319.832 142.832C319.509 142.891 317.365 143.155 315.103 143.42C307.348 144.303 298.888 145.656 295.569 146.509C291.515 147.568 288.049 147.48 280.323 146.039C274.125 144.921 270.189 145.156 265.489 146.921C259.702 149.128 255.56 154.099 256.059 158.277C256.324 160.366 257.146 162.249 258.027 162.719C258.468 162.955 260.231 163.102 262.962 163.131C266.987 163.19 267.486 163.278 272.362 164.573C279.119 166.367 285.581 167.897 287.285 168.133C288.049 168.25 288.871 168.397 289.106 168.486C289.723 168.692 287.402 169.868 284.994 170.604C280.822 171.869 278.296 172.163 269.866 172.398C260.612 172.663 259.79 172.81 255.472 174.899C252.006 176.576 249.332 178.841 247.423 181.666C245.661 184.313 244.926 186.579 245.132 188.697C245.308 190.58 246.307 193.286 247.247 194.287C248.128 195.228 249.421 195.287 252.975 194.463C254.737 194.051 256.588 193.875 259.202 193.875H262.933L261.787 195.728C260.377 197.993 259.643 200.553 259.996 202.112C260.26 203.318 262.052 206.496 262.845 207.143C263.197 207.437 263.609 207.437 264.666 207.202C265.43 207.025 267.251 206.613 268.691 206.29C270.6 205.848 273.273 205.584 278.384 205.348C289.958 204.848 294.599 204.113 304.058 201.347C307.054 200.465 314.604 198.346 320.802 196.64C332.052 193.551 334.579 192.757 336.958 191.551C340.307 189.815 342.481 186.579 347.974 175.046L350.118 170.486L353.026 167.927C358.02 163.514 361.545 161.219 370.328 156.688C376.526 153.482 380.345 150.981 382.901 148.422C386.426 144.921 388.071 142.332 391.214 135.389C394.004 129.181 396.002 125.592 401.084 117.649C403.287 114.148 406.371 108.97 407.869 106.175C411.247 99.9087 412.158 98.4377 415.096 94.7897C423.232 84.6694 435.012 76.9321 454.399 68.9594L460.039 66.6352L461.214 61.781C465.327 44.8354 467.442 28.2133 467.912 9.79672L468.088 1.76519L467.031 1.32389ZM427.022 14.9746C410.748 18.5049 400.349 21.741 395.826 24.7124L394.416 25.6244L395.708 24.4476C397.471 22.859 401.936 20.5937 406.078 19.1521C412.863 16.828 419.943 15.2099 431.281 13.4153C441.68 11.7678 441.298 11.9149 427.022 14.9746ZM265.606 204.878C263.844 206.172 263.785 206.201 264.901 205.142C265.577 204.525 266.576 203.76 267.104 203.465C268.426 202.73 267.956 203.171 265.606 204.878Z" fill="white"/>
<path d="M314.574 31.9202C314.046 30.361 313.047 28.4193 312.547 28.0368C311.754 27.419 310.609 27.3896 307.906 27.978C304.939 28.6252 299.094 29.0371 297.801 28.7135L297.008 28.5075L297.742 27.5661C299.387 25.3302 300.386 22.2412 299.975 20.5054C299.711 19.3286 298.389 16.7691 297.566 15.8866C296.832 15.1216 296.009 15.1511 292.484 16.0336C290.017 16.6809 288.225 16.8574 281.469 17.2104C277.033 17.4458 272.803 17.7106 272.069 17.7988C266.399 18.5049 262.169 19.4463 253.416 21.9764C248.099 23.4768 240.784 25.5362 237.171 26.507C226.626 29.3313 223.365 30.5081 221.103 32.2438C219.135 33.7442 216.227 38.5984 212.702 46.2475C210.117 51.8372 209.764 52.3079 205.241 56.1325C201.481 59.2803 197.985 61.5162 190.318 65.5761C186.646 67.5178 182.739 69.6949 181.652 70.4303C176.894 73.5782 173.339 77.7558 170.637 83.3161C169.756 85.1401 167.905 88.9646 166.524 91.7889C165.144 94.6132 162.794 98.8496 161.296 101.203C155.744 109.941 154.304 112.353 151.925 116.796C150.603 119.296 148.841 122.356 148.047 123.562C142.731 131.505 134.623 138.801 124.753 144.479C120.582 146.862 112.063 150.981 106.834 153.129C104.572 154.041 102.164 155.041 101.517 155.335L100.284 155.865L98.9618 161.396C94.6437 179.253 92.5287 195.552 92.0881 214.586L91.9118 223.088L93.2043 222.912C93.9093 222.794 100.254 222.117 107.275 221.382L120.053 220.029L125.634 218.146C140.146 213.262 159.592 204.054 169.579 197.376C171.518 196.081 172.693 195.522 174.485 195.081C182.886 192.904 188.908 189.932 193.432 185.637C198.044 181.313 200.599 176.811 203.008 168.692C203.507 167.073 204.33 165.132 204.829 164.367C206.709 161.513 211.174 158.218 219.781 153.276C222.131 151.952 225.891 149.804 228.153 148.51C240.285 141.537 246.894 135.977 249.685 130.387C250.596 128.504 250.742 127.887 250.86 125.68C250.977 122.768 250.419 120.679 248.833 118.237C248.011 116.943 246.571 115.383 247.247 116.501C247.57 117.001 245.337 114.677 243.957 113.03C242.87 111.706 241.019 110.735 238.846 110.323C236.907 109.941 232.941 110.559 229.034 111.853C225.509 113 219.223 116.119 213.583 119.532C205.564 124.356 204.301 125.327 200.864 129.152C199.924 130.211 199.248 130.799 199.307 130.476C199.395 130.152 200.159 126.798 200.981 123.003C202.567 115.795 202.685 114.354 201.686 113.236C201.275 112.794 201.275 112.677 201.598 112.677C202.421 112.677 203.243 113.559 203.596 114.795C203.919 115.942 203.831 116.59 202.744 121.326C202.097 124.209 201.569 126.769 201.569 127.004C201.569 127.21 202.509 126.357 203.625 125.062C204.829 123.709 206.562 122.15 207.767 121.356C210.881 119.296 216.109 116.178 219.311 114.442C221.632 113.177 222.425 112.589 223.747 110.97C225.421 108.941 227.507 105.028 228.564 101.939C228.887 100.968 229.622 98.3789 230.18 96.2019C231.737 90.2003 232.677 87.8173 234.645 84.6694C235.056 84.0516 235.291 83.5515 235.203 83.5515C235.056 83.5515 230.004 87.1995 223.571 91.9654C219.458 95.0251 218.606 95.79 218.136 96.8491C217.813 97.6434 216.374 99.3203 214.347 101.35C212.555 103.145 210.499 105.381 209.735 106.352C208.002 108.646 205.799 110.706 204.212 111.5C203.067 112.088 199.806 112.677 199.806 112.294C199.806 112.206 200.511 111.912 201.392 111.677C203.507 111.059 206.239 108.94 208.442 106.234C210.469 103.704 210.881 103.292 213.965 100.556C215.199 99.4674 216.814 97.6434 217.549 96.5255C218.489 95.1427 219.546 94.0248 221.015 92.9069C223.6 90.9652 234.997 82.9925 237.847 81.1096L239.903 79.7563L245.191 79.1385C252.799 78.2265 259.026 77.2557 263.697 76.1966C268.808 75.0198 271.364 75.0786 279.736 76.5202C285.287 77.4616 285.611 77.491 288.372 77.138C293.689 76.4613 297.801 74.6079 300.856 71.4894C303.852 68.4298 304.616 65.5761 303.382 61.8398C302.648 59.6922 302.237 59.5157 296.744 59.3686C292.455 59.2215 291.897 59.1333 287.05 57.8388C282.262 56.5737 274.83 54.7792 271.775 54.2202L270.453 53.9554L271.981 53.1611C275.858 51.1606 281.351 50.2486 290.281 50.1309C297.214 50.072 298.859 49.8955 301.591 48.9835C308.729 46.5711 314.516 40.4519 314.839 34.921C314.897 33.8913 314.78 32.5968 314.574 31.9202ZM293.307 18.8285C292.778 19.1521 292.337 19.3581 292.337 19.2992C292.337 19.1521 295.216 17.0045 295.862 16.6809C296.656 16.2396 294.276 18.2401 293.307 18.8285Z" fill="white"/>
<path d="M467.031 1.32389C465.386 0.647245 461.126 1.53872e-05 458.189 1.52588e-05C450.962 0.0294345 441.181 1.85344 432.456 4.85424C418.709 9.59078 400.203 18.5343 390.156 25.3008C388.511 26.4187 387.101 27.1248 386.044 27.3602C383.106 28.0368 377.643 29.9197 375.146 31.1259C366.216 35.4211 360.781 41.8346 357.726 51.6313C356.463 55.6912 355.523 57.8976 354.378 59.3098C352.586 61.5751 347.592 65.076 340.189 69.3124C326.912 76.8732 323.328 79.1091 318.922 82.5218C315.984 84.8165 312.724 88.1997 311.343 90.3474C308.2 95.2604 308.347 100.409 311.754 105.175C312.283 105.881 312.782 106.41 312.929 106.352C313.047 106.263 313.722 106.881 314.427 107.734C317.218 111.088 318.804 112.059 321.859 112.324C324.209 112.5 326.794 112.03 331.112 110.617C335.137 109.323 339.484 107.175 345.917 103.351C353.202 98.9967 355.552 97.2904 358.196 94.4073C359.518 92.9657 360.605 91.8183 360.664 91.8478C360.693 91.9066 360.017 95.1133 359.136 98.9967C357.432 106.675 357.315 107.558 357.991 108.852C358.372 109.588 358.372 109.735 358.049 109.735C357.432 109.735 356.669 108.764 356.346 107.587C356.111 106.705 356.287 105.557 357.256 101.144C357.902 98.173 358.431 95.6429 358.431 95.4958C358.431 95.3487 357.315 96.4078 355.964 97.8493C353.966 99.9675 352.762 100.938 349.443 102.998C347.181 104.38 343.832 106.352 341.981 107.381C337.193 110.029 335.519 111.735 333.227 116.354C331.935 118.973 331.201 121.091 330.084 125.474C328.557 131.417 327.176 135.006 325.149 138.272L324.503 139.301L325.972 138.242C340.101 128.034 340.689 127.534 342.011 125.474C342.657 124.445 344.39 122.444 345.888 121.003C347.386 119.59 349.266 117.56 350.059 116.501C352.85 112.853 355.259 110.941 357.785 110.382C358.461 110.206 359.312 110.147 359.665 110.264C360.135 110.382 359.9 110.529 358.666 110.912C356.022 111.735 353.379 113.912 350.324 117.825C349.707 118.62 348.855 119.561 348.444 119.885C346.476 121.414 343.244 124.768 342.246 126.327C340.953 128.299 339.631 129.328 327.911 137.507C323.827 140.361 320.185 142.744 319.832 142.832C319.509 142.891 317.365 143.155 315.103 143.42C307.348 144.303 298.888 145.656 295.569 146.509C291.515 147.568 288.049 147.48 280.323 146.039C274.125 144.921 270.189 145.156 265.489 146.921C259.702 149.128 255.56 154.099 256.059 158.277C256.324 160.366 257.146 162.249 258.027 162.719C258.468 162.955 260.231 163.102 262.962 163.131C266.987 163.19 267.486 163.278 272.362 164.573C279.119 166.367 285.581 167.897 287.285 168.133C288.049 168.25 288.871 168.397 289.106 168.486C289.723 168.692 287.402 169.868 284.994 170.604C280.822 171.869 278.296 172.163 269.866 172.398C260.612 172.663 259.79 172.81 255.472 174.899C252.006 176.576 249.332 178.841 247.423 181.666C245.661 184.313 244.926 186.579 245.132 188.697C245.308 190.58 246.307 193.286 247.247 194.287C248.128 195.228 249.421 195.287 252.975 194.463C254.737 194.051 256.588 193.875 259.202 193.875H262.933L261.787 195.728C260.377 197.993 259.643 200.553 259.996 202.112C260.26 203.318 262.052 206.496 262.845 207.143C263.197 207.437 263.609 207.437 264.666 207.202C265.43 207.025 267.251 206.613 268.691 206.29C270.6 205.848 273.273 205.584 278.384 205.348C289.958 204.848 294.599 204.113 304.058 201.347C307.054 200.465 314.604 198.346 320.802 196.64C332.052 193.551 334.579 192.757 336.958 191.551C340.307 189.815 342.481 186.579 347.974 175.046L350.118 170.486L353.026 167.927C358.02 163.514 361.545 161.219 370.328 156.688C376.526 153.482 380.345 150.981 382.901 148.422C386.426 144.921 388.071 142.332 391.214 135.389C394.004 129.181 396.002 125.592 401.084 117.649C403.287 114.148 406.371 108.97 407.869 106.175C411.247 99.9087 412.158 98.4377 415.096 94.7897C423.232 84.6694 435.012 76.9321 454.399 68.9594L460.039 66.6352L461.214 61.781C465.327 44.8354 467.442 28.2133 467.912 9.79672L468.088 1.76519L467.031 1.32389ZM427.022 14.9746C410.748 18.5049 400.349 21.741 395.826 24.7124L394.416 25.6244L395.708 24.4476C397.471 22.859 401.936 20.5937 406.078 19.1521C412.863 16.828 419.943 15.2099 431.281 13.4153C441.68 11.7678 441.298 11.9149 427.022 14.9746ZM265.606 204.878C263.844 206.172 263.785 206.201 264.901 205.142C265.577 204.525 266.576 203.76 267.104 203.465C268.426 202.73 267.956 203.171 265.606 204.878Z" stroke="#858DDD" stroke-width="2" mask="url(#path-2-inside-1_2_25)"/>
<path d="M314.574 31.9202C314.046 30.361 313.047 28.4193 312.547 28.0368C311.754 27.419 310.609 27.3896 307.906 27.978C304.939 28.6252 299.094 29.0371 297.801 28.7135L297.008 28.5075L297.742 27.5661C299.387 25.3302 300.386 22.2412 299.975 20.5054C299.711 19.3286 298.389 16.7691 297.566 15.8866C296.832 15.1216 296.009 15.1511 292.484 16.0336C290.017 16.6809 288.225 16.8574 281.469 17.2104C277.033 17.4458 272.803 17.7106 272.069 17.7988C266.399 18.5049 262.169 19.4463 253.416 21.9764C248.099 23.4768 240.784 25.5362 237.171 26.507C226.626 29.3313 223.365 30.5081 221.103 32.2438C219.135 33.7442 216.227 38.5984 212.702 46.2475C210.117 51.8372 209.764 52.3079 205.241 56.1325C201.481 59.2803 197.985 61.5162 190.318 65.5761C186.646 67.5178 182.739 69.6949 181.652 70.4303C176.894 73.5782 173.339 77.7558 170.637 83.3161C169.756 85.1401 167.905 88.9646 166.524 91.7889C165.144 94.6132 162.794 98.8496 161.296 101.203C155.744 109.941 154.304 112.353 151.925 116.796C150.603 119.296 148.841 122.356 148.047 123.562C142.731 131.505 134.623 138.801 124.753 144.479C120.582 146.862 112.063 150.981 106.834 153.129C104.572 154.041 102.164 155.041 101.517 155.335L100.284 155.865L98.9618 161.396C94.6437 179.253 92.5287 195.552 92.0881 214.586L91.9118 223.088L93.2043 222.912C93.9093 222.794 100.254 222.117 107.275 221.382L120.053 220.029L125.634 218.146C140.146 213.262 159.592 204.054 169.579 197.376C171.518 196.081 172.693 195.522 174.485 195.081C182.886 192.904 188.908 189.932 193.432 185.637C198.044 181.313 200.599 176.811 203.008 168.692C203.507 167.073 204.33 165.132 204.829 164.367C206.709 161.513 211.174 158.218 219.781 153.276C222.131 151.952 225.891 149.804 228.153 148.51C240.285 141.537 246.894 135.977 249.685 130.387C250.596 128.504 250.742 127.887 250.86 125.68C250.977 122.768 250.419 120.679 248.833 118.237C248.011 116.943 246.571 115.383 247.247 116.501C247.57 117.001 245.337 114.677 243.957 113.03C242.87 111.706 241.019 110.735 238.846 110.323C236.907 109.941 232.941 110.559 229.034 111.853C225.509 113 219.223 116.119 213.583 119.532C205.564 124.356 204.301 125.327 200.864 129.152C199.924 130.211 199.248 130.799 199.307 130.476C199.395 130.152 200.159 126.798 200.981 123.003C202.567 115.795 202.685 114.354 201.686 113.236C201.275 112.794 201.275 112.677 201.598 112.677C202.421 112.677 203.243 113.559 203.596 114.795C203.919 115.942 203.831 116.59 202.744 121.326C202.097 124.209 201.569 126.769 201.569 127.004C201.569 127.21 202.509 126.357 203.625 125.062C204.829 123.709 206.562 122.15 207.767 121.356C210.881 119.296 216.109 116.178 219.311 114.442C221.632 113.177 222.425 112.589 223.747 110.97C225.421 108.941 227.507 105.028 228.564 101.939C228.887 100.968 229.622 98.3789 230.18 96.2019C231.737 90.2003 232.677 87.8173 234.645 84.6694C235.056 84.0516 235.291 83.5515 235.203 83.5515C235.056 83.5515 230.004 87.1995 223.571 91.9654C219.458 95.0251 218.606 95.79 218.136 96.8491C217.813 97.6434 216.374 99.3203 214.347 101.35C212.555 103.145 210.499 105.381 209.735 106.352C208.002 108.646 205.799 110.706 204.212 111.5C203.067 112.088 199.806 112.677 199.806 112.294C199.806 112.206 200.511 111.912 201.392 111.677C203.507 111.059 206.239 108.94 208.442 106.234C210.469 103.704 210.881 103.292 213.965 100.556C215.199 99.4674 216.814 97.6434 217.549 96.5255C218.489 95.1427 219.546 94.0248 221.015 92.9069C223.6 90.9652 234.997 82.9925 237.847 81.1096L239.903 79.7563L245.191 79.1385C252.799 78.2265 259.026 77.2557 263.697 76.1966C268.808 75.0198 271.364 75.0786 279.736 76.5202C285.287 77.4616 285.611 77.491 288.372 77.138C293.689 76.4613 297.801 74.6079 300.856 71.4894C303.852 68.4298 304.616 65.5761 303.382 61.8398C302.648 59.6922 302.237 59.5157 296.744 59.3686C292.455 59.2215 291.897 59.1333 287.05 57.8388C282.262 56.5737 274.83 54.7792 271.775 54.2202L270.453 53.9554L271.981 53.1611C275.858 51.1606 281.351 50.2486 290.281 50.1309C297.214 50.072 298.859 49.8955 301.591 48.9835C308.729 46.5711 314.516 40.4519 314.839 34.921C314.897 33.8913 314.78 32.5968 314.574 31.9202ZM293.307 18.8285C292.778 19.1521 292.337 19.3581 292.337 19.2992C292.337 19.1521 295.216 17.0045 295.862 16.6809C296.656 16.2396 294.276 18.2401 293.307 18.8285Z" stroke="#858DDD" stroke-width="2" mask="url(#path-2-inside-1_2_25)"/>
<path d="M130.893 230.406V256H125.637V230.406H130.893ZM149.543 240.918V256H144.463V236.98H149.227L149.543 240.918ZM148.84 245.822H147.434C147.434 244.498 147.592 243.279 147.908 242.166C148.236 241.041 148.711 240.068 149.332 239.248C149.965 238.416 150.744 237.771 151.67 237.314C152.596 236.857 153.668 236.629 154.887 236.629C155.73 236.629 156.504 236.758 157.207 237.016C157.91 237.262 158.514 237.654 159.018 238.193C159.533 238.721 159.932 239.412 160.213 240.268C160.494 241.111 160.635 242.125 160.635 243.309V256H155.572V243.871C155.572 243.004 155.455 242.336 155.221 241.867C154.986 241.398 154.652 241.07 154.219 240.883C153.797 240.695 153.287 240.602 152.689 240.602C152.033 240.602 151.459 240.736 150.967 241.006C150.486 241.275 150.088 241.65 149.771 242.131C149.455 242.6 149.221 243.15 149.068 243.783C148.916 244.416 148.84 245.096 148.84 245.822ZM160.16 245.242L158.35 245.471C158.35 244.229 158.502 243.074 158.807 242.008C159.123 240.941 159.586 240.004 160.195 239.195C160.816 238.387 161.584 237.76 162.498 237.314C163.412 236.857 164.467 236.629 165.662 236.629C166.576 236.629 167.408 236.764 168.158 237.033C168.908 237.291 169.547 237.707 170.074 238.281C170.613 238.844 171.023 239.582 171.305 240.496C171.598 241.41 171.744 242.529 171.744 243.854V256H166.664V243.854C166.664 242.975 166.547 242.307 166.312 241.85C166.09 241.381 165.762 241.059 165.328 240.883C164.906 240.695 164.402 240.602 163.816 240.602C163.207 240.602 162.674 240.725 162.217 240.971C161.76 241.205 161.379 241.533 161.074 241.955C160.77 242.377 160.541 242.869 160.389 243.432C160.236 243.982 160.16 244.586 160.16 245.242ZM189.973 236.98V256H184.893V236.98H189.973ZM184.576 232.023C184.576 231.285 184.834 230.676 185.35 230.195C185.865 229.715 186.557 229.475 187.424 229.475C188.279 229.475 188.965 229.715 189.48 230.195C190.008 230.676 190.271 231.285 190.271 232.023C190.271 232.762 190.008 233.371 189.48 233.852C188.965 234.332 188.279 234.572 187.424 234.572C186.557 234.572 185.865 234.332 185.35 233.852C184.834 233.371 184.576 232.762 184.576 232.023ZM215.162 236.98H219.75V255.367C219.75 257.102 219.363 258.572 218.59 259.779C217.828 260.998 216.762 261.918 215.391 262.539C214.02 263.172 212.426 263.488 210.609 263.488C209.812 263.488 208.969 263.383 208.078 263.172C207.199 262.961 206.355 262.633 205.547 262.188C204.75 261.742 204.082 261.18 203.543 260.5L205.775 257.512C206.361 258.191 207.041 258.719 207.814 259.094C208.588 259.48 209.443 259.674 210.381 259.674C211.295 259.674 212.068 259.504 212.701 259.164C213.334 258.836 213.82 258.35 214.16 257.705C214.5 257.072 214.67 256.305 214.67 255.402V241.375L215.162 236.98ZM202.365 246.719V246.35C202.365 244.896 202.541 243.578 202.893 242.395C203.256 241.199 203.766 240.174 204.422 239.318C205.09 238.463 205.898 237.801 206.848 237.332C207.797 236.863 208.869 236.629 210.064 236.629C211.33 236.629 212.391 236.863 213.246 237.332C214.102 237.801 214.805 238.469 215.355 239.336C215.906 240.191 216.334 241.205 216.639 242.377C216.955 243.537 217.201 244.809 217.377 246.191V247C217.201 248.324 216.938 249.555 216.586 250.691C216.234 251.828 215.771 252.824 215.197 253.68C214.623 254.523 213.908 255.18 213.053 255.648C212.209 256.117 211.201 256.352 210.029 256.352C208.857 256.352 207.797 256.111 206.848 255.631C205.91 255.15 205.107 254.477 204.439 253.609C203.771 252.742 203.256 251.723 202.893 250.551C202.541 249.379 202.365 248.102 202.365 246.719ZM207.428 246.35V246.719C207.428 247.504 207.504 248.236 207.656 248.916C207.809 249.596 208.043 250.199 208.359 250.727C208.688 251.242 209.092 251.646 209.572 251.939C210.064 252.221 210.645 252.361 211.312 252.361C212.238 252.361 212.994 252.168 213.58 251.781C214.166 251.383 214.605 250.838 214.898 250.146C215.191 249.455 215.361 248.658 215.408 247.756V245.453C215.385 244.715 215.285 244.053 215.109 243.467C214.934 242.869 214.688 242.359 214.371 241.938C214.055 241.516 213.645 241.188 213.141 240.953C212.637 240.719 212.039 240.602 211.348 240.602C210.68 240.602 210.1 240.754 209.607 241.059C209.127 241.352 208.723 241.756 208.395 242.271C208.078 242.787 207.838 243.396 207.674 244.1C207.51 244.791 207.428 245.541 207.428 246.35ZM237.715 241.129V256H232.652V236.98H237.416L237.715 241.129ZM243.445 236.857L243.357 241.551C243.111 241.516 242.812 241.486 242.461 241.463C242.121 241.428 241.811 241.41 241.529 241.41C240.814 241.41 240.193 241.504 239.666 241.691C239.15 241.867 238.717 242.131 238.365 242.482C238.025 242.834 237.768 243.262 237.592 243.766C237.428 244.27 237.334 244.844 237.311 245.488L236.291 245.172C236.291 243.941 236.414 242.811 236.66 241.779C236.906 240.736 237.264 239.828 237.732 239.055C238.213 238.281 238.799 237.684 239.49 237.262C240.182 236.84 240.973 236.629 241.863 236.629C242.145 236.629 242.432 236.652 242.725 236.699C243.018 236.734 243.258 236.787 243.445 236.857ZM265.066 251.711V243.238C265.066 242.629 264.967 242.107 264.768 241.674C264.568 241.229 264.258 240.883 263.836 240.637C263.426 240.391 262.893 240.268 262.236 240.268C261.674 240.268 261.188 240.367 260.777 240.566C260.367 240.754 260.051 241.029 259.828 241.393C259.605 241.744 259.494 242.16 259.494 242.641H254.432C254.432 241.832 254.619 241.064 254.994 240.338C255.369 239.611 255.914 238.973 256.629 238.422C257.344 237.859 258.193 237.42 259.178 237.104C260.174 236.787 261.287 236.629 262.518 236.629C263.994 236.629 265.307 236.875 266.455 237.367C267.604 237.859 268.506 238.598 269.162 239.582C269.83 240.566 270.164 241.797 270.164 243.273V251.412C270.164 252.455 270.229 253.311 270.357 253.979C270.486 254.635 270.674 255.209 270.92 255.701V256H265.805C265.559 255.484 265.371 254.84 265.242 254.066C265.125 253.281 265.066 252.496 265.066 251.711ZM265.734 244.416L265.77 247.281H262.939C262.271 247.281 261.691 247.357 261.199 247.51C260.707 247.662 260.303 247.879 259.986 248.16C259.67 248.43 259.436 248.746 259.283 249.109C259.143 249.473 259.072 249.871 259.072 250.305C259.072 250.738 259.172 251.131 259.371 251.482C259.57 251.822 259.857 252.092 260.232 252.291C260.607 252.479 261.047 252.572 261.551 252.572C262.312 252.572 262.975 252.42 263.537 252.115C264.1 251.811 264.533 251.436 264.838 250.99C265.154 250.545 265.318 250.123 265.33 249.725L266.666 251.869C266.479 252.35 266.221 252.848 265.893 253.363C265.576 253.879 265.172 254.365 264.68 254.822C264.188 255.268 263.596 255.637 262.904 255.93C262.213 256.211 261.393 256.352 260.443 256.352C259.236 256.352 258.141 256.111 257.156 255.631C256.184 255.139 255.41 254.465 254.836 253.609C254.273 252.742 253.992 251.758 253.992 250.656C253.992 249.66 254.18 248.775 254.555 248.002C254.93 247.229 255.48 246.578 256.207 246.051C256.945 245.512 257.865 245.107 258.967 244.838C260.068 244.557 261.346 244.416 262.799 244.416H265.734ZM288.621 230.406V256H283.348V230.406H288.621ZM303.949 230.406L293.807 243.045L287.953 249.338L287.004 244.346L290.959 238.932L297.48 230.406H303.949ZM297.955 256L290.414 244.17L294.316 240.9L304.195 256H297.955ZM325.148 251.711V243.238C325.148 242.629 325.049 242.107 324.85 241.674C324.65 241.229 324.34 240.883 323.918 240.637C323.508 240.391 322.975 240.268 322.318 240.268C321.756 240.268 321.27 240.367 320.859 240.566C320.449 240.754 320.133 241.029 319.91 241.393C319.688 241.744 319.576 242.16 319.576 242.641H314.514C314.514 241.832 314.701 241.064 315.076 240.338C315.451 239.611 315.996 238.973 316.711 238.422C317.426 237.859 318.275 237.42 319.26 237.104C320.256 236.787 321.369 236.629 322.6 236.629C324.076 236.629 325.389 236.875 326.537 237.367C327.686 237.859 328.588 238.598 329.244 239.582C329.912 240.566 330.246 241.797 330.246 243.273V251.412C330.246 252.455 330.311 253.311 330.439 253.979C330.568 254.635 330.756 255.209 331.002 255.701V256H325.887C325.641 255.484 325.453 254.84 325.324 254.066C325.207 253.281 325.148 252.496 325.148 251.711ZM325.816 244.416L325.852 247.281H323.021C322.354 247.281 321.773 247.357 321.281 247.51C320.789 247.662 320.385 247.879 320.068 248.16C319.752 248.43 319.518 248.746 319.365 249.109C319.225 249.473 319.154 249.871 319.154 250.305C319.154 250.738 319.254 251.131 319.453 251.482C319.652 251.822 319.939 252.092 320.314 252.291C320.689 252.479 321.129 252.572 321.633 252.572C322.395 252.572 323.057 252.42 323.619 252.115C324.182 251.811 324.615 251.436 324.92 250.99C325.236 250.545 325.4 250.123 325.412 249.725L326.748 251.869C326.561 252.35 326.303 252.848 325.975 253.363C325.658 253.879 325.254 254.365 324.762 254.822C324.27 255.268 323.678 255.637 322.986 255.93C322.295 256.211 321.475 256.352 320.525 256.352C319.318 256.352 318.223 256.111 317.238 255.631C316.266 255.139 315.492 254.465 314.918 253.609C314.355 252.742 314.074 251.758 314.074 250.656C314.074 249.66 314.262 248.775 314.637 248.002C315.012 247.229 315.562 246.578 316.289 246.051C317.027 245.512 317.947 245.107 319.049 244.838C320.15 244.557 321.428 244.416 322.881 244.416H325.816ZM348.457 236.98V256H343.377V236.98H348.457ZM343.061 232.023C343.061 231.285 343.318 230.676 343.834 230.195C344.35 229.715 345.041 229.475 345.908 229.475C346.764 229.475 347.449 229.715 347.965 230.195C348.492 230.676 348.756 231.285 348.756 232.023C348.756 232.762 348.492 233.371 347.965 233.852C347.449 234.332 346.764 234.572 345.908 234.572C345.041 234.572 344.35 234.332 343.834 233.852C343.318 233.371 343.061 232.762 343.061 232.023ZM371.889 250.744C371.889 250.381 371.783 250.053 371.572 249.76C371.361 249.467 370.969 249.197 370.395 248.951C369.832 248.693 369.018 248.459 367.951 248.248C366.99 248.037 366.094 247.773 365.262 247.457C364.441 247.129 363.727 246.736 363.117 246.279C362.52 245.822 362.051 245.283 361.711 244.662C361.371 244.029 361.201 243.309 361.201 242.5C361.201 241.703 361.371 240.953 361.711 240.25C362.062 239.547 362.561 238.926 363.205 238.387C363.861 237.836 364.658 237.408 365.596 237.104C366.545 236.787 367.611 236.629 368.795 236.629C370.447 236.629 371.865 236.893 373.049 237.42C374.244 237.947 375.158 238.674 375.791 239.6C376.436 240.514 376.758 241.557 376.758 242.729H371.695C371.695 242.236 371.59 241.797 371.379 241.41C371.18 241.012 370.863 240.701 370.43 240.479C370.008 240.244 369.457 240.127 368.777 240.127C368.215 240.127 367.729 240.227 367.318 240.426C366.908 240.613 366.592 240.871 366.369 241.199C366.158 241.516 366.053 241.867 366.053 242.254C366.053 242.547 366.111 242.811 366.229 243.045C366.357 243.268 366.562 243.473 366.844 243.66C367.125 243.848 367.488 244.023 367.934 244.188C368.391 244.34 368.953 244.48 369.621 244.609C370.992 244.891 372.217 245.26 373.295 245.717C374.373 246.162 375.229 246.771 375.861 247.545C376.494 248.307 376.811 249.309 376.811 250.551C376.811 251.395 376.623 252.168 376.248 252.871C375.873 253.574 375.334 254.189 374.631 254.717C373.928 255.232 373.084 255.637 372.1 255.93C371.127 256.211 370.031 256.352 368.812 256.352C367.043 256.352 365.543 256.035 364.312 255.402C363.094 254.77 362.168 253.967 361.535 252.994C360.914 252.01 360.604 251.002 360.604 249.971H365.402C365.426 250.662 365.602 251.219 365.93 251.641C366.27 252.062 366.697 252.367 367.213 252.555C367.74 252.742 368.309 252.836 368.918 252.836C369.574 252.836 370.119 252.748 370.553 252.572C370.986 252.385 371.314 252.139 371.537 251.834C371.771 251.518 371.889 251.154 371.889 250.744ZM397.816 256.352C396.34 256.352 395.016 256.117 393.844 255.648C392.672 255.168 391.676 254.506 390.855 253.662C390.047 252.818 389.426 251.84 388.992 250.727C388.559 249.602 388.342 248.406 388.342 247.141V246.438C388.342 244.996 388.547 243.678 388.957 242.482C389.367 241.287 389.953 240.25 390.715 239.371C391.488 238.492 392.426 237.818 393.527 237.35C394.629 236.869 395.871 236.629 397.254 236.629C398.602 236.629 399.797 236.852 400.84 237.297C401.883 237.742 402.756 238.375 403.459 239.195C404.174 240.016 404.713 241 405.076 242.148C405.439 243.285 405.621 244.551 405.621 245.945V248.055H390.504V244.68H400.646V244.293C400.646 243.59 400.518 242.963 400.26 242.412C400.014 241.85 399.639 241.404 399.135 241.076C398.631 240.748 397.986 240.584 397.201 240.584C396.533 240.584 395.959 240.73 395.479 241.023C394.998 241.316 394.605 241.727 394.301 242.254C394.008 242.781 393.785 243.402 393.633 244.117C393.492 244.82 393.422 245.594 393.422 246.438V247.141C393.422 247.902 393.527 248.605 393.738 249.25C393.961 249.895 394.271 250.451 394.67 250.92C395.08 251.389 395.572 251.752 396.146 252.01C396.732 252.268 397.395 252.396 398.133 252.396C399.047 252.396 399.896 252.221 400.682 251.869C401.479 251.506 402.164 250.961 402.738 250.234L405.199 252.906C404.801 253.48 404.256 254.031 403.564 254.559C402.885 255.086 402.064 255.52 401.104 255.859C400.143 256.188 399.047 256.352 397.816 256.352ZM422.426 241.041V256H417.363V236.98H422.109L422.426 241.041ZM421.688 245.822H420.316C420.316 244.416 420.498 243.15 420.861 242.025C421.225 240.889 421.734 239.922 422.391 239.125C423.047 238.316 423.826 237.701 424.729 237.279C425.643 236.846 426.662 236.629 427.787 236.629C428.678 236.629 429.492 236.758 430.23 237.016C430.969 237.273 431.602 237.684 432.129 238.246C432.668 238.809 433.078 239.553 433.359 240.479C433.652 241.404 433.799 242.535 433.799 243.871V256H428.701V243.854C428.701 243.01 428.584 242.354 428.35 241.885C428.115 241.416 427.77 241.088 427.312 240.9C426.867 240.701 426.316 240.602 425.66 240.602C424.98 240.602 424.389 240.736 423.885 241.006C423.393 241.275 422.982 241.65 422.654 242.131C422.338 242.6 422.098 243.15 421.934 243.783C421.77 244.416 421.688 245.096 421.688 245.822Z" fill="black"/>
<path d="M129.602 279.114C129.602 278.162 129.817 277.308 130.246 276.552C130.675 275.787 131.259 275.189 131.996 274.76C132.743 274.331 133.569 274.116 134.474 274.116C135.538 274.116 136.467 274.373 137.26 274.886C138.053 275.399 138.632 276.127 138.996 277.07H137.47C137.199 276.482 136.807 276.029 136.294 275.712C135.79 275.395 135.183 275.236 134.474 275.236C133.793 275.236 133.181 275.395 132.64 275.712C132.099 276.029 131.674 276.482 131.366 277.07C131.058 277.649 130.904 278.33 130.904 279.114C130.904 279.889 131.058 280.57 131.366 281.158C131.674 281.737 132.099 282.185 132.64 282.502C133.181 282.819 133.793 282.978 134.474 282.978C135.183 282.978 135.79 282.824 136.294 282.516C136.807 282.199 137.199 281.746 137.47 281.158H138.996C138.632 282.091 138.053 282.815 137.26 283.328C136.467 283.832 135.538 284.084 134.474 284.084C133.569 284.084 132.743 283.874 131.996 283.454C131.259 283.025 130.675 282.432 130.246 281.676C129.817 280.92 129.602 280.066 129.602 279.114ZM147.892 279.87C147.892 280.113 147.878 280.369 147.85 280.64H141.718C141.765 281.396 142.022 281.989 142.488 282.418C142.964 282.838 143.538 283.048 144.21 283.048C144.761 283.048 145.218 282.922 145.582 282.67C145.956 282.409 146.217 282.063 146.366 281.634H147.738C147.533 282.371 147.122 282.973 146.506 283.44C145.89 283.897 145.125 284.126 144.21 284.126C143.482 284.126 142.829 283.963 142.25 283.636C141.681 283.309 141.233 282.847 140.906 282.25C140.58 281.643 140.416 280.943 140.416 280.15C140.416 279.357 140.575 278.661 140.892 278.064C141.21 277.467 141.653 277.009 142.222 276.692C142.801 276.365 143.464 276.202 144.21 276.202C144.938 276.202 145.582 276.361 146.142 276.678C146.702 276.995 147.132 277.434 147.43 277.994C147.738 278.545 147.892 279.17 147.892 279.87ZM146.576 279.604C146.576 279.119 146.469 278.703 146.254 278.358C146.04 278.003 145.746 277.737 145.372 277.56C145.008 277.373 144.602 277.28 144.154 277.28C143.51 277.28 142.96 277.485 142.502 277.896C142.054 278.307 141.798 278.876 141.732 279.604H146.576ZM153.312 276.188C154.245 276.188 155.001 276.473 155.58 277.042C156.159 277.602 156.448 278.414 156.448 279.478V284H155.188V279.66C155.188 278.895 154.997 278.311 154.614 277.91C154.231 277.499 153.709 277.294 153.046 277.294C152.374 277.294 151.837 277.504 151.436 277.924C151.044 278.344 150.848 278.955 150.848 279.758V284H149.574V276.328H150.848V277.42C151.1 277.028 151.441 276.725 151.87 276.51C152.309 276.295 152.789 276.188 153.312 276.188ZM160.083 277.378V281.9C160.083 282.273 160.163 282.539 160.321 282.698C160.48 282.847 160.755 282.922 161.147 282.922H162.085V284H160.937C160.228 284 159.696 283.837 159.341 283.51C158.987 283.183 158.809 282.647 158.809 281.9V277.378H157.815V276.328H158.809V274.396H160.083V276.328H162.085V277.378H160.083ZM164.903 277.574C165.127 277.135 165.444 276.795 165.855 276.552C166.275 276.309 166.783 276.188 167.381 276.188V277.504H167.045C165.617 277.504 164.903 278.279 164.903 279.828V284H163.629V276.328H164.903V277.574ZM172.197 284.126C171.479 284.126 170.825 283.963 170.237 283.636C169.659 283.309 169.201 282.847 168.865 282.25C168.539 281.643 168.375 280.943 168.375 280.15C168.375 279.366 168.543 278.675 168.879 278.078C169.225 277.471 169.691 277.009 170.279 276.692C170.867 276.365 171.525 276.202 172.253 276.202C172.981 276.202 173.639 276.365 174.227 276.692C174.815 277.009 175.277 277.467 175.613 278.064C175.959 278.661 176.131 279.357 176.131 280.15C176.131 280.943 175.954 281.643 175.599 282.25C175.254 282.847 174.783 283.309 174.185 283.636C173.588 283.963 172.925 284.126 172.197 284.126ZM172.197 283.006C172.655 283.006 173.084 282.899 173.485 282.684C173.887 282.469 174.209 282.147 174.451 281.718C174.703 281.289 174.829 280.766 174.829 280.15C174.829 279.534 174.708 279.011 174.465 278.582C174.223 278.153 173.905 277.835 173.513 277.63C173.121 277.415 172.697 277.308 172.239 277.308C171.773 277.308 171.343 277.415 170.951 277.63C170.569 277.835 170.261 278.153 170.027 278.582C169.794 279.011 169.677 279.534 169.677 280.15C169.677 280.775 169.789 281.303 170.013 281.732C170.247 282.161 170.555 282.483 170.937 282.698C171.32 282.903 171.74 283.006 172.197 283.006ZM181.063 280.136C181.063 279.352 181.222 278.666 181.539 278.078C181.856 277.481 182.29 277.019 182.841 276.692C183.401 276.365 184.026 276.202 184.717 276.202C185.314 276.202 185.87 276.342 186.383 276.622C186.896 276.893 187.288 277.252 187.559 277.7V273.64H188.847V284H187.559V282.558C187.307 283.015 186.934 283.393 186.439 283.692C185.944 283.981 185.366 284.126 184.703 284.126C184.022 284.126 183.401 283.958 182.841 283.622C182.29 283.286 181.856 282.815 181.539 282.208C181.222 281.601 181.063 280.911 181.063 280.136ZM187.559 280.15C187.559 279.571 187.442 279.067 187.209 278.638C186.976 278.209 186.658 277.882 186.257 277.658C185.865 277.425 185.431 277.308 184.955 277.308C184.479 277.308 184.045 277.42 183.653 277.644C183.261 277.868 182.948 278.195 182.715 278.624C182.482 279.053 182.365 279.557 182.365 280.136C182.365 280.724 182.482 281.237 182.715 281.676C182.948 282.105 183.261 282.437 183.653 282.67C184.045 282.894 184.479 283.006 184.955 283.006C185.431 283.006 185.865 282.894 186.257 282.67C186.658 282.437 186.976 282.105 187.209 281.676C187.442 281.237 187.559 280.729 187.559 280.15ZM198 279.87C198 280.113 197.986 280.369 197.958 280.64H191.826C191.873 281.396 192.129 281.989 192.596 282.418C193.072 282.838 193.646 283.048 194.318 283.048C194.869 283.048 195.326 282.922 195.69 282.67C196.063 282.409 196.325 282.063 196.474 281.634H197.846C197.641 282.371 197.23 282.973 196.614 283.44C195.998 283.897 195.233 284.126 194.318 284.126C193.59 284.126 192.937 283.963 192.358 283.636C191.789 283.309 191.341 282.847 191.014 282.25C190.687 281.643 190.524 280.943 190.524 280.15C190.524 279.357 190.683 278.661 191 278.064C191.317 277.467 191.761 277.009 192.33 276.692C192.909 276.365 193.571 276.202 194.318 276.202C195.046 276.202 195.69 276.361 196.25 276.678C196.81 276.995 197.239 277.434 197.538 277.994C197.846 278.545 198 279.17 198 279.87ZM196.684 279.604C196.684 279.119 196.577 278.703 196.362 278.358C196.147 278.003 195.853 277.737 195.48 277.56C195.116 277.373 194.71 277.28 194.262 277.28C193.618 277.28 193.067 277.485 192.61 277.896C192.162 278.307 191.905 278.876 191.84 279.604H196.684ZM209.182 281.83H204.926L204.142 284H202.798L206.326 274.298H207.796L211.31 284H209.966L209.182 281.83ZM208.818 280.794L207.054 275.866L205.29 280.794H208.818ZM214.122 277.742C214.374 277.303 214.747 276.939 215.242 276.65C215.746 276.351 216.329 276.202 216.992 276.202C217.673 276.202 218.289 276.365 218.84 276.692C219.4 277.019 219.838 277.481 220.156 278.078C220.473 278.666 220.632 279.352 220.632 280.136C220.632 280.911 220.473 281.601 220.156 282.208C219.838 282.815 219.4 283.286 218.84 283.622C218.289 283.958 217.673 284.126 216.992 284.126C216.338 284.126 215.76 283.981 215.256 283.692C214.761 283.393 214.383 283.025 214.122 282.586V287.64H212.848V276.328H214.122V277.742ZM219.33 280.136C219.33 279.557 219.213 279.053 218.98 278.624C218.746 278.195 218.429 277.868 218.028 277.644C217.636 277.42 217.202 277.308 216.726 277.308C216.259 277.308 215.825 277.425 215.424 277.658C215.032 277.882 214.714 278.213 214.472 278.652C214.238 279.081 214.122 279.581 214.122 280.15C214.122 280.729 214.238 281.237 214.472 281.676C214.714 282.105 215.032 282.437 215.424 282.67C215.825 282.894 216.259 283.006 216.726 283.006C217.202 283.006 217.636 282.894 218.028 282.67C218.429 282.437 218.746 282.105 218.98 281.676C219.213 281.237 219.33 280.724 219.33 280.136ZM225.654 284.126C224.936 284.126 224.282 283.963 223.694 283.636C223.116 283.309 222.658 282.847 222.322 282.25C221.996 281.643 221.832 280.943 221.832 280.15C221.832 279.366 222 278.675 222.336 278.078C222.682 277.471 223.148 277.009 223.736 276.692C224.324 276.365 224.982 276.202 225.71 276.202C226.438 276.202 227.096 276.365 227.684 276.692C228.272 277.009 228.734 277.467 229.07 278.064C229.416 278.661 229.588 279.357 229.588 280.15C229.588 280.943 229.411 281.643 229.056 282.25C228.711 282.847 228.24 283.309 227.642 283.636C227.045 283.963 226.382 284.126 225.654 284.126ZM225.654 283.006C226.112 283.006 226.541 282.899 226.942 282.684C227.344 282.469 227.666 282.147 227.908 281.718C228.16 281.289 228.286 280.766 228.286 280.15C228.286 279.534 228.165 279.011 227.922 278.582C227.68 278.153 227.362 277.835 226.97 277.63C226.578 277.415 226.154 277.308 225.696 277.308C225.23 277.308 224.8 277.415 224.408 277.63C224.026 277.835 223.718 278.153 223.484 278.582C223.251 279.011 223.134 279.534 223.134 280.15C223.134 280.775 223.246 281.303 223.47 281.732C223.704 282.161 224.012 282.483 224.394 282.698C224.777 282.903 225.197 283.006 225.654 283.006ZM231.922 275.082C231.679 275.082 231.474 274.998 231.306 274.83C231.138 274.662 231.054 274.457 231.054 274.214C231.054 273.971 231.138 273.766 231.306 273.598C231.474 273.43 231.679 273.346 231.922 273.346C232.155 273.346 232.351 273.43 232.51 273.598C232.678 273.766 232.762 273.971 232.762 274.214C232.762 274.457 232.678 274.662 232.51 274.83C232.351 274.998 232.155 275.082 231.922 275.082ZM232.538 276.328V284H231.264V276.328H232.538ZM238.055 284.126C237.336 284.126 236.683 283.963 236.095 283.636C235.516 283.309 235.059 282.847 234.723 282.25C234.396 281.643 234.233 280.943 234.233 280.15C234.233 279.366 234.401 278.675 234.737 278.078C235.082 277.471 235.549 277.009 236.137 276.692C236.725 276.365 237.383 276.202 238.111 276.202C238.839 276.202 239.497 276.365 240.085 276.692C240.673 277.009 241.135 277.467 241.471 278.064C241.816 278.661 241.989 279.357 241.989 280.15C241.989 280.943 241.812 281.643 241.457 282.25C241.112 282.847 240.64 283.309 240.043 283.636C239.446 283.963 238.783 284.126 238.055 284.126ZM238.055 283.006C238.512 283.006 238.942 282.899 239.343 282.684C239.744 282.469 240.066 282.147 240.309 281.718C240.561 281.289 240.687 280.766 240.687 280.15C240.687 279.534 240.566 279.011 240.323 278.582C240.08 278.153 239.763 277.835 239.371 277.63C238.979 277.415 238.554 277.308 238.097 277.308C237.63 277.308 237.201 277.415 236.809 277.63C236.426 277.835 236.118 278.153 235.885 278.582C235.652 279.011 235.535 279.534 235.535 280.15C235.535 280.775 235.647 281.303 235.871 281.732C236.104 282.161 236.412 282.483 236.795 282.698C237.178 282.903 237.598 283.006 238.055 283.006ZM246.92 280.136C246.92 279.352 247.079 278.666 247.396 278.078C247.714 277.481 248.148 277.019 248.698 276.692C249.258 276.365 249.879 276.202 250.56 276.202C251.232 276.202 251.816 276.347 252.31 276.636C252.805 276.925 253.174 277.289 253.416 277.728V276.328H254.704V284H253.416V282.572C253.164 283.02 252.786 283.393 252.282 283.692C251.788 283.981 251.209 284.126 250.546 284.126C249.865 284.126 249.249 283.958 248.698 283.622C248.148 283.286 247.714 282.815 247.396 282.208C247.079 281.601 246.92 280.911 246.92 280.136ZM253.416 280.15C253.416 279.571 253.3 279.067 253.066 278.638C252.833 278.209 252.516 277.882 252.114 277.658C251.722 277.425 251.288 277.308 250.812 277.308C250.336 277.308 249.902 277.42 249.51 277.644C249.118 277.868 248.806 278.195 248.572 278.624C248.339 279.053 248.222 279.557 248.222 280.136C248.222 280.724 248.339 281.237 248.572 281.676C248.806 282.105 249.118 282.437 249.51 282.67C249.902 282.894 250.336 283.006 250.812 283.006C251.288 283.006 251.722 282.894 252.114 282.67C252.516 282.437 252.833 282.105 253.066 281.676C253.3 281.237 253.416 280.729 253.416 280.15ZM260.203 284.126C259.485 284.126 258.831 283.963 258.243 283.636C257.665 283.309 257.207 282.847 256.871 282.25C256.545 281.643 256.381 280.943 256.381 280.15C256.381 279.366 256.549 278.675 256.885 278.078C257.231 277.471 257.697 277.009 258.285 276.692C258.873 276.365 259.531 276.202 260.259 276.202C260.987 276.202 261.645 276.365 262.233 276.692C262.821 277.009 263.283 277.467 263.619 278.064C263.965 278.661 264.137 279.357 264.137 280.15C264.137 280.943 263.96 281.643 263.605 282.25C263.26 282.847 262.789 283.309 262.191 283.636C261.594 283.963 260.931 284.126 260.203 284.126ZM260.203 283.006C260.661 283.006 261.09 282.899 261.491 282.684C261.893 282.469 262.215 282.147 262.457 281.718C262.709 281.289 262.835 280.766 262.835 280.15C262.835 279.534 262.714 279.011 262.471 278.582C262.229 278.153 261.911 277.835 261.519 277.63C261.127 277.415 260.703 277.308 260.245 277.308C259.779 277.308 259.349 277.415 258.957 277.63C258.575 277.835 258.267 278.153 258.033 278.582C257.8 279.011 257.683 279.534 257.683 280.15C257.683 280.775 257.795 281.303 258.019 281.732C258.253 282.161 258.561 282.483 258.943 282.698C259.326 282.903 259.746 283.006 260.203 283.006ZM270.819 274.242V284H269.545V274.242H270.819ZM282.216 276.188C282.813 276.188 283.345 276.314 283.812 276.566C284.279 276.809 284.647 277.177 284.918 277.672C285.189 278.167 285.324 278.769 285.324 279.478V284H284.064V279.66C284.064 278.895 283.873 278.311 283.49 277.91C283.117 277.499 282.608 277.294 281.964 277.294C281.301 277.294 280.774 277.509 280.382 277.938C279.99 278.358 279.794 278.969 279.794 279.772V284H278.534V279.66C278.534 278.895 278.343 278.311 277.96 277.91C277.587 277.499 277.078 277.294 276.434 277.294C275.771 277.294 275.244 277.509 274.852 277.938C274.46 278.358 274.264 278.969 274.264 279.772V284H272.99V276.328H274.264V277.434C274.516 277.033 274.852 276.725 275.272 276.51C275.701 276.295 276.173 276.188 276.686 276.188C277.33 276.188 277.899 276.333 278.394 276.622C278.889 276.911 279.257 277.336 279.5 277.896C279.715 277.355 280.069 276.935 280.564 276.636C281.059 276.337 281.609 276.188 282.216 276.188ZM288.072 275.082C287.829 275.082 287.624 274.998 287.456 274.83C287.288 274.662 287.204 274.457 287.204 274.214C287.204 273.971 287.288 273.766 287.456 273.598C287.624 273.43 287.829 273.346 288.072 273.346C288.305 273.346 288.501 273.43 288.66 273.598C288.828 273.766 288.912 273.971 288.912 274.214C288.912 274.457 288.828 274.662 288.66 274.83C288.501 274.998 288.305 275.082 288.072 275.082ZM288.688 276.328V284H287.414V276.328H288.688ZM294.023 276.202C294.686 276.202 295.265 276.347 295.759 276.636C296.263 276.925 296.637 277.289 296.879 277.728V276.328H298.167V284.168C298.167 284.868 298.018 285.489 297.719 286.03C297.421 286.581 296.991 287.01 296.431 287.318C295.881 287.626 295.237 287.78 294.499 287.78C293.491 287.78 292.651 287.542 291.979 287.066C291.307 286.59 290.911 285.941 290.789 285.12H292.049C292.189 285.587 292.479 285.96 292.917 286.24C293.356 286.529 293.883 286.674 294.499 286.674C295.199 286.674 295.769 286.455 296.207 286.016C296.655 285.577 296.879 284.961 296.879 284.168V282.558C296.627 283.006 296.254 283.379 295.759 283.678C295.265 283.977 294.686 284.126 294.023 284.126C293.342 284.126 292.721 283.958 292.161 283.622C291.611 283.286 291.177 282.815 290.859 282.208C290.542 281.601 290.383 280.911 290.383 280.136C290.383 279.352 290.542 278.666 290.859 278.078C291.177 277.481 291.611 277.019 292.161 276.692C292.721 276.365 293.342 276.202 294.023 276.202ZM296.879 280.15C296.879 279.571 296.763 279.067 296.529 278.638C296.296 278.209 295.979 277.882 295.577 277.658C295.185 277.425 294.751 277.308 294.275 277.308C293.799 277.308 293.365 277.42 292.973 277.644C292.581 277.868 292.269 278.195 292.035 278.624C291.802 279.053 291.685 279.557 291.685 280.136C291.685 280.724 291.802 281.237 292.035 281.676C292.269 282.105 292.581 282.437 292.973 282.67C293.365 282.894 293.799 283.006 294.275 283.006C294.751 283.006 295.185 282.894 295.577 282.67C295.979 282.437 296.296 282.105 296.529 281.676C296.763 281.237 296.879 280.729 296.879 280.15ZM301.594 277.574C301.818 277.135 302.136 276.795 302.546 276.552C302.966 276.309 303.475 276.188 304.072 276.188V277.504H303.736C302.308 277.504 301.594 278.279 301.594 279.828V284H300.32V276.328H301.594V277.574ZM305.067 280.136C305.067 279.352 305.226 278.666 305.543 278.078C305.86 277.481 306.294 277.019 306.845 276.692C307.405 276.365 308.026 276.202 308.707 276.202C309.379 276.202 309.962 276.347 310.457 276.636C310.952 276.925 311.32 277.289 311.563 277.728V276.328H312.851V284H311.563V282.572C311.311 283.02 310.933 283.393 310.429 283.692C309.934 283.981 309.356 284.126 308.693 284.126C308.012 284.126 307.396 283.958 306.845 283.622C306.294 283.286 305.86 282.815 305.543 282.208C305.226 281.601 305.067 280.911 305.067 280.136ZM311.563 280.15C311.563 279.571 311.446 279.067 311.213 278.638C310.98 278.209 310.662 277.882 310.261 277.658C309.869 277.425 309.435 277.308 308.959 277.308C308.483 277.308 308.049 277.42 307.657 277.644C307.265 277.868 306.952 278.195 306.719 278.624C306.486 279.053 306.369 279.557 306.369 280.136C306.369 280.724 306.486 281.237 306.719 281.676C306.952 282.105 307.265 282.437 307.657 282.67C308.049 282.894 308.483 283.006 308.959 283.006C309.435 283.006 309.869 282.894 310.261 282.67C310.662 282.437 310.98 282.105 311.213 281.676C311.446 281.237 311.563 280.729 311.563 280.15ZM318.742 276.188C319.675 276.188 320.431 276.473 321.01 277.042C321.588 277.602 321.878 278.414 321.878 279.478V284H320.618V279.66C320.618 278.895 320.426 278.311 320.044 277.91C319.661 277.499 319.138 277.294 318.476 277.294C317.804 277.294 317.267 277.504 316.866 277.924C316.474 278.344 316.278 278.955 316.278 279.758V284H315.004V276.328H316.278V277.42C316.53 277.028 316.87 276.725 317.3 276.51C317.738 276.295 318.219 276.188 318.742 276.188ZM325.513 277.378V281.9C325.513 282.273 325.592 282.539 325.751 282.698C325.91 282.847 326.185 282.922 326.577 282.922H327.515V284H326.367C325.658 284 325.126 283.837 324.771 283.51C324.416 283.183 324.239 282.647 324.239 281.9V277.378H323.245V276.328H324.239V274.396H325.513V276.328H327.515V277.378H325.513ZM336.058 279.87C336.058 280.113 336.044 280.369 336.016 280.64H329.884C329.931 281.396 330.188 281.989 330.654 282.418C331.13 282.838 331.704 283.048 332.376 283.048C332.927 283.048 333.384 282.922 333.748 282.67C334.122 282.409 334.383 282.063 334.532 281.634H335.904C335.699 282.371 335.288 282.973 334.672 283.44C334.056 283.897 333.291 284.126 332.376 284.126C331.648 284.126 330.995 283.963 330.416 283.636C329.847 283.309 329.399 282.847 329.072 282.25C328.746 281.643 328.582 280.943 328.582 280.15C328.582 279.357 328.741 278.661 329.058 278.064C329.376 277.467 329.819 277.009 330.388 276.692C330.967 276.365 331.63 276.202 332.376 276.202C333.104 276.202 333.748 276.361 334.308 276.678C334.868 276.995 335.298 277.434 335.596 277.994C335.904 278.545 336.058 279.17 336.058 279.87ZM334.742 279.604C334.742 279.119 334.635 278.703 334.42 278.358C334.206 278.003 333.912 277.737 333.538 277.56C333.174 277.373 332.768 277.28 332.32 277.28C331.676 277.28 331.126 277.485 330.668 277.896C330.22 278.307 329.964 278.876 329.898 279.604H334.742ZM348.473 279.87C348.473 280.113 348.459 280.369 348.431 280.64H342.299C342.345 281.396 342.602 281.989 343.069 282.418C343.545 282.838 344.119 283.048 344.791 283.048C345.341 283.048 345.799 282.922 346.163 282.67C346.536 282.409 346.797 282.063 346.947 281.634H348.319C348.113 282.371 347.703 282.973 347.087 283.44C346.471 283.897 345.705 284.126 344.791 284.126C344.063 284.126 343.409 283.963 342.831 283.636C342.261 283.309 341.813 282.847 341.487 282.25C341.16 281.643 340.997 280.943 340.997 280.15C340.997 279.357 341.155 278.661 341.473 278.064C341.79 277.467 342.233 277.009 342.803 276.692C343.381 276.365 344.044 276.202 344.791 276.202C345.519 276.202 346.163 276.361 346.723 276.678C347.283 276.995 347.712 277.434 348.011 277.994C348.319 278.545 348.473 279.17 348.473 279.87ZM347.157 279.604C347.157 279.119 347.049 278.703 346.835 278.358C346.62 278.003 346.326 277.737 345.953 277.56C345.589 277.373 345.183 277.28 344.735 277.28C344.091 277.28 343.54 277.485 343.083 277.896C342.635 278.307 342.378 278.876 342.313 279.604H347.157ZM359.025 284L356.701 280.01H355.161V284H353.887V274.242H357.037C357.774 274.242 358.395 274.368 358.899 274.62C359.412 274.872 359.795 275.213 360.047 275.642C360.299 276.071 360.425 276.561 360.425 277.112C360.425 277.784 360.229 278.377 359.837 278.89C359.454 279.403 358.875 279.744 358.101 279.912L360.551 284H359.025ZM355.161 278.988H357.037C357.727 278.988 358.245 278.82 358.591 278.484C358.936 278.139 359.109 277.681 359.109 277.112C359.109 276.533 358.936 276.085 358.591 275.768C358.255 275.451 357.737 275.292 357.037 275.292H355.161V278.988ZM369.404 279.87C369.404 280.113 369.39 280.369 369.362 280.64H363.23C363.277 281.396 363.534 281.989 364 282.418C364.476 282.838 365.05 283.048 365.722 283.048C366.273 283.048 366.73 282.922 367.094 282.67C367.468 282.409 367.729 282.063 367.878 281.634H369.25C369.045 282.371 368.634 282.973 368.018 283.44C367.402 283.897 366.637 284.126 365.722 284.126C364.994 284.126 364.341 283.963 363.762 283.636C363.193 283.309 362.745 282.847 362.418 282.25C362.092 281.643 361.928 280.943 361.928 280.15C361.928 279.357 362.087 278.661 362.404 278.064C362.722 277.467 363.165 277.009 363.734 276.692C364.313 276.365 364.976 276.202 365.722 276.202C366.45 276.202 367.094 276.361 367.654 276.678C368.214 276.995 368.644 277.434 368.942 277.994C369.25 278.545 369.404 279.17 369.404 279.87ZM368.088 279.604C368.088 279.119 367.981 278.703 367.766 278.358C367.552 278.003 367.258 277.737 366.884 277.56C366.52 277.373 366.114 277.28 365.666 277.28C365.022 277.28 364.472 277.485 364.014 277.896C363.566 278.307 363.31 278.876 363.244 279.604H368.088ZM374.208 277.378H372.598V284H371.324V277.378H370.33V276.328H371.324V275.782C371.324 274.923 371.543 274.298 371.982 273.906C372.43 273.505 373.144 273.304 374.124 273.304V274.368C373.564 274.368 373.167 274.48 372.934 274.704C372.71 274.919 372.598 275.278 372.598 275.782V276.328H374.208V277.378ZM382.497 276.328V284H381.223V282.866C380.981 283.258 380.64 283.566 380.201 283.79C379.772 284.005 379.296 284.112 378.773 284.112C378.176 284.112 377.639 283.991 377.163 283.748C376.687 283.496 376.309 283.123 376.029 282.628C375.759 282.133 375.623 281.531 375.623 280.822V276.328H376.883V280.654C376.883 281.41 377.075 281.993 377.457 282.404C377.84 282.805 378.363 283.006 379.025 283.006C379.707 283.006 380.243 282.796 380.635 282.376C381.027 281.956 381.223 281.345 381.223 280.542V276.328H382.497ZM387.812 276.202C388.475 276.202 389.054 276.347 389.548 276.636C390.052 276.925 390.426 277.289 390.668 277.728V276.328H391.956V284.168C391.956 284.868 391.807 285.489 391.508 286.03C391.21 286.581 390.78 287.01 390.22 287.318C389.67 287.626 389.026 287.78 388.288 287.78C387.28 287.78 386.44 287.542 385.768 287.066C385.096 286.59 384.7 285.941 384.578 285.12H385.838C385.978 285.587 386.268 285.96 386.706 286.24C387.145 286.529 387.672 286.674 388.288 286.674C388.988 286.674 389.558 286.455 389.996 286.016C390.444 285.577 390.668 284.961 390.668 284.168V282.558C390.416 283.006 390.043 283.379 389.548 283.678C389.054 283.977 388.475 284.126 387.812 284.126C387.131 284.126 386.51 283.958 385.95 283.622C385.4 283.286 384.966 282.815 384.648 282.208C384.331 281.601 384.172 280.911 384.172 280.136C384.172 279.352 384.331 278.666 384.648 278.078C384.966 277.481 385.4 277.019 385.95 276.692C386.51 276.365 387.131 276.202 387.812 276.202ZM390.668 280.15C390.668 279.571 390.552 279.067 390.318 278.638C390.085 278.209 389.768 277.882 389.366 277.658C388.974 277.425 388.54 277.308 388.064 277.308C387.588 277.308 387.154 277.42 386.762 277.644C386.37 277.868 386.058 278.195 385.824 278.624C385.591 279.053 385.474 279.557 385.474 280.136C385.474 280.724 385.591 281.237 385.824 281.676C386.058 282.105 386.37 282.437 386.762 282.67C387.154 282.894 387.588 283.006 388.064 283.006C388.54 283.006 388.974 282.894 389.366 282.67C389.768 282.437 390.085 282.105 390.318 281.676C390.552 281.237 390.668 280.729 390.668 280.15ZM394.767 275.082C394.525 275.082 394.319 274.998 394.151 274.83C393.983 274.662 393.899 274.457 393.899 274.214C393.899 273.971 393.983 273.766 394.151 273.598C394.319 273.43 394.525 273.346 394.767 273.346C395.001 273.346 395.197 273.43 395.355 273.598C395.523 273.766 395.607 273.971 395.607 274.214C395.607 274.457 395.523 274.662 395.355 274.83C395.197 274.998 395.001 275.082 394.767 275.082ZM395.383 276.328V284H394.109V276.328H395.383ZM397.079 280.136C397.079 279.352 397.237 278.666 397.555 278.078C397.872 277.481 398.306 277.019 398.857 276.692C399.417 276.365 400.037 276.202 400.719 276.202C401.391 276.202 401.974 276.347 402.469 276.636C402.963 276.925 403.332 277.289 403.575 277.728V276.328H404.863V284H403.575V282.572C403.323 283.02 402.945 283.393 402.441 283.692C401.946 283.981 401.367 284.126 400.705 284.126C400.023 284.126 399.407 283.958 398.857 283.622C398.306 283.286 397.872 282.815 397.555 282.208C397.237 281.601 397.079 280.911 397.079 280.136ZM403.575 280.15C403.575 279.571 403.458 279.067 403.225 278.638C402.991 278.209 402.674 277.882 402.273 277.658C401.881 277.425 401.447 277.308 400.971 277.308C400.495 277.308 400.061 277.42 399.669 277.644C399.277 277.868 398.964 278.195 398.731 278.624C398.497 279.053 398.381 279.557 398.381 280.136C398.381 280.724 398.497 281.237 398.731 281.676C398.964 282.105 399.277 282.437 399.669 282.67C400.061 282.894 400.495 283.006 400.971 283.006C401.447 283.006 401.881 282.894 402.273 282.67C402.674 282.437 402.991 282.105 403.225 281.676C403.458 281.237 403.575 280.729 403.575 280.15ZM406.54 280.136C406.54 279.352 406.698 278.666 407.016 278.078C407.333 277.481 407.767 277.019 408.318 276.692C408.878 276.365 409.503 276.202 410.194 276.202C410.791 276.202 411.346 276.342 411.86 276.622C412.373 276.893 412.765 277.252 413.036 277.7V273.64H414.324V284H413.036V282.558C412.784 283.015 412.41 283.393 411.916 283.692C411.421 283.981 410.842 284.126 410.18 284.126C409.498 284.126 408.878 283.958 408.318 283.622C407.767 283.286 407.333 282.815 407.016 282.208C406.698 281.601 406.54 280.911 406.54 280.136ZM413.036 280.15C413.036 279.571 412.919 279.067 412.686 278.638C412.452 278.209 412.135 277.882 411.734 277.658C411.342 277.425 410.908 277.308 410.432 277.308C409.956 277.308 409.522 277.42 409.13 277.644C408.738 277.868 408.425 278.195 408.192 278.624C407.958 279.053 407.842 279.557 407.842 280.136C407.842 280.724 407.958 281.237 408.192 281.676C408.425 282.105 408.738 282.437 409.13 282.67C409.522 282.894 409.956 283.006 410.432 283.006C410.908 283.006 411.342 282.894 411.734 282.67C412.135 282.437 412.452 282.105 412.686 281.676C412.919 281.237 413.036 280.729 413.036 280.15ZM419.822 284.126C419.104 284.126 418.45 283.963 417.862 283.636C417.284 283.309 416.826 282.847 416.49 282.25C416.164 281.643 416 280.943 416 280.15C416 279.366 416.168 278.675 416.504 278.078C416.85 277.471 417.316 277.009 417.904 276.692C418.492 276.365 419.15 276.202 419.878 276.202C420.606 276.202 421.264 276.365 421.852 276.692C422.44 277.009 422.902 277.467 423.238 278.064C423.584 278.661 423.756 279.357 423.756 280.15C423.756 280.943 423.579 281.643 423.224 282.25C422.879 282.847 422.408 283.309 421.81 283.636C421.213 283.963 420.55 284.126 419.822 284.126ZM419.822 283.006C420.28 283.006 420.709 282.899 421.11 282.684C421.512 282.469 421.834 282.147 422.076 281.718C422.328 281.289 422.454 280.766 422.454 280.15C422.454 279.534 422.333 279.011 422.09 278.582C421.848 278.153 421.53 277.835 421.138 277.63C420.746 277.415 420.322 277.308 419.864 277.308C419.398 277.308 418.968 277.415 418.576 277.63C418.194 277.835 417.886 278.153 417.652 278.582C417.419 279.011 417.302 279.534 417.302 280.15C417.302 280.775 417.414 281.303 417.638 281.732C417.872 282.161 418.18 282.483 418.562 282.698C418.945 282.903 419.365 283.006 419.822 283.006ZM428.148 284.126C427.56 284.126 427.032 284.028 426.566 283.832C426.099 283.627 425.73 283.347 425.46 282.992C425.189 282.628 425.04 282.213 425.012 281.746H426.328C426.365 282.129 426.542 282.441 426.86 282.684C427.186 282.927 427.611 283.048 428.134 283.048C428.619 283.048 429.002 282.941 429.282 282.726C429.562 282.511 429.702 282.241 429.702 281.914C429.702 281.578 429.552 281.331 429.254 281.172C428.955 281.004 428.493 280.841 427.868 280.682C427.298 280.533 426.832 280.383 426.468 280.234C426.113 280.075 425.805 279.847 425.544 279.548C425.292 279.24 425.166 278.839 425.166 278.344C425.166 277.952 425.282 277.593 425.516 277.266C425.749 276.939 426.08 276.683 426.51 276.496C426.939 276.3 427.429 276.202 427.98 276.202C428.829 276.202 429.515 276.417 430.038 276.846C430.56 277.275 430.84 277.863 430.878 278.61H429.604C429.576 278.209 429.412 277.887 429.114 277.644C428.824 277.401 428.432 277.28 427.938 277.28C427.48 277.28 427.116 277.378 426.846 277.574C426.575 277.77 426.44 278.027 426.44 278.344C426.44 278.596 426.519 278.806 426.678 278.974C426.846 279.133 427.051 279.263 427.294 279.366C427.546 279.459 427.891 279.567 428.33 279.688C428.88 279.837 429.328 279.987 429.674 280.136C430.019 280.276 430.313 280.491 430.556 280.78C430.808 281.069 430.938 281.447 430.948 281.914C430.948 282.334 430.831 282.712 430.598 283.048C430.364 283.384 430.033 283.65 429.604 283.846C429.184 284.033 428.698 284.126 428.148 284.126Z" fill="black"/>
</svg>
