<svg width="749" height="441" viewBox="0 0 749 441" fill="none" xmlns="http://www.w3.org/2000/svg">
<path d="M364 225.5C364 277.691 321.691 320 269.5 320C217.309 320 175 277.691 175 225.5C175 173.309 217.309 131 269.5 131C321.691 131 364 173.309 364 225.5Z" fill="#3FB9F2"/>
<path d="M344.654 174.051C343.975 173.771 342.217 173.504 341.005 173.504C338.023 173.517 333.986 174.269 330.386 175.508C324.713 177.462 317.076 181.153 312.931 183.945C312.252 184.406 311.67 184.698 311.233 184.795C310.021 185.074 307.767 185.851 306.736 186.349C303.051 188.121 300.809 190.768 299.548 194.811C299.027 196.486 298.639 197.397 298.166 197.979C297.427 198.914 295.366 200.359 292.311 202.107C286.832 205.227 285.353 206.15 283.535 207.558C282.323 208.505 280.977 209.901 280.407 210.787C279.11 212.815 279.171 214.939 280.577 216.906C280.795 217.198 281.001 217.416 281.062 217.392C281.11 217.355 281.389 217.61 281.68 217.962C282.832 219.346 283.486 219.747 284.747 219.856C285.717 219.929 286.783 219.735 288.565 219.152C290.226 218.618 292.02 217.732 294.675 216.153C297.681 214.357 298.651 213.653 299.742 212.463C300.287 211.868 300.736 211.394 300.76 211.407C300.772 211.431 300.493 212.754 300.13 214.357C299.427 217.525 299.378 217.89 299.657 218.424C299.815 218.727 299.815 218.788 299.681 218.788C299.427 218.788 299.111 218.387 298.978 217.902C298.881 217.537 298.954 217.064 299.354 215.243C299.621 214.017 299.839 212.973 299.839 212.912C299.839 212.851 299.378 213.288 298.821 213.883C297.996 214.757 297.499 215.158 296.129 216.008C295.196 216.578 293.814 217.392 293.05 217.817C291.075 218.909 290.384 219.613 289.438 221.52C288.905 222.6 288.602 223.474 288.141 225.283C287.511 227.735 286.941 229.217 286.105 230.564L285.838 230.989L286.444 230.552C292.275 226.339 292.517 226.133 293.063 225.283C293.329 224.858 294.045 224.033 294.663 223.438C295.281 222.855 296.057 222.017 296.384 221.58C297.536 220.075 298.53 219.286 299.572 219.055C299.851 218.982 300.202 218.958 300.348 219.006C300.542 219.055 300.445 219.116 299.936 219.274C298.845 219.613 297.754 220.512 296.493 222.127C296.239 222.454 295.887 222.843 295.717 222.976C294.905 223.608 293.572 224.992 293.16 225.635C292.626 226.449 292.081 226.873 287.244 230.248C285.559 231.426 284.056 232.409 283.911 232.446C283.777 232.47 282.892 232.579 281.959 232.689C278.759 233.053 275.268 233.611 273.898 233.963C272.225 234.4 270.795 234.364 267.606 233.769C265.049 233.308 263.424 233.405 261.485 234.133C259.097 235.044 257.388 237.096 257.594 238.82C257.703 239.682 258.042 240.459 258.406 240.653C258.588 240.75 259.315 240.811 260.442 240.823C262.103 240.847 262.309 240.883 264.321 241.418C267.109 242.158 269.776 242.789 270.479 242.887C270.795 242.935 271.134 242.996 271.231 243.032C271.485 243.117 270.528 243.603 269.534 243.906C267.812 244.428 266.77 244.55 263.291 244.647C259.473 244.756 259.133 244.817 257.351 245.679C255.921 246.371 254.818 247.306 254.03 248.471C253.302 249.564 252.999 250.499 253.084 251.373C253.157 252.15 253.569 253.267 253.957 253.679C254.321 254.068 254.854 254.092 256.321 253.752C257.048 253.582 257.812 253.509 258.891 253.509L260.43 253.509L259.957 254.274C259.376 255.209 259.073 256.265 259.218 256.909C259.327 257.406 260.067 258.718 260.394 258.985C260.539 259.106 260.709 259.106 261.145 259.009C261.461 258.936 262.212 258.766 262.806 258.633C263.594 258.451 264.697 258.341 266.806 258.244C271.582 258.038 273.498 257.734 277.401 256.593C278.637 256.229 281.753 255.355 284.311 254.651C288.953 253.376 289.996 253.048 290.978 252.55C292.36 251.834 293.257 250.499 295.523 245.74L296.408 243.858L297.608 242.802C299.669 240.981 301.124 240.034 304.748 238.164C307.306 236.841 308.882 235.809 309.936 234.753C311.391 233.308 312.07 232.239 313.367 229.374C314.519 226.813 315.343 225.332 317.44 222.054C318.349 220.609 319.622 218.472 320.24 217.319C321.634 214.733 322.01 214.126 323.222 212.621C326.58 208.444 331.441 205.251 339.441 201.961L341.769 201.002L342.254 198.999C343.951 192.006 344.824 185.147 345.018 177.547L345.09 174.233L344.654 174.051ZM328.144 179.684C321.428 181.141 317.137 182.476 315.27 183.702L314.688 184.079L315.222 183.593C315.949 182.937 317.791 182.003 319.501 181.408C322.301 180.449 325.222 179.781 329.901 179.04C334.193 178.361 334.035 178.421 328.144 179.684ZM261.533 258.05C260.806 258.584 260.782 258.596 261.242 258.159C261.521 257.904 261.933 257.589 262.152 257.467C262.697 257.164 262.503 257.346 261.533 258.05Z" fill="white"/>
<path d="M281.741 186.677C281.522 186.033 281.11 185.232 280.904 185.074C280.577 184.819 280.104 184.807 278.989 185.05C277.765 185.317 275.352 185.487 274.819 185.353L274.492 185.268L274.795 184.88C275.474 183.957 275.886 182.682 275.716 181.966C275.607 181.481 275.061 180.424 274.722 180.06C274.419 179.745 274.08 179.757 272.625 180.121C271.607 180.388 270.867 180.461 268.079 180.606C266.249 180.704 264.503 180.813 264.2 180.849C261.861 181.141 260.115 181.529 256.503 182.573C254.309 183.192 251.29 184.042 249.799 184.443C245.447 185.608 244.102 186.094 243.168 186.81C242.356 187.429 241.156 189.433 239.702 192.589C238.635 194.896 238.489 195.09 236.623 196.668C235.071 197.967 233.628 198.89 230.465 200.565C228.949 201.367 227.337 202.265 226.889 202.568C224.925 203.867 223.458 205.591 222.343 207.886C221.979 208.639 221.216 210.217 220.646 211.382C220.076 212.548 219.106 214.296 218.488 215.267C216.197 218.873 215.603 219.868 214.621 221.702C214.076 222.734 213.348 223.996 213.021 224.494C210.827 227.772 207.481 230.783 203.408 233.126C201.687 234.109 198.172 235.809 196.014 236.695C195.081 237.071 194.086 237.484 193.82 237.606L193.311 237.824L192.765 240.106C190.983 247.476 190.11 254.201 189.929 262.056L189.856 265.565L190.389 265.492C190.68 265.443 193.299 265.164 196.196 264.861L201.469 264.302L203.772 263.525C209.76 261.51 217.785 257.71 221.906 254.954C222.707 254.42 223.191 254.189 223.931 254.007C227.398 253.109 229.883 251.883 231.75 250.11C233.653 248.325 234.707 246.468 235.701 243.117C235.907 242.45 236.247 241.648 236.453 241.333C237.229 240.155 239.071 238.795 242.623 236.756C243.593 236.209 245.144 235.323 246.078 234.789C251.084 231.912 253.812 229.617 254.963 227.31C255.339 226.534 255.4 226.279 255.448 225.368C255.497 224.166 255.266 223.304 254.612 222.297C254.272 221.762 253.678 221.119 253.957 221.58C254.09 221.787 253.169 220.828 252.599 220.148C252.151 219.601 251.387 219.201 250.49 219.031C249.69 218.873 248.054 219.128 246.441 219.662C244.987 220.136 242.393 221.422 240.065 222.831C236.756 224.822 236.235 225.222 234.816 226.801C234.429 227.238 234.15 227.48 234.174 227.347C234.21 227.213 234.525 225.829 234.865 224.263C235.519 221.289 235.568 220.694 235.156 220.233C234.986 220.051 234.986 220.002 235.119 220.002C235.459 220.002 235.798 220.366 235.944 220.876C236.077 221.35 236.041 221.617 235.592 223.571C235.326 224.761 235.107 225.817 235.107 225.914C235.107 225.999 235.495 225.647 235.956 225.113C236.453 224.555 237.168 223.911 237.665 223.583C238.95 222.734 241.108 221.447 242.429 220.73C243.387 220.208 243.714 219.966 244.259 219.298C244.95 218.46 245.811 216.845 246.247 215.571C246.381 215.17 246.684 214.102 246.914 213.203C247.557 210.727 247.945 209.743 248.757 208.444C248.926 208.189 249.023 207.983 248.987 207.983C248.926 207.983 246.841 209.488 244.187 211.455C242.49 212.718 242.138 213.033 241.944 213.47C241.811 213.798 241.217 214.49 240.38 215.328C239.641 216.069 238.792 216.991 238.477 217.392C237.762 218.339 236.853 219.189 236.198 219.516C235.726 219.759 234.38 220.002 234.38 219.844C234.38 219.808 234.671 219.686 235.035 219.589C235.907 219.334 237.035 218.46 237.944 217.343C238.78 216.299 238.95 216.129 240.223 215C240.732 214.551 241.399 213.798 241.702 213.337C242.09 212.766 242.526 212.305 243.132 211.844C244.199 211.042 248.902 207.752 250.078 206.975L250.927 206.417L253.109 206.162C256.248 205.786 258.818 205.385 260.745 204.948C262.855 204.462 263.909 204.487 267.364 205.081C269.655 205.47 269.788 205.482 270.928 205.336C273.122 205.057 274.819 204.292 276.08 203.005C277.316 201.743 277.631 200.565 277.122 199.023C276.819 198.137 276.649 198.064 274.383 198.004C272.613 197.943 272.382 197.907 270.382 197.372C268.406 196.85 265.34 196.11 264.079 195.879L263.533 195.77L264.164 195.442C265.764 194.616 268.031 194.24 271.716 194.192C274.577 194.167 275.255 194.094 276.383 193.718C279.328 192.723 281.716 190.197 281.85 187.915C281.874 187.49 281.826 186.956 281.741 186.677ZM272.964 181.274C272.746 181.408 272.564 181.493 272.564 181.468C272.564 181.408 273.752 180.522 274.019 180.388C274.346 180.206 273.364 181.031 272.964 181.274Z" fill="white"/>
<path d="M364 225.5C364 277.691 321.691 320 269.5 320C217.309 320 175 277.691 175 225.5C175 173.309 217.309 131 269.5 131C321.691 131 364 173.309 364 225.5Z" fill="#3FB9F2"/>
<path d="M344.654 174.051C343.975 173.771 342.217 173.504 341.005 173.504C338.023 173.517 333.986 174.269 330.386 175.508C324.713 177.462 317.076 181.153 312.931 183.945C312.252 184.406 311.67 184.698 311.233 184.795C310.021 185.074 307.767 185.851 306.736 186.349C303.051 188.121 300.809 190.768 299.548 194.811C299.027 196.486 298.639 197.397 298.166 197.979C297.427 198.914 295.366 200.359 292.311 202.107C286.832 205.227 285.353 206.15 283.535 207.558C282.323 208.505 280.977 209.901 280.407 210.787C279.11 212.815 279.171 214.939 280.577 216.906C280.795 217.198 281.001 217.416 281.062 217.392C281.11 217.355 281.389 217.61 281.68 217.962C282.832 219.346 283.486 219.747 284.747 219.856C285.717 219.929 286.783 219.735 288.565 219.152C290.226 218.618 292.02 217.732 294.675 216.153C297.681 214.357 298.651 213.653 299.742 212.463C300.287 211.868 300.736 211.394 300.76 211.407C300.772 211.431 300.493 212.754 300.13 214.357C299.427 217.525 299.378 217.89 299.657 218.424C299.815 218.727 299.815 218.788 299.681 218.788C299.427 218.788 299.111 218.387 298.978 217.902C298.881 217.537 298.954 217.064 299.354 215.243C299.621 214.017 299.839 212.973 299.839 212.912C299.839 212.851 299.378 213.288 298.821 213.883C297.996 214.757 297.499 215.158 296.129 216.008C295.196 216.578 293.814 217.392 293.05 217.817C291.075 218.909 290.384 219.613 289.438 221.52C288.905 222.6 288.602 223.474 288.141 225.283C287.511 227.735 286.941 229.217 286.105 230.564L285.838 230.989L286.444 230.552C292.275 226.339 292.517 226.133 293.063 225.283C293.329 224.858 294.045 224.033 294.663 223.438C295.281 222.855 296.057 222.017 296.384 221.58C297.536 220.075 298.53 219.286 299.572 219.055C299.851 218.982 300.202 218.958 300.348 219.006C300.542 219.055 300.445 219.116 299.936 219.274C298.845 219.613 297.754 220.512 296.493 222.127C296.239 222.454 295.887 222.843 295.717 222.976C294.905 223.608 293.572 224.992 293.16 225.635C292.626 226.449 292.081 226.873 287.244 230.248C285.559 231.426 284.056 232.409 283.911 232.446C283.777 232.47 282.892 232.579 281.959 232.689C278.759 233.053 275.268 233.611 273.898 233.963C272.225 234.4 270.795 234.364 267.606 233.769C265.049 233.308 263.424 233.405 261.485 234.133C259.097 235.044 257.388 237.096 257.594 238.82C257.703 239.682 258.042 240.459 258.406 240.653C258.588 240.75 259.315 240.811 260.442 240.823C262.103 240.847 262.309 240.883 264.321 241.418C267.109 242.158 269.776 242.789 270.479 242.887C270.795 242.935 271.134 242.996 271.231 243.032C271.485 243.117 270.528 243.603 269.534 243.906C267.812 244.428 266.77 244.55 263.291 244.647C259.473 244.756 259.133 244.817 257.351 245.679C255.921 246.371 254.818 247.306 254.03 248.471C253.302 249.564 252.999 250.499 253.084 251.373C253.157 252.15 253.569 253.267 253.957 253.679C254.321 254.068 254.854 254.092 256.321 253.752C257.048 253.582 257.812 253.509 258.891 253.509L260.43 253.509L259.957 254.274C259.376 255.209 259.073 256.265 259.218 256.909C259.327 257.406 260.067 258.718 260.394 258.985C260.539 259.106 260.709 259.106 261.145 259.009C261.461 258.936 262.212 258.766 262.806 258.633C263.594 258.451 264.697 258.341 266.806 258.244C271.582 258.038 273.498 257.734 277.401 256.593C278.637 256.229 281.753 255.355 284.311 254.651C288.953 253.376 289.996 253.048 290.978 252.55C292.36 251.834 293.257 250.499 295.523 245.74L296.408 243.858L297.608 242.802C299.669 240.981 301.124 240.034 304.748 238.164C307.306 236.841 308.882 235.809 309.936 234.753C311.391 233.308 312.07 232.239 313.367 229.374C314.519 226.813 315.343 225.332 317.44 222.054C318.349 220.609 319.622 218.472 320.24 217.319C321.634 214.733 322.01 214.126 323.222 212.621C326.58 208.444 331.441 205.251 339.441 201.961L341.769 201.002L342.254 198.999C343.951 192.006 344.824 185.147 345.018 177.547L345.09 174.233L344.654 174.051ZM328.144 179.684C321.428 181.141 317.137 182.476 315.27 183.702L314.688 184.079L315.222 183.593C315.949 182.937 317.791 182.003 319.501 181.408C322.301 180.449 325.222 179.781 329.901 179.04C334.193 178.361 334.035 178.421 328.144 179.684ZM261.533 258.05C260.806 258.584 260.782 258.596 261.242 258.159C261.521 257.904 261.933 257.589 262.152 257.467C262.697 257.164 262.503 257.346 261.533 258.05Z" fill="white"/>
<path d="M281.741 186.677C281.522 186.033 281.11 185.232 280.904 185.074C280.577 184.819 280.104 184.807 278.989 185.05C277.765 185.317 275.352 185.487 274.819 185.353L274.492 185.268L274.795 184.88C275.474 183.957 275.886 182.682 275.716 181.966C275.607 181.481 275.061 180.424 274.722 180.06C274.419 179.745 274.08 179.757 272.625 180.121C271.607 180.388 270.867 180.461 268.079 180.606C266.249 180.704 264.503 180.813 264.2 180.849C261.861 181.141 260.115 181.529 256.503 182.573C254.309 183.192 251.29 184.042 249.799 184.443C245.447 185.608 244.102 186.094 243.168 186.81C242.356 187.429 241.156 189.433 239.702 192.589C238.635 194.896 238.489 195.09 236.623 196.668C235.071 197.967 233.628 198.89 230.465 200.565C228.949 201.367 227.337 202.265 226.889 202.568C224.925 203.867 223.458 205.591 222.343 207.886C221.979 208.639 221.216 210.217 220.646 211.382C220.076 212.548 219.106 214.296 218.488 215.267C216.197 218.873 215.603 219.868 214.621 221.702C214.076 222.734 213.348 223.996 213.021 224.494C210.827 227.772 207.481 230.783 203.408 233.126C201.687 234.109 198.172 235.809 196.014 236.695C195.081 237.071 194.086 237.484 193.82 237.606L193.311 237.824L192.765 240.106C190.983 247.476 190.11 254.201 189.929 262.056L189.856 265.565L190.389 265.492C190.68 265.443 193.299 265.164 196.196 264.861L201.469 264.302L203.772 263.525C209.76 261.51 217.785 257.71 221.906 254.954C222.707 254.42 223.191 254.189 223.931 254.007C227.398 253.109 229.883 251.883 231.75 250.11C233.653 248.325 234.707 246.468 235.701 243.117C235.907 242.45 236.247 241.648 236.453 241.333C237.229 240.155 239.071 238.795 242.623 236.756C243.593 236.209 245.144 235.323 246.078 234.789C251.084 231.912 253.812 229.617 254.963 227.31C255.339 226.534 255.4 226.279 255.448 225.368C255.497 224.166 255.266 223.304 254.612 222.297C254.272 221.762 253.678 221.119 253.957 221.58C254.09 221.787 253.169 220.828 252.599 220.148C252.151 219.601 251.387 219.201 250.49 219.031C249.69 218.873 248.054 219.128 246.441 219.662C244.987 220.136 242.393 221.422 240.065 222.831C236.756 224.822 236.235 225.222 234.816 226.801C234.429 227.238 234.15 227.48 234.174 227.347C234.21 227.213 234.525 225.829 234.865 224.263C235.519 221.289 235.568 220.694 235.156 220.233C234.986 220.051 234.986 220.002 235.119 220.002C235.459 220.002 235.798 220.366 235.944 220.876C236.077 221.35 236.041 221.617 235.592 223.571C235.326 224.761 235.107 225.817 235.107 225.914C235.107 225.999 235.495 225.647 235.956 225.113C236.453 224.555 237.168 223.911 237.665 223.583C238.95 222.734 241.108 221.447 242.429 220.73C243.387 220.208 243.714 219.966 244.259 219.298C244.95 218.46 245.811 216.845 246.247 215.571C246.381 215.17 246.684 214.102 246.914 213.203C247.557 210.727 247.945 209.743 248.757 208.444C248.926 208.189 249.023 207.983 248.987 207.983C248.926 207.983 246.841 209.488 244.187 211.455C242.49 212.718 242.138 213.033 241.944 213.47C241.811 213.798 241.217 214.49 240.38 215.328C239.641 216.069 238.792 216.991 238.477 217.392C237.762 218.339 236.853 219.189 236.198 219.516C235.726 219.759 234.38 220.002 234.38 219.844C234.38 219.808 234.671 219.686 235.035 219.589C235.907 219.334 237.035 218.46 237.944 217.343C238.78 216.299 238.95 216.129 240.223 215C240.732 214.551 241.399 213.798 241.702 213.337C242.09 212.766 242.526 212.305 243.132 211.844C244.199 211.042 248.902 207.752 250.078 206.975L250.927 206.417L253.109 206.162C256.248 205.786 258.818 205.385 260.745 204.948C262.855 204.462 263.909 204.487 267.364 205.081C269.655 205.47 269.788 205.482 270.928 205.336C273.122 205.057 274.819 204.292 276.08 203.005C277.316 201.743 277.631 200.565 277.122 199.023C276.819 198.137 276.649 198.064 274.383 198.004C272.613 197.943 272.382 197.907 270.382 197.372C268.406 196.85 265.34 196.11 264.079 195.879L263.533 195.77L264.164 195.442C265.764 194.616 268.031 194.24 271.716 194.192C274.577 194.167 275.255 194.094 276.383 193.718C279.328 192.723 281.716 190.197 281.85 187.915C281.874 187.49 281.826 186.956 281.741 186.677ZM272.964 181.274C272.746 181.408 272.564 181.493 272.564 181.468C272.564 181.408 273.752 180.522 274.019 180.388C274.346 180.206 273.364 181.031 272.964 181.274Z" fill="white"/>
<path d="M130.893 346.406V372H125.637V346.406H130.893ZM149.543 356.918V372H144.463V352.98H149.227L149.543 356.918ZM148.84 361.822H147.434C147.434 360.498 147.592 359.279 147.908 358.166C148.236 357.041 148.711 356.068 149.332 355.248C149.965 354.416 150.744 353.771 151.67 353.314C152.596 352.857 153.668 352.629 154.887 352.629C155.73 352.629 156.504 352.758 157.207 353.016C157.91 353.262 158.514 353.654 159.018 354.193C159.533 354.721 159.932 355.412 160.213 356.268C160.494 357.111 160.635 358.125 160.635 359.309V372H155.572V359.871C155.572 359.004 155.455 358.336 155.221 357.867C154.986 357.398 154.652 357.07 154.219 356.883C153.797 356.695 153.287 356.602 152.689 356.602C152.033 356.602 151.459 356.736 150.967 357.006C150.486 357.275 150.088 357.65 149.771 358.131C149.455 358.6 149.221 359.15 149.068 359.783C148.916 360.416 148.84 361.096 148.84 361.822ZM160.16 361.242L158.35 361.471C158.35 360.229 158.502 359.074 158.807 358.008C159.123 356.941 159.586 356.004 160.195 355.195C160.816 354.387 161.584 353.76 162.498 353.314C163.412 352.857 164.467 352.629 165.662 352.629C166.576 352.629 167.408 352.764 168.158 353.033C168.908 353.291 169.547 353.707 170.074 354.281C170.613 354.844 171.023 355.582 171.305 356.496C171.598 357.41 171.744 358.529 171.744 359.854V372H166.664V359.854C166.664 358.975 166.547 358.307 166.312 357.85C166.09 357.381 165.762 357.059 165.328 356.883C164.906 356.695 164.402 356.602 163.816 356.602C163.207 356.602 162.674 356.725 162.217 356.971C161.76 357.205 161.379 357.533 161.074 357.955C160.77 358.377 160.541 358.869 160.389 359.432C160.236 359.982 160.16 360.586 160.16 361.242ZM189.973 352.98V372H184.893V352.98H189.973ZM184.576 348.023C184.576 347.285 184.834 346.676 185.35 346.195C185.865 345.715 186.557 345.475 187.424 345.475C188.279 345.475 188.965 345.715 189.48 346.195C190.008 346.676 190.271 347.285 190.271 348.023C190.271 348.762 190.008 349.371 189.48 349.852C188.965 350.332 188.279 350.572 187.424 350.572C186.557 350.572 185.865 350.332 185.35 349.852C184.834 349.371 184.576 348.762 184.576 348.023ZM215.162 352.98H219.75V371.367C219.75 373.102 219.363 374.572 218.59 375.779C217.828 376.998 216.762 377.918 215.391 378.539C214.02 379.172 212.426 379.488 210.609 379.488C209.812 379.488 208.969 379.383 208.078 379.172C207.199 378.961 206.355 378.633 205.547 378.188C204.75 377.742 204.082 377.18 203.543 376.5L205.775 373.512C206.361 374.191 207.041 374.719 207.814 375.094C208.588 375.48 209.443 375.674 210.381 375.674C211.295 375.674 212.068 375.504 212.701 375.164C213.334 374.836 213.82 374.35 214.16 373.705C214.5 373.072 214.67 372.305 214.67 371.402V357.375L215.162 352.98ZM202.365 362.719V362.35C202.365 360.896 202.541 359.578 202.893 358.395C203.256 357.199 203.766 356.174 204.422 355.318C205.09 354.463 205.898 353.801 206.848 353.332C207.797 352.863 208.869 352.629 210.064 352.629C211.33 352.629 212.391 352.863 213.246 353.332C214.102 353.801 214.805 354.469 215.355 355.336C215.906 356.191 216.334 357.205 216.639 358.377C216.955 359.537 217.201 360.809 217.377 362.191V363C217.201 364.324 216.938 365.555 216.586 366.691C216.234 367.828 215.771 368.824 215.197 369.68C214.623 370.523 213.908 371.18 213.053 371.648C212.209 372.117 211.201 372.352 210.029 372.352C208.857 372.352 207.797 372.111 206.848 371.631C205.91 371.15 205.107 370.477 204.439 369.609C203.771 368.742 203.256 367.723 202.893 366.551C202.541 365.379 202.365 364.102 202.365 362.719ZM207.428 362.35V362.719C207.428 363.504 207.504 364.236 207.656 364.916C207.809 365.596 208.043 366.199 208.359 366.727C208.688 367.242 209.092 367.646 209.572 367.939C210.064 368.221 210.645 368.361 211.312 368.361C212.238 368.361 212.994 368.168 213.58 367.781C214.166 367.383 214.605 366.838 214.898 366.146C215.191 365.455 215.361 364.658 215.408 363.756V361.453C215.385 360.715 215.285 360.053 215.109 359.467C214.934 358.869 214.688 358.359 214.371 357.938C214.055 357.516 213.645 357.188 213.141 356.953C212.637 356.719 212.039 356.602 211.348 356.602C210.68 356.602 210.1 356.754 209.607 357.059C209.127 357.352 208.723 357.756 208.395 358.271C208.078 358.787 207.838 359.396 207.674 360.1C207.51 360.791 207.428 361.541 207.428 362.35ZM237.715 357.129V372H232.652V352.98H237.416L237.715 357.129ZM243.445 352.857L243.357 357.551C243.111 357.516 242.812 357.486 242.461 357.463C242.121 357.428 241.811 357.41 241.529 357.41C240.814 357.41 240.193 357.504 239.666 357.691C239.15 357.867 238.717 358.131 238.365 358.482C238.025 358.834 237.768 359.262 237.592 359.766C237.428 360.27 237.334 360.844 237.311 361.488L236.291 361.172C236.291 359.941 236.414 358.811 236.66 357.779C236.906 356.736 237.264 355.828 237.732 355.055C238.213 354.281 238.799 353.684 239.49 353.262C240.182 352.84 240.973 352.629 241.863 352.629C242.145 352.629 242.432 352.652 242.725 352.699C243.018 352.734 243.258 352.787 243.445 352.857ZM265.066 367.711V359.238C265.066 358.629 264.967 358.107 264.768 357.674C264.568 357.229 264.258 356.883 263.836 356.637C263.426 356.391 262.893 356.268 262.236 356.268C261.674 356.268 261.188 356.367 260.777 356.566C260.367 356.754 260.051 357.029 259.828 357.393C259.605 357.744 259.494 358.16 259.494 358.641H254.432C254.432 357.832 254.619 357.064 254.994 356.338C255.369 355.611 255.914 354.973 256.629 354.422C257.344 353.859 258.193 353.42 259.178 353.104C260.174 352.787 261.287 352.629 262.518 352.629C263.994 352.629 265.307 352.875 266.455 353.367C267.604 353.859 268.506 354.598 269.162 355.582C269.83 356.566 270.164 357.797 270.164 359.273V367.412C270.164 368.455 270.229 369.311 270.357 369.979C270.486 370.635 270.674 371.209 270.92 371.701V372H265.805C265.559 371.484 265.371 370.84 265.242 370.066C265.125 369.281 265.066 368.496 265.066 367.711ZM265.734 360.416L265.77 363.281H262.939C262.271 363.281 261.691 363.357 261.199 363.51C260.707 363.662 260.303 363.879 259.986 364.16C259.67 364.43 259.436 364.746 259.283 365.109C259.143 365.473 259.072 365.871 259.072 366.305C259.072 366.738 259.172 367.131 259.371 367.482C259.57 367.822 259.857 368.092 260.232 368.291C260.607 368.479 261.047 368.572 261.551 368.572C262.312 368.572 262.975 368.42 263.537 368.115C264.1 367.811 264.533 367.436 264.838 366.99C265.154 366.545 265.318 366.123 265.33 365.725L266.666 367.869C266.479 368.35 266.221 368.848 265.893 369.363C265.576 369.879 265.172 370.365 264.68 370.822C264.188 371.268 263.596 371.637 262.904 371.93C262.213 372.211 261.393 372.352 260.443 372.352C259.236 372.352 258.141 372.111 257.156 371.631C256.184 371.139 255.41 370.465 254.836 369.609C254.273 368.742 253.992 367.758 253.992 366.656C253.992 365.66 254.18 364.775 254.555 364.002C254.93 363.229 255.48 362.578 256.207 362.051C256.945 361.512 257.865 361.107 258.967 360.838C260.068 360.557 261.346 360.416 262.799 360.416H265.734ZM288.621 346.406V372H283.348V346.406H288.621ZM303.949 346.406L293.807 359.045L287.953 365.338L287.004 360.346L290.959 354.932L297.48 346.406H303.949ZM297.955 372L290.414 360.17L294.316 356.9L304.195 372H297.955ZM325.148 367.711V359.238C325.148 358.629 325.049 358.107 324.85 357.674C324.65 357.229 324.34 356.883 323.918 356.637C323.508 356.391 322.975 356.268 322.318 356.268C321.756 356.268 321.27 356.367 320.859 356.566C320.449 356.754 320.133 357.029 319.91 357.393C319.688 357.744 319.576 358.16 319.576 358.641H314.514C314.514 357.832 314.701 357.064 315.076 356.338C315.451 355.611 315.996 354.973 316.711 354.422C317.426 353.859 318.275 353.42 319.26 353.104C320.256 352.787 321.369 352.629 322.6 352.629C324.076 352.629 325.389 352.875 326.537 353.367C327.686 353.859 328.588 354.598 329.244 355.582C329.912 356.566 330.246 357.797 330.246 359.273V367.412C330.246 368.455 330.311 369.311 330.439 369.979C330.568 370.635 330.756 371.209 331.002 371.701V372H325.887C325.641 371.484 325.453 370.84 325.324 370.066C325.207 369.281 325.148 368.496 325.148 367.711ZM325.816 360.416L325.852 363.281H323.021C322.354 363.281 321.773 363.357 321.281 363.51C320.789 363.662 320.385 363.879 320.068 364.16C319.752 364.43 319.518 364.746 319.365 365.109C319.225 365.473 319.154 365.871 319.154 366.305C319.154 366.738 319.254 367.131 319.453 367.482C319.652 367.822 319.939 368.092 320.314 368.291C320.689 368.479 321.129 368.572 321.633 368.572C322.395 368.572 323.057 368.42 323.619 368.115C324.182 367.811 324.615 367.436 324.92 366.99C325.236 366.545 325.4 366.123 325.412 365.725L326.748 367.869C326.561 368.35 326.303 368.848 325.975 369.363C325.658 369.879 325.254 370.365 324.762 370.822C324.27 371.268 323.678 371.637 322.986 371.93C322.295 372.211 321.475 372.352 320.525 372.352C319.318 372.352 318.223 372.111 317.238 371.631C316.266 371.139 315.492 370.465 314.918 369.609C314.355 368.742 314.074 367.758 314.074 366.656C314.074 365.66 314.262 364.775 314.637 364.002C315.012 363.229 315.562 362.578 316.289 362.051C317.027 361.512 317.947 361.107 319.049 360.838C320.15 360.557 321.428 360.416 322.881 360.416H325.816ZM348.457 352.98V372H343.377V352.98H348.457ZM343.061 348.023C343.061 347.285 343.318 346.676 343.834 346.195C344.35 345.715 345.041 345.475 345.908 345.475C346.764 345.475 347.449 345.715 347.965 346.195C348.492 346.676 348.756 347.285 348.756 348.023C348.756 348.762 348.492 349.371 347.965 349.852C347.449 350.332 346.764 350.572 345.908 350.572C345.041 350.572 344.35 350.332 343.834 349.852C343.318 349.371 343.061 348.762 343.061 348.023ZM376.74 368.045V372H362.291V368.045H376.74ZM376.459 355.898L364.33 372H360.938V368.994L373.014 352.98H376.459V355.898ZM374.666 352.98V356.953H361.219V352.98H374.666ZM397.641 372.352C396.164 372.352 394.84 372.117 393.668 371.648C392.496 371.168 391.5 370.506 390.68 369.662C389.871 368.818 389.25 367.84 388.816 366.727C388.383 365.602 388.166 364.406 388.166 363.141V362.438C388.166 360.996 388.371 359.678 388.781 358.482C389.191 357.287 389.777 356.25 390.539 355.371C391.312 354.492 392.25 353.818 393.352 353.35C394.453 352.869 395.695 352.629 397.078 352.629C398.426 352.629 399.621 352.852 400.664 353.297C401.707 353.742 402.58 354.375 403.283 355.195C403.998 356.016 404.537 357 404.9 358.148C405.264 359.285 405.445 360.551 405.445 361.945V364.055H390.328V360.68H400.471V360.293C400.471 359.59 400.342 358.963 400.084 358.412C399.838 357.85 399.463 357.404 398.959 357.076C398.455 356.748 397.811 356.584 397.025 356.584C396.357 356.584 395.783 356.73 395.303 357.023C394.822 357.316 394.43 357.727 394.125 358.254C393.832 358.781 393.609 359.402 393.457 360.117C393.316 360.82 393.246 361.594 393.246 362.438V363.141C393.246 363.902 393.352 364.605 393.562 365.25C393.785 365.895 394.096 366.451 394.494 366.92C394.904 367.389 395.396 367.752 395.971 368.01C396.557 368.268 397.219 368.396 397.957 368.396C398.871 368.396 399.721 368.221 400.506 367.869C401.303 367.506 401.988 366.961 402.562 366.234L405.023 368.906C404.625 369.48 404.08 370.031 403.389 370.559C402.709 371.086 401.889 371.52 400.928 371.859C399.967 372.188 398.871 372.352 397.641 372.352ZM422.25 357.041V372H417.188V352.98H421.934L422.25 357.041ZM421.512 361.822H420.141C420.141 360.416 420.322 359.15 420.686 358.025C421.049 356.889 421.559 355.922 422.215 355.125C422.871 354.316 423.65 353.701 424.553 353.279C425.467 352.846 426.486 352.629 427.611 352.629C428.502 352.629 429.316 352.758 430.055 353.016C430.793 353.273 431.426 353.684 431.953 354.246C432.492 354.809 432.902 355.553 433.184 356.479C433.477 357.404 433.623 358.535 433.623 359.871V372H428.525V359.854C428.525 359.01 428.408 358.354 428.174 357.885C427.939 357.416 427.594 357.088 427.137 356.9C426.691 356.701 426.141 356.602 425.484 356.602C424.805 356.602 424.213 356.736 423.709 357.006C423.217 357.275 422.807 357.65 422.479 358.131C422.162 358.6 421.922 359.15 421.758 359.783C421.594 360.416 421.512 361.096 421.512 361.822Z" fill="black"/>
<path d="M129.602 395.114C129.602 394.162 129.817 393.308 130.246 392.552C130.675 391.787 131.259 391.189 131.996 390.76C132.743 390.331 133.569 390.116 134.474 390.116C135.538 390.116 136.467 390.373 137.26 390.886C138.053 391.399 138.632 392.127 138.996 393.07H137.47C137.199 392.482 136.807 392.029 136.294 391.712C135.79 391.395 135.183 391.236 134.474 391.236C133.793 391.236 133.181 391.395 132.64 391.712C132.099 392.029 131.674 392.482 131.366 393.07C131.058 393.649 130.904 394.33 130.904 395.114C130.904 395.889 131.058 396.57 131.366 397.158C131.674 397.737 132.099 398.185 132.64 398.502C133.181 398.819 133.793 398.978 134.474 398.978C135.183 398.978 135.79 398.824 136.294 398.516C136.807 398.199 137.199 397.746 137.47 397.158H138.996C138.632 398.091 138.053 398.815 137.26 399.328C136.467 399.832 135.538 400.084 134.474 400.084C133.569 400.084 132.743 399.874 131.996 399.454C131.259 399.025 130.675 398.432 130.246 397.676C129.817 396.92 129.602 396.066 129.602 395.114ZM147.892 395.87C147.892 396.113 147.878 396.369 147.85 396.64H141.718C141.765 397.396 142.022 397.989 142.488 398.418C142.964 398.838 143.538 399.048 144.21 399.048C144.761 399.048 145.218 398.922 145.582 398.67C145.956 398.409 146.217 398.063 146.366 397.634H147.738C147.533 398.371 147.122 398.973 146.506 399.44C145.89 399.897 145.125 400.126 144.21 400.126C143.482 400.126 142.829 399.963 142.25 399.636C141.681 399.309 141.233 398.847 140.906 398.25C140.58 397.643 140.416 396.943 140.416 396.15C140.416 395.357 140.575 394.661 140.892 394.064C141.21 393.467 141.653 393.009 142.222 392.692C142.801 392.365 143.464 392.202 144.21 392.202C144.938 392.202 145.582 392.361 146.142 392.678C146.702 392.995 147.132 393.434 147.43 393.994C147.738 394.545 147.892 395.17 147.892 395.87ZM146.576 395.604C146.576 395.119 146.469 394.703 146.254 394.358C146.04 394.003 145.746 393.737 145.372 393.56C145.008 393.373 144.602 393.28 144.154 393.28C143.51 393.28 142.96 393.485 142.502 393.896C142.054 394.307 141.798 394.876 141.732 395.604H146.576ZM153.312 392.188C154.245 392.188 155.001 392.473 155.58 393.042C156.159 393.602 156.448 394.414 156.448 395.478V400H155.188V395.66C155.188 394.895 154.997 394.311 154.614 393.91C154.231 393.499 153.709 393.294 153.046 393.294C152.374 393.294 151.837 393.504 151.436 393.924C151.044 394.344 150.848 394.955 150.848 395.758V400H149.574V392.328H150.848V393.42C151.1 393.028 151.441 392.725 151.87 392.51C152.309 392.295 152.789 392.188 153.312 392.188ZM160.083 393.378V397.9C160.083 398.273 160.163 398.539 160.321 398.698C160.48 398.847 160.755 398.922 161.147 398.922H162.085V400H160.937C160.228 400 159.696 399.837 159.341 399.51C158.987 399.183 158.809 398.647 158.809 397.9V393.378H157.815V392.328H158.809V390.396H160.083V392.328H162.085V393.378H160.083ZM164.903 393.574C165.127 393.135 165.444 392.795 165.855 392.552C166.275 392.309 166.783 392.188 167.381 392.188V393.504H167.045C165.617 393.504 164.903 394.279 164.903 395.828V400H163.629V392.328H164.903V393.574ZM172.197 400.126C171.479 400.126 170.825 399.963 170.237 399.636C169.659 399.309 169.201 398.847 168.865 398.25C168.539 397.643 168.375 396.943 168.375 396.15C168.375 395.366 168.543 394.675 168.879 394.078C169.225 393.471 169.691 393.009 170.279 392.692C170.867 392.365 171.525 392.202 172.253 392.202C172.981 392.202 173.639 392.365 174.227 392.692C174.815 393.009 175.277 393.467 175.613 394.064C175.959 394.661 176.131 395.357 176.131 396.15C176.131 396.943 175.954 397.643 175.599 398.25C175.254 398.847 174.783 399.309 174.185 399.636C173.588 399.963 172.925 400.126 172.197 400.126ZM172.197 399.006C172.655 399.006 173.084 398.899 173.485 398.684C173.887 398.469 174.209 398.147 174.451 397.718C174.703 397.289 174.829 396.766 174.829 396.15C174.829 395.534 174.708 395.011 174.465 394.582C174.223 394.153 173.905 393.835 173.513 393.63C173.121 393.415 172.697 393.308 172.239 393.308C171.773 393.308 171.343 393.415 170.951 393.63C170.569 393.835 170.261 394.153 170.027 394.582C169.794 395.011 169.677 395.534 169.677 396.15C169.677 396.775 169.789 397.303 170.013 397.732C170.247 398.161 170.555 398.483 170.937 398.698C171.32 398.903 171.74 399.006 172.197 399.006ZM181.063 396.136C181.063 395.352 181.222 394.666 181.539 394.078C181.856 393.481 182.29 393.019 182.841 392.692C183.401 392.365 184.026 392.202 184.717 392.202C185.314 392.202 185.87 392.342 186.383 392.622C186.896 392.893 187.288 393.252 187.559 393.7V389.64H188.847V400H187.559V398.558C187.307 399.015 186.934 399.393 186.439 399.692C185.944 399.981 185.366 400.126 184.703 400.126C184.022 400.126 183.401 399.958 182.841 399.622C182.29 399.286 181.856 398.815 181.539 398.208C181.222 397.601 181.063 396.911 181.063 396.136ZM187.559 396.15C187.559 395.571 187.442 395.067 187.209 394.638C186.976 394.209 186.658 393.882 186.257 393.658C185.865 393.425 185.431 393.308 184.955 393.308C184.479 393.308 184.045 393.42 183.653 393.644C183.261 393.868 182.948 394.195 182.715 394.624C182.482 395.053 182.365 395.557 182.365 396.136C182.365 396.724 182.482 397.237 182.715 397.676C182.948 398.105 183.261 398.437 183.653 398.67C184.045 398.894 184.479 399.006 184.955 399.006C185.431 399.006 185.865 398.894 186.257 398.67C186.658 398.437 186.976 398.105 187.209 397.676C187.442 397.237 187.559 396.729 187.559 396.15ZM198 395.87C198 396.113 197.986 396.369 197.958 396.64H191.826C191.873 397.396 192.129 397.989 192.596 398.418C193.072 398.838 193.646 399.048 194.318 399.048C194.869 399.048 195.326 398.922 195.69 398.67C196.063 398.409 196.325 398.063 196.474 397.634H197.846C197.641 398.371 197.23 398.973 196.614 399.44C195.998 399.897 195.233 400.126 194.318 400.126C193.59 400.126 192.937 399.963 192.358 399.636C191.789 399.309 191.341 398.847 191.014 398.25C190.687 397.643 190.524 396.943 190.524 396.15C190.524 395.357 190.683 394.661 191 394.064C191.317 393.467 191.761 393.009 192.33 392.692C192.909 392.365 193.571 392.202 194.318 392.202C195.046 392.202 195.69 392.361 196.25 392.678C196.81 392.995 197.239 393.434 197.538 393.994C197.846 394.545 198 395.17 198 395.87ZM196.684 395.604C196.684 395.119 196.577 394.703 196.362 394.358C196.147 394.003 195.853 393.737 195.48 393.56C195.116 393.373 194.71 393.28 194.262 393.28C193.618 393.28 193.067 393.485 192.61 393.896C192.162 394.307 191.905 394.876 191.84 395.604H196.684ZM209.182 397.83H204.926L204.142 400H202.798L206.326 390.298H207.796L211.31 400H209.966L209.182 397.83ZM208.818 396.794L207.054 391.866L205.29 396.794H208.818ZM214.122 393.742C214.374 393.303 214.747 392.939 215.242 392.65C215.746 392.351 216.329 392.202 216.992 392.202C217.673 392.202 218.289 392.365 218.84 392.692C219.4 393.019 219.838 393.481 220.156 394.078C220.473 394.666 220.632 395.352 220.632 396.136C220.632 396.911 220.473 397.601 220.156 398.208C219.838 398.815 219.4 399.286 218.84 399.622C218.289 399.958 217.673 400.126 216.992 400.126C216.338 400.126 215.76 399.981 215.256 399.692C214.761 399.393 214.383 399.025 214.122 398.586V403.64H212.848V392.328H214.122V393.742ZM219.33 396.136C219.33 395.557 219.213 395.053 218.98 394.624C218.746 394.195 218.429 393.868 218.028 393.644C217.636 393.42 217.202 393.308 216.726 393.308C216.259 393.308 215.825 393.425 215.424 393.658C215.032 393.882 214.714 394.213 214.472 394.652C214.238 395.081 214.122 395.581 214.122 396.15C214.122 396.729 214.238 397.237 214.472 397.676C214.714 398.105 215.032 398.437 215.424 398.67C215.825 398.894 216.259 399.006 216.726 399.006C217.202 399.006 217.636 398.894 218.028 398.67C218.429 398.437 218.746 398.105 218.98 397.676C219.213 397.237 219.33 396.724 219.33 396.136ZM225.654 400.126C224.936 400.126 224.282 399.963 223.694 399.636C223.116 399.309 222.658 398.847 222.322 398.25C221.996 397.643 221.832 396.943 221.832 396.15C221.832 395.366 222 394.675 222.336 394.078C222.682 393.471 223.148 393.009 223.736 392.692C224.324 392.365 224.982 392.202 225.71 392.202C226.438 392.202 227.096 392.365 227.684 392.692C228.272 393.009 228.734 393.467 229.07 394.064C229.416 394.661 229.588 395.357 229.588 396.15C229.588 396.943 229.411 397.643 229.056 398.25C228.711 398.847 228.24 399.309 227.642 399.636C227.045 399.963 226.382 400.126 225.654 400.126ZM225.654 399.006C226.112 399.006 226.541 398.899 226.942 398.684C227.344 398.469 227.666 398.147 227.908 397.718C228.16 397.289 228.286 396.766 228.286 396.15C228.286 395.534 228.165 395.011 227.922 394.582C227.68 394.153 227.362 393.835 226.97 393.63C226.578 393.415 226.154 393.308 225.696 393.308C225.23 393.308 224.8 393.415 224.408 393.63C224.026 393.835 223.718 394.153 223.484 394.582C223.251 395.011 223.134 395.534 223.134 396.15C223.134 396.775 223.246 397.303 223.47 397.732C223.704 398.161 224.012 398.483 224.394 398.698C224.777 398.903 225.197 399.006 225.654 399.006ZM231.922 391.082C231.679 391.082 231.474 390.998 231.306 390.83C231.138 390.662 231.054 390.457 231.054 390.214C231.054 389.971 231.138 389.766 231.306 389.598C231.474 389.43 231.679 389.346 231.922 389.346C232.155 389.346 232.351 389.43 232.51 389.598C232.678 389.766 232.762 389.971 232.762 390.214C232.762 390.457 232.678 390.662 232.51 390.83C232.351 390.998 232.155 391.082 231.922 391.082ZM232.538 392.328V400H231.264V392.328H232.538ZM238.055 400.126C237.336 400.126 236.683 399.963 236.095 399.636C235.516 399.309 235.059 398.847 234.723 398.25C234.396 397.643 234.233 396.943 234.233 396.15C234.233 395.366 234.401 394.675 234.737 394.078C235.082 393.471 235.549 393.009 236.137 392.692C236.725 392.365 237.383 392.202 238.111 392.202C238.839 392.202 239.497 392.365 240.085 392.692C240.673 393.009 241.135 393.467 241.471 394.064C241.816 394.661 241.989 395.357 241.989 396.15C241.989 396.943 241.812 397.643 241.457 398.25C241.112 398.847 240.64 399.309 240.043 399.636C239.446 399.963 238.783 400.126 238.055 400.126ZM238.055 399.006C238.512 399.006 238.942 398.899 239.343 398.684C239.744 398.469 240.066 398.147 240.309 397.718C240.561 397.289 240.687 396.766 240.687 396.15C240.687 395.534 240.566 395.011 240.323 394.582C240.08 394.153 239.763 393.835 239.371 393.63C238.979 393.415 238.554 393.308 238.097 393.308C237.63 393.308 237.201 393.415 236.809 393.63C236.426 393.835 236.118 394.153 235.885 394.582C235.652 395.011 235.535 395.534 235.535 396.15C235.535 396.775 235.647 397.303 235.871 397.732C236.104 398.161 236.412 398.483 236.795 398.698C237.178 398.903 237.598 399.006 238.055 399.006ZM246.92 396.136C246.92 395.352 247.079 394.666 247.396 394.078C247.714 393.481 248.148 393.019 248.698 392.692C249.258 392.365 249.879 392.202 250.56 392.202C251.232 392.202 251.816 392.347 252.31 392.636C252.805 392.925 253.174 393.289 253.416 393.728V392.328H254.704V400H253.416V398.572C253.164 399.02 252.786 399.393 252.282 399.692C251.788 399.981 251.209 400.126 250.546 400.126C249.865 400.126 249.249 399.958 248.698 399.622C248.148 399.286 247.714 398.815 247.396 398.208C247.079 397.601 246.92 396.911 246.92 396.136ZM253.416 396.15C253.416 395.571 253.3 395.067 253.066 394.638C252.833 394.209 252.516 393.882 252.114 393.658C251.722 393.425 251.288 393.308 250.812 393.308C250.336 393.308 249.902 393.42 249.51 393.644C249.118 393.868 248.806 394.195 248.572 394.624C248.339 395.053 248.222 395.557 248.222 396.136C248.222 396.724 248.339 397.237 248.572 397.676C248.806 398.105 249.118 398.437 249.51 398.67C249.902 398.894 250.336 399.006 250.812 399.006C251.288 399.006 251.722 398.894 252.114 398.67C252.516 398.437 252.833 398.105 253.066 397.676C253.3 397.237 253.416 396.729 253.416 396.15ZM260.203 400.126C259.485 400.126 258.831 399.963 258.243 399.636C257.665 399.309 257.207 398.847 256.871 398.25C256.545 397.643 256.381 396.943 256.381 396.15C256.381 395.366 256.549 394.675 256.885 394.078C257.231 393.471 257.697 393.009 258.285 392.692C258.873 392.365 259.531 392.202 260.259 392.202C260.987 392.202 261.645 392.365 262.233 392.692C262.821 393.009 263.283 393.467 263.619 394.064C263.965 394.661 264.137 395.357 264.137 396.15C264.137 396.943 263.96 397.643 263.605 398.25C263.26 398.847 262.789 399.309 262.191 399.636C261.594 399.963 260.931 400.126 260.203 400.126ZM260.203 399.006C260.661 399.006 261.09 398.899 261.491 398.684C261.893 398.469 262.215 398.147 262.457 397.718C262.709 397.289 262.835 396.766 262.835 396.15C262.835 395.534 262.714 395.011 262.471 394.582C262.229 394.153 261.911 393.835 261.519 393.63C261.127 393.415 260.703 393.308 260.245 393.308C259.779 393.308 259.349 393.415 258.957 393.63C258.575 393.835 258.267 394.153 258.033 394.582C257.8 395.011 257.683 395.534 257.683 396.15C257.683 396.775 257.795 397.303 258.019 397.732C258.253 398.161 258.561 398.483 258.943 398.698C259.326 398.903 259.746 399.006 260.203 399.006ZM270.819 390.242V400H269.545V390.242H270.819ZM282.216 392.188C282.813 392.188 283.345 392.314 283.812 392.566C284.279 392.809 284.647 393.177 284.918 393.672C285.189 394.167 285.324 394.769 285.324 395.478V400H284.064V395.66C284.064 394.895 283.873 394.311 283.49 393.91C283.117 393.499 282.608 393.294 281.964 393.294C281.301 393.294 280.774 393.509 280.382 393.938C279.99 394.358 279.794 394.969 279.794 395.772V400H278.534V395.66C278.534 394.895 278.343 394.311 277.96 393.91C277.587 393.499 277.078 393.294 276.434 393.294C275.771 393.294 275.244 393.509 274.852 393.938C274.46 394.358 274.264 394.969 274.264 395.772V400H272.99V392.328H274.264V393.434C274.516 393.033 274.852 392.725 275.272 392.51C275.701 392.295 276.173 392.188 276.686 392.188C277.33 392.188 277.899 392.333 278.394 392.622C278.889 392.911 279.257 393.336 279.5 393.896C279.715 393.355 280.069 392.935 280.564 392.636C281.059 392.337 281.609 392.188 282.216 392.188ZM288.072 391.082C287.829 391.082 287.624 390.998 287.456 390.83C287.288 390.662 287.204 390.457 287.204 390.214C287.204 389.971 287.288 389.766 287.456 389.598C287.624 389.43 287.829 389.346 288.072 389.346C288.305 389.346 288.501 389.43 288.66 389.598C288.828 389.766 288.912 389.971 288.912 390.214C288.912 390.457 288.828 390.662 288.66 390.83C288.501 390.998 288.305 391.082 288.072 391.082ZM288.688 392.328V400H287.414V392.328H288.688ZM294.023 392.202C294.686 392.202 295.265 392.347 295.759 392.636C296.263 392.925 296.637 393.289 296.879 393.728V392.328H298.167V400.168C298.167 400.868 298.018 401.489 297.719 402.03C297.421 402.581 296.991 403.01 296.431 403.318C295.881 403.626 295.237 403.78 294.499 403.78C293.491 403.78 292.651 403.542 291.979 403.066C291.307 402.59 290.911 401.941 290.789 401.12H292.049C292.189 401.587 292.479 401.96 292.917 402.24C293.356 402.529 293.883 402.674 294.499 402.674C295.199 402.674 295.769 402.455 296.207 402.016C296.655 401.577 296.879 400.961 296.879 400.168V398.558C296.627 399.006 296.254 399.379 295.759 399.678C295.265 399.977 294.686 400.126 294.023 400.126C293.342 400.126 292.721 399.958 292.161 399.622C291.611 399.286 291.177 398.815 290.859 398.208C290.542 397.601 290.383 396.911 290.383 396.136C290.383 395.352 290.542 394.666 290.859 394.078C291.177 393.481 291.611 393.019 292.161 392.692C292.721 392.365 293.342 392.202 294.023 392.202ZM296.879 396.15C296.879 395.571 296.763 395.067 296.529 394.638C296.296 394.209 295.979 393.882 295.577 393.658C295.185 393.425 294.751 393.308 294.275 393.308C293.799 393.308 293.365 393.42 292.973 393.644C292.581 393.868 292.269 394.195 292.035 394.624C291.802 395.053 291.685 395.557 291.685 396.136C291.685 396.724 291.802 397.237 292.035 397.676C292.269 398.105 292.581 398.437 292.973 398.67C293.365 398.894 293.799 399.006 294.275 399.006C294.751 399.006 295.185 398.894 295.577 398.67C295.979 398.437 296.296 398.105 296.529 397.676C296.763 397.237 296.879 396.729 296.879 396.15ZM301.594 393.574C301.818 393.135 302.136 392.795 302.546 392.552C302.966 392.309 303.475 392.188 304.072 392.188V393.504H303.736C302.308 393.504 301.594 394.279 301.594 395.828V400H300.32V392.328H301.594V393.574ZM305.067 396.136C305.067 395.352 305.226 394.666 305.543 394.078C305.86 393.481 306.294 393.019 306.845 392.692C307.405 392.365 308.026 392.202 308.707 392.202C309.379 392.202 309.962 392.347 310.457 392.636C310.952 392.925 311.32 393.289 311.563 393.728V392.328H312.851V400H311.563V398.572C311.311 399.02 310.933 399.393 310.429 399.692C309.934 399.981 309.356 400.126 308.693 400.126C308.012 400.126 307.396 399.958 306.845 399.622C306.294 399.286 305.86 398.815 305.543 398.208C305.226 397.601 305.067 396.911 305.067 396.136ZM311.563 396.15C311.563 395.571 311.446 395.067 311.213 394.638C310.98 394.209 310.662 393.882 310.261 393.658C309.869 393.425 309.435 393.308 308.959 393.308C308.483 393.308 308.049 393.42 307.657 393.644C307.265 393.868 306.952 394.195 306.719 394.624C306.486 395.053 306.369 395.557 306.369 396.136C306.369 396.724 306.486 397.237 306.719 397.676C306.952 398.105 307.265 398.437 307.657 398.67C308.049 398.894 308.483 399.006 308.959 399.006C309.435 399.006 309.869 398.894 310.261 398.67C310.662 398.437 310.98 398.105 311.213 397.676C311.446 397.237 311.563 396.729 311.563 396.15ZM318.742 392.188C319.675 392.188 320.431 392.473 321.01 393.042C321.588 393.602 321.878 394.414 321.878 395.478V400H320.618V395.66C320.618 394.895 320.426 394.311 320.044 393.91C319.661 393.499 319.138 393.294 318.476 393.294C317.804 393.294 317.267 393.504 316.866 393.924C316.474 394.344 316.278 394.955 316.278 395.758V400H315.004V392.328H316.278V393.42C316.53 393.028 316.87 392.725 317.3 392.51C317.738 392.295 318.219 392.188 318.742 392.188ZM325.513 393.378V397.9C325.513 398.273 325.592 398.539 325.751 398.698C325.91 398.847 326.185 398.922 326.577 398.922H327.515V400H326.367C325.658 400 325.126 399.837 324.771 399.51C324.416 399.183 324.239 398.647 324.239 397.9V393.378H323.245V392.328H324.239V390.396H325.513V392.328H327.515V393.378H325.513ZM336.058 395.87C336.058 396.113 336.044 396.369 336.016 396.64H329.884C329.931 397.396 330.188 397.989 330.654 398.418C331.13 398.838 331.704 399.048 332.376 399.048C332.927 399.048 333.384 398.922 333.748 398.67C334.122 398.409 334.383 398.063 334.532 397.634H335.904C335.699 398.371 335.288 398.973 334.672 399.44C334.056 399.897 333.291 400.126 332.376 400.126C331.648 400.126 330.995 399.963 330.416 399.636C329.847 399.309 329.399 398.847 329.072 398.25C328.746 397.643 328.582 396.943 328.582 396.15C328.582 395.357 328.741 394.661 329.058 394.064C329.376 393.467 329.819 393.009 330.388 392.692C330.967 392.365 331.63 392.202 332.376 392.202C333.104 392.202 333.748 392.361 334.308 392.678C334.868 392.995 335.298 393.434 335.596 393.994C335.904 394.545 336.058 395.17 336.058 395.87ZM334.742 395.604C334.742 395.119 334.635 394.703 334.42 394.358C334.206 394.003 333.912 393.737 333.538 393.56C333.174 393.373 332.768 393.28 332.32 393.28C331.676 393.28 331.126 393.485 330.668 393.896C330.22 394.307 329.964 394.876 329.898 395.604H334.742ZM348.473 395.87C348.473 396.113 348.459 396.369 348.431 396.64H342.299C342.345 397.396 342.602 397.989 343.069 398.418C343.545 398.838 344.119 399.048 344.791 399.048C345.341 399.048 345.799 398.922 346.163 398.67C346.536 398.409 346.797 398.063 346.947 397.634H348.319C348.113 398.371 347.703 398.973 347.087 399.44C346.471 399.897 345.705 400.126 344.791 400.126C344.063 400.126 343.409 399.963 342.831 399.636C342.261 399.309 341.813 398.847 341.487 398.25C341.16 397.643 340.997 396.943 340.997 396.15C340.997 395.357 341.155 394.661 341.473 394.064C341.79 393.467 342.233 393.009 342.803 392.692C343.381 392.365 344.044 392.202 344.791 392.202C345.519 392.202 346.163 392.361 346.723 392.678C347.283 392.995 347.712 393.434 348.011 393.994C348.319 394.545 348.473 395.17 348.473 395.87ZM347.157 395.604C347.157 395.119 347.049 394.703 346.835 394.358C346.62 394.003 346.326 393.737 345.953 393.56C345.589 393.373 345.183 393.28 344.735 393.28C344.091 393.28 343.54 393.485 343.083 393.896C342.635 394.307 342.378 394.876 342.313 395.604H347.157ZM359.025 400L356.701 396.01H355.161V400H353.887V390.242H357.037C357.774 390.242 358.395 390.368 358.899 390.62C359.412 390.872 359.795 391.213 360.047 391.642C360.299 392.071 360.425 392.561 360.425 393.112C360.425 393.784 360.229 394.377 359.837 394.89C359.454 395.403 358.875 395.744 358.101 395.912L360.551 400H359.025ZM355.161 394.988H357.037C357.727 394.988 358.245 394.82 358.591 394.484C358.936 394.139 359.109 393.681 359.109 393.112C359.109 392.533 358.936 392.085 358.591 391.768C358.255 391.451 357.737 391.292 357.037 391.292H355.161V394.988ZM369.404 395.87C369.404 396.113 369.39 396.369 369.362 396.64H363.23C363.277 397.396 363.534 397.989 364 398.418C364.476 398.838 365.05 399.048 365.722 399.048C366.273 399.048 366.73 398.922 367.094 398.67C367.468 398.409 367.729 398.063 367.878 397.634H369.25C369.045 398.371 368.634 398.973 368.018 399.44C367.402 399.897 366.637 400.126 365.722 400.126C364.994 400.126 364.341 399.963 363.762 399.636C363.193 399.309 362.745 398.847 362.418 398.25C362.092 397.643 361.928 396.943 361.928 396.15C361.928 395.357 362.087 394.661 362.404 394.064C362.722 393.467 363.165 393.009 363.734 392.692C364.313 392.365 364.976 392.202 365.722 392.202C366.45 392.202 367.094 392.361 367.654 392.678C368.214 392.995 368.644 393.434 368.942 393.994C369.25 394.545 369.404 395.17 369.404 395.87ZM368.088 395.604C368.088 395.119 367.981 394.703 367.766 394.358C367.552 394.003 367.258 393.737 366.884 393.56C366.52 393.373 366.114 393.28 365.666 393.28C365.022 393.28 364.472 393.485 364.014 393.896C363.566 394.307 363.31 394.876 363.244 395.604H368.088ZM374.208 393.378H372.598V400H371.324V393.378H370.33V392.328H371.324V391.782C371.324 390.923 371.543 390.298 371.982 389.906C372.43 389.505 373.144 389.304 374.124 389.304V390.368C373.564 390.368 373.167 390.48 372.934 390.704C372.71 390.919 372.598 391.278 372.598 391.782V392.328H374.208V393.378ZM382.497 392.328V400H381.223V398.866C380.981 399.258 380.64 399.566 380.201 399.79C379.772 400.005 379.296 400.112 378.773 400.112C378.176 400.112 377.639 399.991 377.163 399.748C376.687 399.496 376.309 399.123 376.029 398.628C375.759 398.133 375.623 397.531 375.623 396.822V392.328H376.883V396.654C376.883 397.41 377.075 397.993 377.457 398.404C377.84 398.805 378.363 399.006 379.025 399.006C379.707 399.006 380.243 398.796 380.635 398.376C381.027 397.956 381.223 397.345 381.223 396.542V392.328H382.497ZM387.812 392.202C388.475 392.202 389.054 392.347 389.548 392.636C390.052 392.925 390.426 393.289 390.668 393.728V392.328H391.956V400.168C391.956 400.868 391.807 401.489 391.508 402.03C391.21 402.581 390.78 403.01 390.22 403.318C389.67 403.626 389.026 403.78 388.288 403.78C387.28 403.78 386.44 403.542 385.768 403.066C385.096 402.59 384.7 401.941 384.578 401.12H385.838C385.978 401.587 386.268 401.96 386.706 402.24C387.145 402.529 387.672 402.674 388.288 402.674C388.988 402.674 389.558 402.455 389.996 402.016C390.444 401.577 390.668 400.961 390.668 400.168V398.558C390.416 399.006 390.043 399.379 389.548 399.678C389.054 399.977 388.475 400.126 387.812 400.126C387.131 400.126 386.51 399.958 385.95 399.622C385.4 399.286 384.966 398.815 384.648 398.208C384.331 397.601 384.172 396.911 384.172 396.136C384.172 395.352 384.331 394.666 384.648 394.078C384.966 393.481 385.4 393.019 385.95 392.692C386.51 392.365 387.131 392.202 387.812 392.202ZM390.668 396.15C390.668 395.571 390.552 395.067 390.318 394.638C390.085 394.209 389.768 393.882 389.366 393.658C388.974 393.425 388.54 393.308 388.064 393.308C387.588 393.308 387.154 393.42 386.762 393.644C386.37 393.868 386.058 394.195 385.824 394.624C385.591 395.053 385.474 395.557 385.474 396.136C385.474 396.724 385.591 397.237 385.824 397.676C386.058 398.105 386.37 398.437 386.762 398.67C387.154 398.894 387.588 399.006 388.064 399.006C388.54 399.006 388.974 398.894 389.366 398.67C389.768 398.437 390.085 398.105 390.318 397.676C390.552 397.237 390.668 396.729 390.668 396.15ZM394.767 391.082C394.525 391.082 394.319 390.998 394.151 390.83C393.983 390.662 393.899 390.457 393.899 390.214C393.899 389.971 393.983 389.766 394.151 389.598C394.319 389.43 394.525 389.346 394.767 389.346C395.001 389.346 395.197 389.43 395.355 389.598C395.523 389.766 395.607 389.971 395.607 390.214C395.607 390.457 395.523 390.662 395.355 390.83C395.197 390.998 395.001 391.082 394.767 391.082ZM395.383 392.328V400H394.109V392.328H395.383ZM397.079 396.136C397.079 395.352 397.237 394.666 397.555 394.078C397.872 393.481 398.306 393.019 398.857 392.692C399.417 392.365 400.037 392.202 400.719 392.202C401.391 392.202 401.974 392.347 402.469 392.636C402.963 392.925 403.332 393.289 403.575 393.728V392.328H404.863V400H403.575V398.572C403.323 399.02 402.945 399.393 402.441 399.692C401.946 399.981 401.367 400.126 400.705 400.126C400.023 400.126 399.407 399.958 398.857 399.622C398.306 399.286 397.872 398.815 397.555 398.208C397.237 397.601 397.079 396.911 397.079 396.136ZM403.575 396.15C403.575 395.571 403.458 395.067 403.225 394.638C402.991 394.209 402.674 393.882 402.273 393.658C401.881 393.425 401.447 393.308 400.971 393.308C400.495 393.308 400.061 393.42 399.669 393.644C399.277 393.868 398.964 394.195 398.731 394.624C398.497 395.053 398.381 395.557 398.381 396.136C398.381 396.724 398.497 397.237 398.731 397.676C398.964 398.105 399.277 398.437 399.669 398.67C400.061 398.894 400.495 399.006 400.971 399.006C401.447 399.006 401.881 398.894 402.273 398.67C402.674 398.437 402.991 398.105 403.225 397.676C403.458 397.237 403.575 396.729 403.575 396.15ZM406.54 396.136C406.54 395.352 406.698 394.666 407.016 394.078C407.333 393.481 407.767 393.019 408.318 392.692C408.878 392.365 409.503 392.202 410.194 392.202C410.791 392.202 411.346 392.342 411.86 392.622C412.373 392.893 412.765 393.252 413.036 393.7V389.64H414.324V400H413.036V398.558C412.784 399.015 412.41 399.393 411.916 399.692C411.421 399.981 410.842 400.126 410.18 400.126C409.498 400.126 408.878 399.958 408.318 399.622C407.767 399.286 407.333 398.815 407.016 398.208C406.698 397.601 406.54 396.911 406.54 396.136ZM413.036 396.15C413.036 395.571 412.919 395.067 412.686 394.638C412.452 394.209 412.135 393.882 411.734 393.658C411.342 393.425 410.908 393.308 410.432 393.308C409.956 393.308 409.522 393.42 409.13 393.644C408.738 393.868 408.425 394.195 408.192 394.624C407.958 395.053 407.842 395.557 407.842 396.136C407.842 396.724 407.958 397.237 408.192 397.676C408.425 398.105 408.738 398.437 409.13 398.67C409.522 398.894 409.956 399.006 410.432 399.006C410.908 399.006 411.342 398.894 411.734 398.67C412.135 398.437 412.452 398.105 412.686 397.676C412.919 397.237 413.036 396.729 413.036 396.15ZM419.822 400.126C419.104 400.126 418.45 399.963 417.862 399.636C417.284 399.309 416.826 398.847 416.49 398.25C416.164 397.643 416 396.943 416 396.15C416 395.366 416.168 394.675 416.504 394.078C416.85 393.471 417.316 393.009 417.904 392.692C418.492 392.365 419.15 392.202 419.878 392.202C420.606 392.202 421.264 392.365 421.852 392.692C422.44 393.009 422.902 393.467 423.238 394.064C423.584 394.661 423.756 395.357 423.756 396.15C423.756 396.943 423.579 397.643 423.224 398.25C422.879 398.847 422.408 399.309 421.81 399.636C421.213 399.963 420.55 400.126 419.822 400.126ZM419.822 399.006C420.28 399.006 420.709 398.899 421.11 398.684C421.512 398.469 421.834 398.147 422.076 397.718C422.328 397.289 422.454 396.766 422.454 396.15C422.454 395.534 422.333 395.011 422.09 394.582C421.848 394.153 421.53 393.835 421.138 393.63C420.746 393.415 420.322 393.308 419.864 393.308C419.398 393.308 418.968 393.415 418.576 393.63C418.194 393.835 417.886 394.153 417.652 394.582C417.419 395.011 417.302 395.534 417.302 396.15C417.302 396.775 417.414 397.303 417.638 397.732C417.872 398.161 418.18 398.483 418.562 398.698C418.945 398.903 419.365 399.006 419.822 399.006ZM428.148 400.126C427.56 400.126 427.032 400.028 426.566 399.832C426.099 399.627 425.73 399.347 425.46 398.992C425.189 398.628 425.04 398.213 425.012 397.746H426.328C426.365 398.129 426.542 398.441 426.86 398.684C427.186 398.927 427.611 399.048 428.134 399.048C428.619 399.048 429.002 398.941 429.282 398.726C429.562 398.511 429.702 398.241 429.702 397.914C429.702 397.578 429.552 397.331 429.254 397.172C428.955 397.004 428.493 396.841 427.868 396.682C427.298 396.533 426.832 396.383 426.468 396.234C426.113 396.075 425.805 395.847 425.544 395.548C425.292 395.24 425.166 394.839 425.166 394.344C425.166 393.952 425.282 393.593 425.516 393.266C425.749 392.939 426.08 392.683 426.51 392.496C426.939 392.3 427.429 392.202 427.98 392.202C428.829 392.202 429.515 392.417 430.038 392.846C430.56 393.275 430.84 393.863 430.878 394.61H429.604C429.576 394.209 429.412 393.887 429.114 393.644C428.824 393.401 428.432 393.28 427.938 393.28C427.48 393.28 427.116 393.378 426.846 393.574C426.575 393.77 426.44 394.027 426.44 394.344C426.44 394.596 426.519 394.806 426.678 394.974C426.846 395.133 427.051 395.263 427.294 395.366C427.546 395.459 427.891 395.567 428.33 395.688C428.88 395.837 429.328 395.987 429.674 396.136C430.019 396.276 430.313 396.491 430.556 396.78C430.808 397.069 430.938 397.447 430.948 397.914C430.948 398.334 430.831 398.712 430.598 399.048C430.364 399.384 430.033 399.65 429.604 399.846C429.184 400.033 428.698 400.126 428.148 400.126Z" fill="black"/>
<path d="M364 225.5C364 277.691 321.691 320 269.5 320C217.309 320 175 277.691 175 225.5C175 173.309 217.309 131 269.5 131C321.691 131 364 173.309 364 225.5Z" fill="#3FB9F2"/>
<path d="M344.654 174.051C343.975 173.771 342.217 173.504 341.005 173.504C338.023 173.517 333.986 174.269 330.386 175.508C324.713 177.462 317.076 181.153 312.931 183.945C312.252 184.406 311.67 184.698 311.233 184.795C310.021 185.074 307.767 185.851 306.736 186.349C303.051 188.121 300.809 190.768 299.548 194.811C299.027 196.486 298.639 197.397 298.166 197.979C297.427 198.914 295.366 200.359 292.311 202.107C286.832 205.227 285.353 206.15 283.535 207.558C282.323 208.505 280.977 209.901 280.407 210.787C279.11 212.815 279.171 214.939 280.577 216.906C280.795 217.198 281.001 217.416 281.062 217.392C281.11 217.355 281.389 217.61 281.68 217.962C282.832 219.346 283.486 219.747 284.747 219.856C285.717 219.929 286.783 219.735 288.565 219.152C290.226 218.618 292.02 217.732 294.675 216.153C297.681 214.357 298.651 213.653 299.742 212.463C300.287 211.868 300.736 211.394 300.76 211.407C300.772 211.431 300.493 212.754 300.13 214.357C299.427 217.525 299.378 217.89 299.657 218.424C299.815 218.727 299.815 218.788 299.681 218.788C299.427 218.788 299.111 218.387 298.978 217.902C298.881 217.537 298.954 217.064 299.354 215.243C299.621 214.017 299.839 212.973 299.839 212.912C299.839 212.851 299.378 213.288 298.821 213.883C297.996 214.757 297.499 215.158 296.129 216.008C295.196 216.578 293.814 217.392 293.05 217.817C291.075 218.909 290.384 219.613 289.438 221.52C288.905 222.6 288.602 223.474 288.141 225.283C287.511 227.735 286.941 229.217 286.105 230.564L285.838 230.989L286.444 230.552C292.275 226.339 292.517 226.133 293.063 225.283C293.329 224.858 294.045 224.033 294.663 223.438C295.281 222.855 296.057 222.017 296.384 221.58C297.536 220.075 298.53 219.286 299.572 219.055C299.851 218.982 300.202 218.958 300.348 219.006C300.542 219.055 300.445 219.116 299.936 219.274C298.845 219.613 297.754 220.512 296.493 222.127C296.239 222.454 295.887 222.843 295.717 222.976C294.905 223.608 293.572 224.992 293.16 225.635C292.626 226.449 292.081 226.873 287.244 230.248C285.559 231.426 284.056 232.409 283.911 232.446C283.777 232.47 282.892 232.579 281.959 232.689C278.759 233.053 275.268 233.611 273.898 233.963C272.225 234.4 270.795 234.364 267.606 233.769C265.049 233.308 263.424 233.405 261.485 234.133C259.097 235.044 257.388 237.096 257.594 238.82C257.703 239.682 258.042 240.459 258.406 240.653C258.588 240.75 259.315 240.811 260.442 240.823C262.103 240.847 262.309 240.883 264.321 241.418C267.109 242.158 269.776 242.789 270.479 242.887C270.795 242.935 271.134 242.996 271.231 243.032C271.485 243.117 270.528 243.603 269.534 243.906C267.812 244.428 266.77 244.55 263.291 244.647C259.473 244.756 259.133 244.817 257.351 245.679C255.921 246.371 254.818 247.306 254.03 248.471C253.302 249.564 252.999 250.499 253.084 251.373C253.157 252.15 253.569 253.267 253.957 253.679C254.321 254.068 254.854 254.092 256.321 253.752C257.048 253.582 257.812 253.509 258.891 253.509L260.43 253.509L259.957 254.274C259.376 255.209 259.073 256.265 259.218 256.909C259.327 257.406 260.067 258.718 260.394 258.985C260.539 259.106 260.709 259.106 261.145 259.009C261.461 258.936 262.212 258.766 262.806 258.633C263.594 258.451 264.697 258.341 266.806 258.244C271.582 258.038 273.498 257.734 277.401 256.593C278.637 256.229 281.753 255.355 284.311 254.651C288.953 253.376 289.996 253.048 290.978 252.55C292.36 251.834 293.257 250.499 295.523 245.74L296.408 243.858L297.608 242.802C299.669 240.981 301.124 240.034 304.748 238.164C307.306 236.841 308.882 235.809 309.936 234.753C311.391 233.308 312.07 232.239 313.367 229.374C314.519 226.813 315.343 225.332 317.44 222.054C318.349 220.609 319.622 218.472 320.24 217.319C321.634 214.733 322.01 214.126 323.222 212.621C326.58 208.444 331.441 205.251 339.441 201.961L341.769 201.002L342.254 198.999C343.951 192.006 344.824 185.147 345.018 177.547L345.09 174.233L344.654 174.051ZM328.144 179.684C321.428 181.141 317.137 182.476 315.27 183.702L314.688 184.079L315.222 183.593C315.949 182.937 317.791 182.003 319.501 181.408C322.301 180.449 325.222 179.781 329.901 179.04C334.193 178.361 334.035 178.421 328.144 179.684ZM261.533 258.05C260.806 258.584 260.782 258.596 261.242 258.159C261.521 257.904 261.933 257.589 262.152 257.467C262.697 257.164 262.503 257.346 261.533 258.05Z" fill="white"/>
<path d="M281.741 186.677C281.522 186.033 281.11 185.232 280.904 185.074C280.577 184.819 280.104 184.807 278.989 185.05C277.765 185.317 275.352 185.487 274.819 185.353L274.492 185.268L274.795 184.88C275.474 183.957 275.886 182.682 275.716 181.966C275.607 181.481 275.061 180.424 274.722 180.06C274.419 179.745 274.08 179.757 272.625 180.121C271.607 180.388 270.867 180.461 268.079 180.606C266.249 180.704 264.503 180.813 264.2 180.849C261.861 181.141 260.115 181.529 256.503 182.573C254.309 183.192 251.29 184.042 249.799 184.443C245.447 185.608 244.102 186.094 243.168 186.81C242.356 187.429 241.156 189.433 239.702 192.589C238.635 194.896 238.489 195.09 236.623 196.668C235.071 197.967 233.628 198.89 230.465 200.565C228.949 201.367 227.337 202.265 226.889 202.568C224.925 203.867 223.458 205.591 222.343 207.886C221.979 208.639 221.216 210.217 220.646 211.382C220.076 212.548 219.106 214.296 218.488 215.267C216.197 218.873 215.603 219.868 214.621 221.702C214.076 222.734 213.348 223.996 213.021 224.494C210.827 227.772 207.481 230.783 203.408 233.126C201.687 234.109 198.172 235.809 196.014 236.695C195.081 237.071 194.086 237.484 193.82 237.606L193.311 237.824L192.765 240.106C190.983 247.476 190.11 254.201 189.929 262.056L189.856 265.565L190.389 265.492C190.68 265.443 193.299 265.164 196.196 264.861L201.469 264.302L203.772 263.525C209.76 261.51 217.785 257.71 221.906 254.954C222.707 254.42 223.191 254.189 223.931 254.007C227.398 253.109 229.883 251.883 231.75 250.11C233.653 248.325 234.707 246.468 235.701 243.117C235.907 242.45 236.247 241.648 236.453 241.333C237.229 240.155 239.071 238.795 242.623 236.756C243.593 236.209 245.144 235.323 246.078 234.789C251.084 231.912 253.812 229.617 254.963 227.31C255.339 226.534 255.4 226.279 255.448 225.368C255.497 224.166 255.266 223.304 254.612 222.297C254.272 221.762 253.678 221.119 253.957 221.58C254.09 221.787 253.169 220.828 252.599 220.148C252.151 219.601 251.387 219.201 250.49 219.031C249.69 218.873 248.054 219.128 246.441 219.662C244.987 220.136 242.393 221.422 240.065 222.831C236.756 224.822 236.235 225.222 234.816 226.801C234.429 227.238 234.15 227.48 234.174 227.347C234.21 227.213 234.525 225.829 234.865 224.263C235.519 221.289 235.568 220.694 235.156 220.233C234.986 220.051 234.986 220.002 235.119 220.002C235.459 220.002 235.798 220.366 235.944 220.876C236.077 221.35 236.041 221.617 235.592 223.571C235.326 224.761 235.107 225.817 235.107 225.914C235.107 225.999 235.495 225.647 235.956 225.113C236.453 224.555 237.168 223.911 237.665 223.583C238.95 222.734 241.108 221.447 242.429 220.73C243.387 220.208 243.714 219.966 244.259 219.298C244.95 218.46 245.811 216.845 246.247 215.571C246.381 215.17 246.684 214.102 246.914 213.203C247.557 210.727 247.945 209.743 248.757 208.444C248.926 208.189 249.023 207.983 248.987 207.983C248.926 207.983 246.841 209.488 244.187 211.455C242.49 212.718 242.138 213.033 241.944 213.47C241.811 213.798 241.217 214.49 240.38 215.328C239.641 216.069 238.792 216.991 238.477 217.392C237.762 218.339 236.853 219.189 236.198 219.516C235.726 219.759 234.38 220.002 234.38 219.844C234.38 219.808 234.671 219.686 235.035 219.589C235.907 219.334 237.035 218.46 237.944 217.343C238.78 216.299 238.95 216.129 240.223 215C240.732 214.551 241.399 213.798 241.702 213.337C242.09 212.766 242.526 212.305 243.132 211.844C244.199 211.042 248.902 207.752 250.078 206.975L250.927 206.417L253.109 206.162C256.248 205.786 258.818 205.385 260.745 204.948C262.855 204.462 263.909 204.487 267.364 205.081C269.655 205.47 269.788 205.482 270.928 205.336C273.122 205.057 274.819 204.292 276.08 203.005C277.316 201.743 277.631 200.565 277.122 199.023C276.819 198.137 276.649 198.064 274.383 198.004C272.613 197.943 272.382 197.907 270.382 197.372C268.406 196.85 265.34 196.11 264.079 195.879L263.533 195.77L264.164 195.442C265.764 194.616 268.031 194.24 271.716 194.192C274.577 194.167 275.255 194.094 276.383 193.718C279.328 192.723 281.716 190.197 281.85 187.915C281.874 187.49 281.826 186.956 281.741 186.677ZM272.964 181.274C272.746 181.408 272.564 181.493 272.564 181.468C272.564 181.408 273.752 180.522 274.019 180.388C274.346 180.206 273.364 181.031 272.964 181.274Z" fill="white"/>
</svg>
