<svg width="450" height="404" viewBox="0 0 450 404" fill="none" xmlns="http://www.w3.org/2000/svg">
<path d="M270 120.5C270 172.691 227.691 215 175.5 215C123.309 215 81 172.691 81 120.5C81 68.3091 123.309 26 175.5 26C227.691 26 270 68.3091 270 120.5Z" fill="#3FB9F2"/>
<path d="M250.654 54.1262C249.975 53.74 248.217 53.3705 247.005 53.3705C244.023 53.3873 239.986 54.4285 236.386 56.1413C230.713 58.8448 223.076 63.9497 218.931 67.8119C218.252 68.45 217.67 68.853 217.234 68.9874C216.021 69.3736 213.767 70.4483 212.736 71.1368C209.051 73.5885 206.809 77.2492 205.548 82.841C205.027 85.1584 204.639 86.4178 204.166 87.2238C203.427 88.5168 201.366 90.5151 198.311 92.9332C192.832 97.2488 191.353 98.525 189.535 100.473C188.323 101.783 186.977 103.714 186.407 104.94C185.11 107.744 185.171 110.683 186.577 113.403C186.795 113.806 187.001 114.108 187.062 114.075C187.11 114.024 187.389 114.377 187.68 114.864C188.832 116.778 189.486 117.332 190.747 117.484C191.717 117.584 192.783 117.316 194.565 116.51C196.226 115.771 198.02 114.545 200.675 112.362C203.681 109.877 204.651 108.903 205.742 107.257C206.287 106.434 206.736 105.779 206.76 105.796C206.772 105.83 206.493 107.66 206.13 109.877C205.427 114.259 205.378 114.763 205.657 115.502C205.815 115.922 205.815 116.006 205.681 116.006C205.427 116.006 205.112 115.452 204.978 114.78C204.881 114.276 204.954 113.621 205.354 111.102C205.621 109.406 205.839 107.962 205.839 107.878C205.839 107.794 205.378 108.399 204.821 109.222C203.996 110.431 203.499 110.985 202.129 112.16C201.196 112.95 199.814 114.075 199.051 114.662C197.075 116.174 196.384 117.148 195.438 119.784C194.905 121.279 194.602 122.488 194.141 124.99C193.511 128.382 192.941 130.43 192.105 132.294L191.838 132.882L192.444 132.278C198.275 126.451 198.517 126.165 199.063 124.99C199.329 124.402 200.045 123.26 200.663 122.437C201.281 121.631 202.057 120.473 202.384 119.868C203.536 117.786 204.53 116.694 205.572 116.375C205.851 116.274 206.202 116.241 206.348 116.308C206.542 116.375 206.445 116.459 205.936 116.677C204.845 117.148 203.754 118.39 202.493 120.624C202.239 121.077 201.887 121.614 201.717 121.799C200.905 122.672 199.572 124.587 199.16 125.477C198.626 126.602 198.081 127.189 193.244 131.858C191.559 133.487 190.056 134.847 189.911 134.897C189.777 134.931 188.892 135.082 187.959 135.233C184.759 135.737 181.268 136.509 179.898 136.996C178.225 137.601 176.795 137.55 173.606 136.727C171.049 136.089 169.424 136.224 167.485 137.231C165.097 138.491 163.388 141.329 163.594 143.713C163.703 144.905 164.042 145.98 164.406 146.249C164.588 146.383 165.315 146.467 166.442 146.484C168.103 146.517 168.309 146.568 170.321 147.307C173.109 148.331 175.776 149.204 176.479 149.338C176.795 149.406 177.134 149.49 177.231 149.54C177.485 149.658 176.528 150.329 175.534 150.749C173.813 151.471 172.77 151.639 169.291 151.773C165.473 151.924 165.133 152.008 163.351 153.201C161.921 154.158 160.818 155.451 160.03 157.063C159.302 158.574 158.999 159.867 159.084 161.076C159.157 162.151 159.569 163.696 159.957 164.267C160.321 164.804 160.854 164.838 162.321 164.368C163.048 164.132 163.812 164.032 164.891 164.032L166.43 164.032L165.957 165.09C165.376 166.383 165.073 167.844 165.218 168.734C165.327 169.422 166.067 171.236 166.394 171.605C166.539 171.773 166.709 171.773 167.145 171.639C167.461 171.538 168.212 171.303 168.806 171.118C169.594 170.866 170.697 170.715 172.806 170.581C177.582 170.295 179.498 169.875 183.401 168.297C184.637 167.793 187.753 166.584 190.311 165.61C194.953 163.847 195.996 163.394 196.978 162.705C198.36 161.714 199.257 159.867 201.523 153.285L202.408 150.682L203.608 149.221C205.669 146.702 207.124 145.392 210.748 142.806C213.306 140.976 214.882 139.549 215.936 138.088C217.391 136.089 218.07 134.612 219.367 130.649C220.519 127.105 221.343 125.057 223.44 120.523C224.349 118.525 225.622 115.569 226.24 113.974C227.634 110.397 228.01 109.558 229.222 107.475C232.58 101.699 237.441 97.2824 245.441 92.7317L247.769 91.4051L248.254 88.6344C249.951 78.962 250.824 69.4744 251.018 58.9624L251.09 54.3781L250.654 54.1262ZM234.144 61.9178C227.428 63.9329 223.137 65.78 221.27 67.4761L220.688 67.9966L221.222 67.3249C221.949 66.4182 223.792 65.1252 225.501 64.3023C228.301 62.9757 231.222 62.0522 235.901 61.0278C240.193 60.0875 240.035 60.1714 234.144 61.9178ZM167.533 170.312C166.806 171.051 166.782 171.068 167.242 170.463C167.521 170.111 167.933 169.674 168.152 169.506C168.697 169.086 168.503 169.338 167.533 170.312Z" fill="white"/>
<path d="M187.741 71.5902C187.522 70.7002 187.11 69.5919 186.904 69.3736C186.577 69.021 186.104 69.0042 184.989 69.34C183.765 69.7094 181.352 69.9445 180.819 69.7598L180.492 69.6423L180.795 69.1049C181.474 67.8287 181.886 66.0655 181.716 65.0748C181.607 64.4031 181.061 62.9422 180.722 62.4384C180.419 62.0018 180.08 62.0186 178.625 62.5223C177.607 62.8918 176.867 62.9925 174.079 63.194C172.249 63.3284 170.503 63.4795 170.2 63.5299C167.861 63.9329 166.115 64.4703 162.503 65.9144C160.309 66.7708 157.29 67.9463 155.799 68.5004C151.447 70.1125 150.102 70.7842 149.168 71.7749C148.356 72.6313 147.156 75.402 145.702 79.768C144.635 82.9586 144.489 83.2272 142.623 85.4102C141.071 87.207 139.628 88.4832 136.465 90.8006C134.949 91.9089 133.337 93.1515 132.889 93.5713C130.925 95.3681 129.458 97.7526 128.343 100.926C127.979 101.967 127.216 104.15 126.646 105.762C126.076 107.375 125.106 109.793 124.488 111.136C122.197 116.123 121.603 117.5 120.621 120.036C120.076 121.463 119.348 123.21 119.021 123.898C116.827 128.432 113.481 132.597 109.408 135.837C107.687 137.198 104.172 139.549 102.014 140.774C101.08 141.295 100.086 141.866 99.8198 142.034L99.3107 142.336L98.7652 145.493C96.9833 155.686 96.1105 164.989 95.9286 175.854L95.8559 180.706L96.3893 180.606C96.6802 180.539 99.2986 180.152 102.196 179.733L107.469 178.96L109.772 177.885C115.76 175.098 123.785 169.842 127.906 166.03C128.707 165.291 129.191 164.972 129.931 164.72C133.398 163.478 135.883 161.782 137.75 159.33C139.653 156.861 140.707 154.292 141.701 149.658C141.907 148.734 142.247 147.626 142.453 147.189C143.229 145.56 145.071 143.679 148.623 140.858C149.593 140.103 151.144 138.877 152.078 138.138C157.084 134.158 159.812 130.985 160.963 127.794C161.339 126.719 161.4 126.367 161.448 125.107C161.497 123.445 161.266 122.253 160.612 120.859C160.272 120.12 159.678 119.23 159.957 119.868C160.09 120.153 159.169 118.827 158.599 117.887C158.151 117.131 157.387 116.577 156.49 116.342C155.69 116.123 154.054 116.476 152.441 117.215C150.987 117.87 148.393 119.65 146.065 121.598C142.756 124.352 142.235 124.906 140.816 127.089C140.429 127.693 140.15 128.029 140.174 127.844C140.21 127.66 140.525 125.745 140.865 123.579C141.519 119.465 141.568 118.642 141.156 118.004C140.986 117.752 140.986 117.685 141.119 117.685C141.459 117.685 141.798 118.189 141.944 118.894C142.077 119.549 142.041 119.918 141.592 122.622C141.326 124.268 141.107 125.729 141.107 125.863C141.107 125.98 141.495 125.493 141.956 124.755C142.453 123.982 143.168 123.092 143.665 122.639C144.95 121.463 147.108 119.683 148.429 118.693C149.387 117.97 149.714 117.635 150.259 116.711C150.95 115.552 151.811 113.319 152.247 111.556C152.381 111.002 152.684 109.524 152.914 108.281C153.557 104.856 153.945 103.496 154.757 101.699C154.926 101.346 155.023 101.061 154.987 101.061C154.926 101.061 152.841 103.143 150.187 105.863C148.49 107.61 148.138 108.046 147.944 108.651C147.811 109.104 147.217 110.061 146.38 111.22C145.641 112.244 144.792 113.521 144.477 114.075C143.762 115.384 142.853 116.56 142.198 117.013C141.726 117.349 140.38 117.685 140.38 117.467C140.38 117.416 140.671 117.248 141.035 117.114C141.907 116.761 143.035 115.552 143.944 114.007C144.78 112.563 144.95 112.328 146.223 110.767C146.732 110.145 147.399 109.104 147.702 108.466C148.09 107.677 148.526 107.039 149.132 106.401C150.199 105.292 154.902 100.742 156.078 99.6669L156.927 98.8944L159.109 98.5418C162.248 98.0212 164.818 97.4671 166.745 96.8626C168.855 96.1909 169.909 96.2245 173.364 97.0473C175.655 97.5846 175.788 97.6014 176.928 97.3999C179.122 97.0137 180.819 95.9558 182.08 94.1758C183.316 92.4294 183.631 90.8006 183.122 88.6679C182.819 87.4421 182.649 87.3414 180.383 87.2574C178.613 87.1734 178.382 87.123 176.382 86.3842C174.406 85.6621 171.34 84.6378 170.079 84.3187L169.533 84.1676L170.164 83.7142C171.764 82.5723 174.031 82.0518 177.716 81.9846C180.577 81.951 181.255 81.8503 182.383 81.3297C185.328 79.9527 187.716 76.4599 187.85 73.303C187.874 72.7153 187.826 71.9764 187.741 71.5902ZM178.964 64.1176C178.746 64.3023 178.564 64.4199 178.564 64.3863C178.564 64.3023 179.752 63.0765 180.019 62.8918C180.346 62.6399 179.364 63.7818 178.964 64.1176Z" fill="white"/>
<path d="M31.8926 230.406V256H26.6367V230.406H31.8926ZM50.543 240.918V256H45.4629V236.98H50.2266L50.543 240.918ZM49.8398 245.822H48.4336C48.4336 244.498 48.5918 243.279 48.9082 242.166C49.2363 241.041 49.7109 240.068 50.332 239.248C50.9648 238.416 51.7441 237.771 52.6699 237.314C53.5957 236.857 54.668 236.629 55.8867 236.629C56.7305 236.629 57.5039 236.758 58.207 237.016C58.9102 237.262 59.5137 237.654 60.0176 238.193C60.5332 238.721 60.9316 239.412 61.2129 240.268C61.4941 241.111 61.6348 242.125 61.6348 243.309V256H56.5723V243.871C56.5723 243.004 56.4551 242.336 56.2207 241.867C55.9863 241.398 55.6523 241.07 55.2188 240.883C54.7969 240.695 54.2871 240.602 53.6895 240.602C53.0332 240.602 52.459 240.736 51.9668 241.006C51.4863 241.275 51.0879 241.65 50.7715 242.131C50.4551 242.6 50.2207 243.15 50.0684 243.783C49.916 244.416 49.8398 245.096 49.8398 245.822ZM61.1602 245.242L59.3496 245.471C59.3496 244.229 59.502 243.074 59.8066 242.008C60.123 240.941 60.5859 240.004 61.1953 239.195C61.8164 238.387 62.584 237.76 63.498 237.314C64.4121 236.857 65.4668 236.629 66.6621 236.629C67.5762 236.629 68.4082 236.764 69.1582 237.033C69.9082 237.291 70.5469 237.707 71.0742 238.281C71.6133 238.844 72.0234 239.582 72.3047 240.496C72.5977 241.41 72.7441 242.529 72.7441 243.854V256H67.6641V243.854C67.6641 242.975 67.5469 242.307 67.3125 241.85C67.0898 241.381 66.7617 241.059 66.3281 240.883C65.9062 240.695 65.4023 240.602 64.8164 240.602C64.207 240.602 63.6738 240.725 63.2168 240.971C62.7598 241.205 62.3789 241.533 62.0742 241.955C61.7695 242.377 61.541 242.869 61.3887 243.432C61.2363 243.982 61.1602 244.586 61.1602 245.242ZM90.9727 236.98V256H85.8926V236.98H90.9727ZM85.5762 232.023C85.5762 231.285 85.834 230.676 86.3496 230.195C86.8652 229.715 87.5566 229.475 88.4238 229.475C89.2793 229.475 89.9648 229.715 90.4805 230.195C91.0078 230.676 91.2715 231.285 91.2715 232.023C91.2715 232.762 91.0078 233.371 90.4805 233.852C89.9648 234.332 89.2793 234.572 88.4238 234.572C87.5566 234.572 86.8652 234.332 86.3496 233.852C85.834 233.371 85.5762 232.762 85.5762 232.023ZM116.162 236.98H120.75V255.367C120.75 257.102 120.363 258.572 119.59 259.779C118.828 260.998 117.762 261.918 116.391 262.539C115.02 263.172 113.426 263.488 111.609 263.488C110.812 263.488 109.969 263.383 109.078 263.172C108.199 262.961 107.355 262.633 106.547 262.188C105.75 261.742 105.082 261.18 104.543 260.5L106.775 257.512C107.361 258.191 108.041 258.719 108.814 259.094C109.588 259.48 110.443 259.674 111.381 259.674C112.295 259.674 113.068 259.504 113.701 259.164C114.334 258.836 114.82 258.35 115.16 257.705C115.5 257.072 115.67 256.305 115.67 255.402V241.375L116.162 236.98ZM103.365 246.719V246.35C103.365 244.896 103.541 243.578 103.893 242.395C104.256 241.199 104.766 240.174 105.422 239.318C106.09 238.463 106.898 237.801 107.848 237.332C108.797 236.863 109.869 236.629 111.064 236.629C112.33 236.629 113.391 236.863 114.246 237.332C115.102 237.801 115.805 238.469 116.355 239.336C116.906 240.191 117.334 241.205 117.639 242.377C117.955 243.537 118.201 244.809 118.377 246.191V247C118.201 248.324 117.938 249.555 117.586 250.691C117.234 251.828 116.771 252.824 116.197 253.68C115.623 254.523 114.908 255.18 114.053 255.648C113.209 256.117 112.201 256.352 111.029 256.352C109.857 256.352 108.797 256.111 107.848 255.631C106.91 255.15 106.107 254.477 105.439 253.609C104.771 252.742 104.256 251.723 103.893 250.551C103.541 249.379 103.365 248.102 103.365 246.719ZM108.428 246.35V246.719C108.428 247.504 108.504 248.236 108.656 248.916C108.809 249.596 109.043 250.199 109.359 250.727C109.688 251.242 110.092 251.646 110.572 251.939C111.064 252.221 111.645 252.361 112.312 252.361C113.238 252.361 113.994 252.168 114.58 251.781C115.166 251.383 115.605 250.838 115.898 250.146C116.191 249.455 116.361 248.658 116.408 247.756V245.453C116.385 244.715 116.285 244.053 116.109 243.467C115.934 242.869 115.688 242.359 115.371 241.938C115.055 241.516 114.645 241.188 114.141 240.953C113.637 240.719 113.039 240.602 112.348 240.602C111.68 240.602 111.1 240.754 110.607 241.059C110.127 241.352 109.723 241.756 109.395 242.271C109.078 242.787 108.838 243.396 108.674 244.1C108.51 244.791 108.428 245.541 108.428 246.35ZM138.715 241.129V256H133.652V236.98H138.416L138.715 241.129ZM144.445 236.857L144.357 241.551C144.111 241.516 143.812 241.486 143.461 241.463C143.121 241.428 142.811 241.41 142.529 241.41C141.814 241.41 141.193 241.504 140.666 241.691C140.15 241.867 139.717 242.131 139.365 242.482C139.025 242.834 138.768 243.262 138.592 243.766C138.428 244.27 138.334 244.844 138.311 245.488L137.291 245.172C137.291 243.941 137.414 242.811 137.66 241.779C137.906 240.736 138.264 239.828 138.732 239.055C139.213 238.281 139.799 237.684 140.49 237.262C141.182 236.84 141.973 236.629 142.863 236.629C143.145 236.629 143.432 236.652 143.725 236.699C144.018 236.734 144.258 236.787 144.445 236.857ZM166.066 251.711V243.238C166.066 242.629 165.967 242.107 165.768 241.674C165.568 241.229 165.258 240.883 164.836 240.637C164.426 240.391 163.893 240.268 163.236 240.268C162.674 240.268 162.188 240.367 161.777 240.566C161.367 240.754 161.051 241.029 160.828 241.393C160.605 241.744 160.494 242.16 160.494 242.641H155.432C155.432 241.832 155.619 241.064 155.994 240.338C156.369 239.611 156.914 238.973 157.629 238.422C158.344 237.859 159.193 237.42 160.178 237.104C161.174 236.787 162.287 236.629 163.518 236.629C164.994 236.629 166.307 236.875 167.455 237.367C168.604 237.859 169.506 238.598 170.162 239.582C170.83 240.566 171.164 241.797 171.164 243.273V251.412C171.164 252.455 171.229 253.311 171.357 253.979C171.486 254.635 171.674 255.209 171.92 255.701V256H166.805C166.559 255.484 166.371 254.84 166.242 254.066C166.125 253.281 166.066 252.496 166.066 251.711ZM166.734 244.416L166.77 247.281H163.939C163.271 247.281 162.691 247.357 162.199 247.51C161.707 247.662 161.303 247.879 160.986 248.16C160.67 248.43 160.436 248.746 160.283 249.109C160.143 249.473 160.072 249.871 160.072 250.305C160.072 250.738 160.172 251.131 160.371 251.482C160.57 251.822 160.857 252.092 161.232 252.291C161.607 252.479 162.047 252.572 162.551 252.572C163.312 252.572 163.975 252.42 164.537 252.115C165.1 251.811 165.533 251.436 165.838 250.99C166.154 250.545 166.318 250.123 166.33 249.725L167.666 251.869C167.479 252.35 167.221 252.848 166.893 253.363C166.576 253.879 166.172 254.365 165.68 254.822C165.188 255.268 164.596 255.637 163.904 255.93C163.213 256.211 162.393 256.352 161.443 256.352C160.236 256.352 159.141 256.111 158.156 255.631C157.184 255.139 156.41 254.465 155.836 253.609C155.273 252.742 154.992 251.758 154.992 250.656C154.992 249.66 155.18 248.775 155.555 248.002C155.93 247.229 156.48 246.578 157.207 246.051C157.945 245.512 158.865 245.107 159.967 244.838C161.068 244.557 162.346 244.416 163.799 244.416H166.734ZM189.621 230.406V256H184.348V230.406H189.621ZM204.949 230.406L194.807 243.045L188.953 249.338L188.004 244.346L191.959 238.932L198.48 230.406H204.949ZM198.955 256L191.414 244.17L195.316 240.9L205.195 256H198.955ZM226.148 251.711V243.238C226.148 242.629 226.049 242.107 225.85 241.674C225.65 241.229 225.34 240.883 224.918 240.637C224.508 240.391 223.975 240.268 223.318 240.268C222.756 240.268 222.27 240.367 221.859 240.566C221.449 240.754 221.133 241.029 220.91 241.393C220.688 241.744 220.576 242.16 220.576 242.641H215.514C215.514 241.832 215.701 241.064 216.076 240.338C216.451 239.611 216.996 238.973 217.711 238.422C218.426 237.859 219.275 237.42 220.26 237.104C221.256 236.787 222.369 236.629 223.6 236.629C225.076 236.629 226.389 236.875 227.537 237.367C228.686 237.859 229.588 238.598 230.244 239.582C230.912 240.566 231.246 241.797 231.246 243.273V251.412C231.246 252.455 231.311 253.311 231.439 253.979C231.568 254.635 231.756 255.209 232.002 255.701V256H226.887C226.641 255.484 226.453 254.84 226.324 254.066C226.207 253.281 226.148 252.496 226.148 251.711ZM226.816 244.416L226.852 247.281H224.021C223.354 247.281 222.773 247.357 222.281 247.51C221.789 247.662 221.385 247.879 221.068 248.16C220.752 248.43 220.518 248.746 220.365 249.109C220.225 249.473 220.154 249.871 220.154 250.305C220.154 250.738 220.254 251.131 220.453 251.482C220.652 251.822 220.939 252.092 221.314 252.291C221.689 252.479 222.129 252.572 222.633 252.572C223.395 252.572 224.057 252.42 224.619 252.115C225.182 251.811 225.615 251.436 225.92 250.99C226.236 250.545 226.4 250.123 226.412 249.725L227.748 251.869C227.561 252.35 227.303 252.848 226.975 253.363C226.658 253.879 226.254 254.365 225.762 254.822C225.27 255.268 224.678 255.637 223.986 255.93C223.295 256.211 222.475 256.352 221.525 256.352C220.318 256.352 219.223 256.111 218.238 255.631C217.266 255.139 216.492 254.465 215.918 253.609C215.355 252.742 215.074 251.758 215.074 250.656C215.074 249.66 215.262 248.775 215.637 248.002C216.012 247.229 216.562 246.578 217.289 246.051C218.027 245.512 218.947 245.107 220.049 244.838C221.15 244.557 222.428 244.416 223.881 244.416H226.816ZM249.457 236.98V256H244.377V236.98H249.457ZM244.061 232.023C244.061 231.285 244.318 230.676 244.834 230.195C245.35 229.715 246.041 229.475 246.908 229.475C247.764 229.475 248.449 229.715 248.965 230.195C249.492 230.676 249.756 231.285 249.756 232.023C249.756 232.762 249.492 233.371 248.965 233.852C248.449 234.332 247.764 234.572 246.908 234.572C246.041 234.572 245.35 234.332 244.834 233.852C244.318 233.371 244.061 232.762 244.061 232.023ZM277.74 252.045V256H263.291V252.045H277.74ZM277.459 239.898L265.33 256H261.938V252.994L274.014 236.98H277.459V239.898ZM275.666 236.98V240.953H262.219V236.98H275.666ZM298.641 256.352C297.164 256.352 295.84 256.117 294.668 255.648C293.496 255.168 292.5 254.506 291.68 253.662C290.871 252.818 290.25 251.84 289.816 250.727C289.383 249.602 289.166 248.406 289.166 247.141V246.438C289.166 244.996 289.371 243.678 289.781 242.482C290.191 241.287 290.777 240.25 291.539 239.371C292.312 238.492 293.25 237.818 294.352 237.35C295.453 236.869 296.695 236.629 298.078 236.629C299.426 236.629 300.621 236.852 301.664 237.297C302.707 237.742 303.58 238.375 304.283 239.195C304.998 240.016 305.537 241 305.9 242.148C306.264 243.285 306.445 244.551 306.445 245.945V248.055H291.328V244.68H301.471V244.293C301.471 243.59 301.342 242.963 301.084 242.412C300.838 241.85 300.463 241.404 299.959 241.076C299.455 240.748 298.811 240.584 298.025 240.584C297.357 240.584 296.783 240.73 296.303 241.023C295.822 241.316 295.43 241.727 295.125 242.254C294.832 242.781 294.609 243.402 294.457 244.117C294.316 244.82 294.246 245.594 294.246 246.438V247.141C294.246 247.902 294.352 248.605 294.562 249.25C294.785 249.895 295.096 250.451 295.494 250.92C295.904 251.389 296.396 251.752 296.971 252.01C297.557 252.268 298.219 252.396 298.957 252.396C299.871 252.396 300.721 252.221 301.506 251.869C302.303 251.506 302.988 250.961 303.562 250.234L306.023 252.906C305.625 253.48 305.08 254.031 304.389 254.559C303.709 255.086 302.889 255.52 301.928 255.859C300.967 256.188 299.871 256.352 298.641 256.352ZM323.25 241.041V256H318.188V236.98H322.934L323.25 241.041ZM322.512 245.822H321.141C321.141 244.416 321.322 243.15 321.686 242.025C322.049 240.889 322.559 239.922 323.215 239.125C323.871 238.316 324.65 237.701 325.553 237.279C326.467 236.846 327.486 236.629 328.611 236.629C329.502 236.629 330.316 236.758 331.055 237.016C331.793 237.273 332.426 237.684 332.953 238.246C333.492 238.809 333.902 239.553 334.184 240.479C334.477 241.404 334.623 242.535 334.623 243.871V256H329.525V243.854C329.525 243.01 329.408 242.354 329.174 241.885C328.939 241.416 328.594 241.088 328.137 240.9C327.691 240.701 327.141 240.602 326.484 240.602C325.805 240.602 325.213 240.736 324.709 241.006C324.217 241.275 323.807 241.65 323.479 242.131C323.162 242.6 322.922 243.15 322.758 243.783C322.594 244.416 322.512 245.096 322.512 245.822Z" fill="black"/>
</svg>
